<svg width="56" height="56" viewBox="0 0 56 56" fill="none" xmlns="http://www.w3.org/2000/svg">
<path d="M18.1222 28L22.7111 23.4111C23.3333 22.7889 23.6444 22.063 23.6444 21.2333C23.6444 20.4037 23.3333 19.6778 22.7111 19.0556C22.0889 18.4333 21.3505 18.1222 20.496 18.1222C19.6394 18.1222 18.9 18.4333 18.2778 19.0556L11.5111 25.8222C11.2 26.1333 10.9801 26.4704 10.8516 26.8333C10.7209 27.1963 10.6556 27.5852 10.6556 28C10.6556 28.4148 10.7209 28.8037 10.8516 29.1667C10.9801 29.5296 11.2 29.8667 11.5111 30.1778L18.2778 36.9444C18.9 37.5667 19.6394 37.8778 20.496 37.8778C21.3505 37.8778 22.0889 37.5667 22.7111 36.9444C23.3333 36.3222 23.6444 35.5963 23.6444 34.7667C23.6444 33.937 23.3333 33.2111 22.7111 32.5889L18.1222 28ZM37.8778 28L33.2889 32.5889C32.6667 33.2111 32.3556 33.937 32.3556 34.7667C32.3556 35.5963 32.6667 36.3222 33.2889 36.9444C33.9111 37.5667 34.6505 37.8778 35.5071 37.8778C36.3616 37.8778 37.1 37.5667 37.7222 36.9444L44.4889 30.1778C44.8 29.8667 45.0198 29.5296 45.1484 29.1667C45.2791 28.8037 45.3444 28.4148 45.3444 28C45.3444 27.5852 45.2791 27.1963 45.1484 26.8333C45.0198 26.4704 44.8 26.1333 44.4889 25.8222L37.7222 19.0556C37.4111 18.7444 37.0616 18.5111 36.6738 18.3556C36.2839 18.2 35.895 18.1222 35.5071 18.1222C35.1172 18.1222 34.7283 18.2 34.3404 18.3556C33.9505 18.5111 33.6 18.7444 33.2889 19.0556C32.6667 19.6778 32.3556 20.4037 32.3556 21.2333C32.3556 22.063 32.6667 22.7889 33.2889 23.4111L37.8778 28ZM6.22222 56C4.51111 56 3.04578 55.3913 1.82622 54.1738C0.60874 52.9542 0 51.4889 0 49.7778V6.22222C0 4.51111 0.60874 3.04578 1.82622 1.82622C3.04578 0.60874 4.51111 0 6.22222 0H49.7778C51.4889 0 52.9542 0.60874 54.1738 1.82622C55.3913 3.04578 56 4.51111 56 6.22222V49.7778C56 51.4889 55.3913 52.9542 54.1738 54.1738C52.9542 55.3913 51.4889 56 49.7778 56H6.22222Z" fill="#4D64B5"/>
</svg>
