<svg width="729" height="853" viewBox="0 0 729 853" fill="none" xmlns="http://www.w3.org/2000/svg">
<path d="M729 36.4896C729 38.8949 714.355 203.576 696.455 402.412C678.556 601.248 663.748 765.769 663.585 767.854C663.096 771.381 656.256 773.467 515.345 812.27C434.146 834.72 366.452 853 364.825 853C363.353 852.998 295.664 834.879 214.632 812.591C133.438 790.304 66.7248 771.704 66.2285 771.221C65.9031 770.74 50.7693 605.898 32.707 404.817C14.6448 203.737 0 37.6121 0 35.6879V32H729V36.4896ZM133.107 182.73L134.084 190.427C134.572 194.596 135.711 210.311 136.688 225.224C137.664 240.136 138.803 256.171 139.291 260.501L140.104 268.519L496.794 266.915C495.329 274.452 493.539 295.137 491.912 317.747L488.983 358.957C468.806 360.24 392.651 361.363 306.733 362.164C220.818 363.126 150.198 364.248 149.705 364.889C149.217 365.371 150.519 381.727 152.635 401.289C154.75 420.852 157.028 439.613 157.517 442.981L158.655 448.914H481.661C480.359 456.932 477.104 485.314 473.524 517.064C469.947 548.794 466.857 574.759 466.69 574.95C466.365 574.95 443.909 581.044 416.571 588.099C389.234 595.315 365.802 601.248 364.5 601.248C363.198 601.248 339.766 595.476 312.429 588.26C285.094 581.045 262.639 574.951 262.473 574.95C262.147 574.786 260.52 558.592 258.73 538.711C256.778 518.827 254.987 501.67 254.499 500.707C254.01 499.104 243.27 498.623 208.286 498.623C165.979 498.623 162.724 498.783 162.724 501.509C162.724 502.952 165.653 535.664 169.232 573.988C172.812 612.304 176.228 644.209 176.88 644.703C177.531 645.184 219.839 657.05 270.935 671.001L363.687 696.176C508.673 657.051 551.306 645.184 552.12 644.703C552.772 644.212 556.188 612.306 559.768 573.988C563.347 535.664 572.46 434.963 580.108 350.298C587.594 265.632 594.266 193.313 594.754 189.625L595.567 182.73H133.107Z" fill="#E7E7E7"/>
</svg>
