<svg width="883" height="883" viewBox="0 0 883 883" fill="none" xmlns="http://www.w3.org/2000/svg">
<path d="M377.878 4.34222C383.544 3.53265 394.656 2.20791 402.53 1.47194C412.759 0.441581 423.503 0.0735969 440.06 0C455.072 0 467.656 0.367984 475.751 1.03036C482.668 1.61913 489.586 2.2815 491.205 2.50229C492.824 2.72308 499.152 3.53265 505.186 4.41581C511.294 5.22538 521.229 6.91811 527.263 8.09566C533.371 9.3468 544.262 11.8491 551.547 13.689C558.833 15.5289 570.46 18.8408 577.303 21.0487C584.221 23.2566 596.436 27.6724 604.531 30.9107C612.626 34.0754 626.534 40.3311 635.438 44.7469C644.343 49.0891 656.117 55.2713 661.562 58.4359C667.008 61.527 676.795 67.6355 683.271 71.8305C689.747 76.0992 698.872 82.4285 703.508 85.8875C708.144 89.3466 714.473 94.1304 717.49 96.6327C720.507 99.0614 726.468 104.066 730.736 107.672C735.004 111.352 743.908 119.669 750.531 126.145C757.08 132.622 765.764 141.6 769.738 146.016C773.712 150.506 779.157 156.761 781.88 160C784.603 163.238 790.563 170.892 795.126 176.927C799.688 183.035 806.9 193.265 811.168 199.742C815.363 206.218 821.397 216.007 824.561 221.453C827.726 226.899 832.877 236.688 836.115 243.164C839.426 249.641 843.915 259.282 846.27 264.507C848.625 269.733 852.525 279.374 854.953 285.85C857.382 292.327 860.767 301.968 862.386 307.193C864.078 312.419 866.948 322.354 868.715 329.272C870.554 336.191 872.836 345.758 873.792 350.616C874.822 355.473 876.294 363.421 877.104 368.279C877.913 373.136 879.091 380.937 879.679 385.574C880.268 390.211 881.298 400.809 881.961 409.125C882.696 418.84 883.064 431.498 882.991 444.82C882.917 456.153 882.623 468.076 882.255 471.314C881.961 474.553 881.298 481.324 880.857 486.402C880.415 491.48 879.238 501.048 878.208 507.745C877.177 514.442 875.338 524.672 874.16 530.56C872.983 536.448 870.554 546.825 868.715 553.743C866.948 560.661 864.078 570.597 862.386 575.822C860.767 581.047 857.382 590.689 854.953 597.165C852.525 603.642 848.625 613.283 846.27 618.508C843.915 623.734 839.426 633.375 836.115 639.851C832.877 646.328 827.726 656.116 824.561 661.562C821.397 667.008 815.363 676.797 811.168 683.273C806.9 689.75 799.688 700.053 795.126 706.088C790.563 712.197 784.603 719.777 781.88 723.016C779.157 726.254 773.712 732.583 769.738 736.999L769.547 737.211C765.64 741.553 761.824 745.794 759.362 748.039L522.112 510.689H575.464V482.722H494.148L471.704 460.275V395.878H562.218V369.383H471.704V285.85H568.473L568.841 258.987H441.532V430.1L376.038 364.599V258.987H346.603V335.16L135.035 123.643L136.507 122.024C137.317 121.14 141.585 117.24 146.074 113.266C150.562 109.291 156.818 103.845 160.055 101.122C163.293 98.399 170.873 92.4377 176.981 87.8747C183.015 83.3117 193.318 76.0992 199.793 71.8305C206.269 67.6355 216.056 61.6006 221.502 58.4359C226.948 55.2713 236.735 50.1195 243.211 46.8812C249.686 43.5694 259.327 39.0799 264.551 36.7248C269.776 34.3697 279.931 30.3219 286.996 27.6724C294.06 25.0229 304.657 21.3431 310.544 19.5768C316.431 17.7368 326.513 14.9402 332.989 13.321C339.465 11.6283 349.914 9.3468 356.169 8.09566C362.424 6.91811 372.212 5.22538 377.878 4.34222Z" fill="#E7E7E7"/>
<path d="M597.54 284.746L597.614 271.793C597.687 264.36 597.982 259.061 598.35 259.282C598.718 259.503 638.088 259.723 772.681 259.723V284.746H736.917C717.269 284.746 700.859 285.041 700.491 285.335C700.123 285.63 699.755 332.658 699.461 510.321L670.393 510.689V398.086C670.393 298.656 670.246 285.409 669.289 285.114C668.7 284.894 652.29 284.746 597.54 284.746Z" fill="#F9F9F9"/>
<path d="M108.102 151.904C111.928 147.488 119.508 139.245 125.027 133.652L135.035 123.569L346.529 335.16L346.897 398.821C347.118 433.854 347.486 464.544 347.854 467.046C348.148 469.622 348.295 471.682 348.075 471.682C347.854 471.756 343.954 465.868 339.465 458.656C334.902 451.443 304.436 403.679 212.23 259.355L173.669 258.987V510.689H203.105L202.884 404.562C202.737 346.126 202.443 297.626 202.148 296.743C201.854 295.712 201.927 295.05 202.369 295.05C202.81 295.05 204.356 297.626 205.828 300.79C207.373 303.882 238.28 352.455 340.348 510.762L376.038 510.689L376.406 365.335L441.532 430.1L441.532 510.689L522.112 510.689L759.435 748.039L751.488 755.987C747.146 760.403 738.978 768.057 733.311 772.988C727.645 777.919 720.507 783.954 717.49 786.383C714.473 788.885 708.144 793.669 703.508 797.128C698.872 800.587 689.747 806.916 683.271 811.185C676.795 815.38 667.008 821.488 661.562 824.579C656.117 827.744 644.343 833.926 635.438 838.268C626.534 842.684 612.626 848.94 604.531 852.105C596.436 855.343 584 859.832 576.935 862.04C569.871 864.322 557.582 867.854 549.708 869.842C541.834 871.755 530.869 874.257 525.423 875.288C519.978 876.318 512.177 877.643 508.13 878.232C504.083 878.894 496.429 879.851 491.205 880.44C485.98 881.028 476.634 881.911 470.6 882.427C463.462 882.942 450.657 883.163 434.541 882.868C415.923 882.574 405.989 882.132 395.539 880.955C387.812 880.071 374.787 878.158 366.472 876.76C358.156 875.361 344.616 872.565 336.3 870.504C327.985 868.443 316.431 865.279 310.544 863.439C304.657 861.672 294.87 858.287 288.836 856.079C282.728 853.797 273.161 849.97 267.495 847.542C261.829 845.113 251.379 840.256 244.314 836.723C237.25 833.19 226.948 827.744 221.502 824.579C216.056 821.415 206.269 815.38 199.793 811.185C193.318 806.916 184.193 800.587 179.556 797.128C174.92 793.669 167.782 788.149 163.735 784.911C159.687 781.672 153.212 776.226 149.385 772.767C145.558 769.382 137.611 761.948 131.797 756.208C126.057 750.467 117.374 741.489 112.664 736.263C107.955 731.038 101.405 723.384 98.1673 719.336C94.9294 715.288 89.4103 708.149 85.9516 703.513C82.4929 698.876 76.1643 689.75 71.8962 683.273C67.7016 676.797 61.4466 666.714 58.0615 660.826C54.75 654.939 48.4214 642.869 44.0796 633.964C39.7379 625.058 34.2187 612.841 31.7903 606.733C29.3619 600.698 25.8296 591.204 23.9163 585.758C22.0766 580.311 19.0595 570.67 17.2198 564.414C15.38 558.159 12.5837 547.414 11.0383 540.495C9.41935 533.577 7.35887 523.2 6.32863 517.312C5.37198 511.425 3.97379 502.519 3.38508 497.441C2.72278 492.363 1.69254 482.133 1.10383 474.626C0.515121 467.119 0 452.4 0 441.876C0 431.351 0.515121 416.264 1.10383 408.389C1.69254 400.514 2.86996 388.886 3.75302 382.63C4.5625 376.374 6.10786 366.733 7.06452 361.287C8.09476 355.841 9.93448 347.009 11.1119 341.784C12.3629 336.559 14.497 328.095 15.8952 323.017C17.3669 317.939 20.0161 309.18 21.8558 303.514C23.6956 297.847 27.8165 286.586 30.9808 278.491C34.1452 270.395 40.4002 256.485 44.8155 247.58C49.1573 238.675 55.3387 226.899 58.503 221.453C61.5937 216.007 67.7016 206.218 71.8962 199.742C76.1643 193.265 83.0081 183.477 87.0554 178.031C91.1028 172.585 95.9597 166.255 97.7994 164.047C99.6391 161.84 104.275 156.393 108.102 151.904Z" fill="#E7E7E7"/>
<path d="M505.186 604.746C506.805 603.936 509.455 602.979 511.073 602.685C512.692 602.317 515.342 602.243 516.961 602.464C518.58 602.611 520.493 602.906 521.155 603.126C522.333 603.347 522.48 604.378 522.48 610.045C522.48 613.724 522.406 616.668 522.259 616.668C522.185 616.668 520.861 616.227 519.315 615.564C517.844 614.976 515.047 614.46 513.134 614.46C510.706 614.46 508.277 615.123 505.554 616.448C503.2 617.625 500.55 619.759 499.299 621.452C498.048 623.071 496.209 626.383 495.252 628.812C493.415 633.148 493.412 633.521 493.046 686.362L493.044 686.585H479.062V603.421L492.676 603.789L493.412 618.508L495.031 615.417C495.988 613.651 497.975 610.854 499.446 609.235C500.992 607.542 503.567 605.555 505.186 604.746Z" fill="#F9F9F9"/>
<path d="M555.595 604.009C557.802 603.2 561.482 602.243 563.689 602.022C565.897 601.728 568.767 601.581 569.944 601.654C571.122 601.802 573.771 602.022 575.832 602.243C577.819 602.39 581.351 603.347 583.558 604.304C585.766 605.261 589.078 607.395 590.844 609.014C592.61 610.56 595.185 613.651 596.584 615.711C597.908 617.846 599.895 622.188 600.925 625.279C602.324 629.474 602.912 633.375 603.795 648.315H574.581C555.742 648.315 545.145 648.609 544.924 649.051C544.704 649.419 544.924 651.921 545.292 654.57C545.66 657.22 546.985 661.268 548.162 663.549C549.34 665.904 551.4 668.922 552.725 670.32C554.123 671.645 557.067 673.632 559.274 674.736C562.88 676.429 564.205 676.65 571.416 676.65C578.113 676.65 580.394 676.355 584.662 674.883C587.532 673.853 591.359 671.939 596.804 668.186L596.436 680.918L592.389 682.979C590.181 684.156 586.649 685.628 584.662 686.291C582.528 686.953 577.009 687.615 571.416 687.836C563.689 688.204 561.04 687.983 557.434 686.953C555.006 686.291 551.327 684.745 549.34 683.641C547.279 682.464 544.041 679.888 542.128 677.974C539.92 675.84 537.418 672.087 535.652 668.554C534.033 665.316 532.267 660.164 531.605 657.146C530.722 653.099 530.501 649.345 530.795 643.163C531.016 638.526 531.752 632.859 532.414 630.652C533.077 628.444 534.843 624.469 536.241 621.82C537.713 619.17 539.7 615.932 540.803 614.607C541.834 613.283 544.704 610.633 547.132 608.867C549.56 607.027 553.387 604.893 555.595 604.009Z" fill="#F9F9F9"/>
<path d="M556.331 617.036C558.097 615.859 561.04 614.46 562.88 613.945C564.793 613.504 567.442 613.062 568.841 613.062C570.239 612.988 573.109 613.43 575.096 614.019C577.156 614.681 580.1 616.227 581.719 617.625C583.558 619.171 585.472 621.82 586.796 624.837C587.974 627.413 589.078 631.314 589.813 637.275H544.556L544.998 635.288C545.292 634.111 546.102 631.608 546.911 629.548C547.647 627.561 549.34 624.396 550.664 622.556C552.062 620.716 554.564 618.287 556.331 617.036Z" fill="#E7E7E7"/>
<path d="M397.379 605.997C399.587 604.819 403.413 603.347 405.842 602.611C408.785 601.728 412.98 601.287 418.352 601.287C423.797 601.213 427.771 601.581 430.494 602.39C432.702 603.053 436.528 604.598 438.883 605.85C441.238 607.174 444.991 610.118 447.125 612.473C449.333 614.755 452.055 618.729 453.233 621.305C454.484 623.807 455.956 628.002 456.544 630.652C457.207 633.522 457.722 638.895 457.722 643.899C457.722 649.124 457.28 654.056 456.618 656.779C456.029 659.207 454.337 663.476 452.938 666.346C451.54 669.216 448.965 673.191 447.199 675.178C445.432 677.238 442.194 680.035 439.987 681.581C437.779 683.053 433.437 685.113 430.273 686.144C425.637 687.689 423.209 688.057 417.101 688.057C412.317 688.057 408.049 687.616 405.474 686.88C403.266 686.217 399.439 684.672 397.011 683.421C394.583 682.096 390.756 679.226 388.548 676.944C386.341 674.736 383.324 670.615 381.778 667.744C380.306 664.948 378.614 660.679 377.952 658.251C377.216 655.454 376.774 650.596 376.774 645.003C376.774 639.336 377.142 634.626 377.952 631.756C378.54 629.327 380.086 625.205 381.337 622.556C382.808 619.465 385.31 616.079 388.475 612.915C391.124 610.265 395.171 607.101 397.379 605.997Z" fill="#F9F9F9"/>
<path d="M402.089 617.772C403.708 616.521 406.725 614.976 408.712 614.24C411.508 613.283 414.157 612.989 419.088 613.209C424.975 613.43 426.226 613.724 430.42 615.932C432.996 617.331 435.939 619.465 436.97 620.716C437.926 621.894 439.545 624.47 440.502 626.383C441.459 628.37 442.783 631.976 443.372 634.479C443.961 637.054 444.476 641.838 444.476 645.15C444.476 648.535 444.108 653.025 443.666 655.085C443.151 657.22 442.121 660.605 441.238 662.666C440.355 664.653 438.294 667.818 436.602 669.657C434.688 671.792 431.966 673.705 428.949 675.104C424.607 677.017 423.724 677.164 416.88 676.944C410.478 676.649 408.932 676.355 405.179 674.441C402.825 673.19 399.734 670.982 398.409 669.437C397.011 667.965 395.098 665.021 394.067 663.034C393.037 660.973 391.713 657.293 391.05 654.717C390.167 651.332 389.947 648.315 390.241 643.163C390.462 639.189 391.271 634.405 392.081 632.123C392.817 629.916 394.362 626.751 395.392 625.132C396.422 623.513 397.747 621.673 398.262 621.084C398.777 620.422 400.543 618.95 402.089 617.772Z" fill="#E7E7E7"/>
<path d="M313.12 572.142C316.358 571.038 320.847 569.861 323.054 569.566C325.262 569.198 331.223 569.051 336.3 569.198C342.482 569.419 347.559 570.008 351.754 571.112C355.213 571.995 358.598 572.952 359.26 573.32C360.364 573.908 360.585 575.012 360.585 580.606C360.585 584.286 360.437 587.229 360.217 587.229C359.996 587.229 358.524 586.567 356.905 585.758C355.286 584.948 351.533 583.623 348.59 582.814C345.72 582.004 340.127 581.121 336.3 580.9C331.296 580.606 327.691 580.827 323.79 581.636C320.773 582.298 315.769 583.991 312.752 585.463C308.778 587.45 305.761 589.658 302.082 593.412C298.255 597.239 296.047 600.256 293.84 604.893C292.147 608.352 290.234 613.283 289.572 615.932C288.909 618.876 288.468 624.249 288.468 629.916C288.468 635.583 288.909 640.955 289.645 643.899C290.234 646.549 291.926 651.185 293.398 654.203C295.311 658.177 297.446 661.121 301.272 664.948C304.289 667.965 308.19 670.983 310.544 672.087C312.752 673.191 316.431 674.589 318.639 675.178C321.068 675.84 325.924 676.282 330.781 676.282C335.27 676.282 341.01 675.84 343.659 675.251C346.308 674.736 350.945 673.191 353.962 671.939C356.979 670.688 359.702 669.658 359.996 669.658C360.364 669.658 360.511 672.381 360.217 681.801L356.169 683.421C353.962 684.304 350.135 685.555 347.707 686.291C344.689 687.174 339.465 687.616 331.149 687.91C320.332 688.204 318.345 688.057 313.12 686.585C309.882 685.702 305.099 683.862 302.45 682.464C299.8 681.065 295.753 678.49 293.398 676.65C291.117 674.81 287.658 671.277 285.819 668.775C283.905 666.199 281.109 661.489 279.564 658.25C278.018 655.012 276.252 650.228 275.59 647.579C274.927 644.929 274.265 638.821 273.971 633.963C273.676 627.413 273.897 623.292 274.78 618.14C275.516 614.313 277.062 608.646 278.239 605.629C279.49 602.611 282.213 597.459 284.347 594.221C286.554 590.983 290.381 586.42 292.957 583.991C295.532 581.636 299.8 578.398 302.45 576.852C305.099 575.307 309.882 573.172 313.12 572.142Z" fill="#F9F9F9"/>
<path d="M87.7177 481.471C89.4839 479.631 92.501 477.276 94.5615 476.392C96.6956 475.362 99.6391 474.626 101.552 474.626C103.392 474.626 106.336 475.068 108.175 475.73C110.015 476.319 112.811 477.938 114.43 479.263C116.049 480.587 118.257 483.531 119.434 485.739C121.053 488.904 121.421 490.67 121.421 494.497C121.421 497.441 120.906 500.385 120.097 502.225C119.361 503.844 117.448 506.493 115.829 508.039C114.283 509.658 111.634 511.571 110.015 512.307C108.175 513.117 105.305 513.632 102.288 513.632C98.8296 513.632 96.4748 513.117 93.8256 511.939C91.8387 510.983 89.0423 508.922 87.6441 507.303C86.246 505.757 84.7006 503.402 84.1855 502.225C83.6704 501.047 83.1552 498.471 83.0081 496.558C82.8609 494.718 83.1552 491.332 83.6704 489.051C84.4062 486.034 85.4365 484.046 87.7177 481.471Z" fill="#F9F9F9"/>
<path d="M173.669 510.689V258.987L212.23 259.355L271.689 352.455C304.436 403.679 334.902 451.443 339.465 458.656C343.954 465.868 347.854 471.756 348.075 471.682C348.295 471.682 348.148 469.622 347.854 467.046C347.486 464.544 347.044 416.779 346.529 259.355L376.038 259.723L376.038 510.689L340.348 510.762L274.486 408.61C238.28 352.455 207.373 303.882 205.901 300.79C204.356 297.626 202.81 295.05 202.369 295.05C201.927 295.05 201.854 295.712 202.148 296.669C202.443 297.626 202.737 346.126 203.105 510.689H173.669Z" fill="#F9F9F9"/>
<path d="M369.415 259.503C365.589 259.65 358.966 259.65 354.698 259.503C350.429 259.429 353.594 259.282 361.688 259.282C369.783 259.282 373.242 259.429 369.415 259.503Z" fill="#E7E7E7"/>
<path d="M441.532 510.689L441.532 259.723H568.841V284.746L472.071 285.114L471.704 369.383H562.218V395.878H471.704V428.407C471.63 446.365 471.704 465.795 471.704 471.682C471.777 477.57 471.851 482.428 471.924 482.501C471.998 482.648 495.326 482.722 575.464 482.722V510.689L441.532 510.689Z" fill="#F9F9F9"/>
<path d="M471.704 482.722L471.556 471.756C471.336 462.189 471.483 460.864 472.439 461.379C473.028 461.747 478.106 466.604 483.625 472.198C489.218 477.791 493.78 482.501 493.78 482.722C493.78 482.943 488.85 483.016 471.704 482.722Z" fill="#E7E7E7"/>
</svg>
