<svg width="883" height="883" viewBox="0 0 883 883" fill="none" xmlns="http://www.w3.org/2000/svg">
<path d="M441.5 0.5C676.221 0.5 866.5 190.779 866.5 425.5C866.5 660.221 676.221 850.5 441.5 850.5C206.779 850.5 16.5 660.221 16.5 425.5C16.5 190.779 206.779 0.5 441.5 0.5ZM418.352 601.287C412.98 601.287 408.785 601.728 405.842 602.611C403.413 603.347 399.587 604.819 397.379 605.997C395.171 607.101 391.124 610.265 388.475 612.915C385.31 616.079 382.808 619.466 381.337 622.557C380.086 625.206 378.54 629.327 377.952 631.756C377.142 634.626 376.774 639.336 376.774 645.003C376.774 650.596 377.216 655.454 377.952 658.251C378.614 660.679 380.306 664.948 381.778 667.744C383.324 670.615 386.341 674.736 388.548 676.944C390.756 679.226 394.583 682.096 397.011 683.421C399.439 684.672 403.266 686.217 405.474 686.88C408.049 687.616 412.317 688.058 417.101 688.058C423.209 688.058 425.637 687.69 430.273 686.145C433.437 685.113 437.779 683.053 439.987 681.581C442.194 680.035 445.432 677.238 447.199 675.178C448.965 673.191 451.54 669.216 452.938 666.347C454.336 663.477 456.029 659.207 456.618 656.779C457.28 654.056 457.722 649.124 457.722 643.899C457.722 638.896 457.207 633.522 456.544 630.652C455.956 628.003 454.484 623.808 453.233 621.306C452.055 618.73 449.333 614.756 447.125 612.474C444.991 610.119 441.238 607.175 438.883 605.851C436.528 604.599 432.702 603.054 430.494 602.391C427.771 601.582 423.797 601.213 418.352 601.287ZM336.3 569.198C331.223 569.051 325.262 569.197 323.054 569.565C320.847 569.86 316.358 571.038 313.12 572.142C309.882 573.172 305.099 575.307 302.45 576.852C299.8 578.398 295.532 581.636 292.957 583.991C290.381 586.42 286.554 590.983 284.347 594.221C282.213 597.459 279.49 602.611 278.239 605.629C277.062 608.646 275.516 614.313 274.78 618.14C273.897 623.292 273.676 627.413 273.971 633.963C274.265 638.821 274.927 644.929 275.59 647.579C276.252 650.228 278.018 655.012 279.564 658.25C281.109 661.489 283.905 666.199 285.819 668.775C287.658 671.277 291.118 674.81 293.398 676.65C295.754 678.49 299.8 681.065 302.45 682.464C305.099 683.862 309.882 685.702 313.12 686.585C318.345 688.057 320.332 688.204 331.149 687.91C339.465 687.616 344.689 687.174 347.707 686.291C350.135 685.555 353.962 684.304 356.169 683.421L360.217 681.801C360.511 672.381 360.364 669.658 359.996 669.658C359.702 669.658 356.979 670.688 353.962 671.938C350.945 673.19 346.308 674.736 343.659 675.251C341.01 675.84 335.27 676.282 330.781 676.282C325.924 676.282 321.068 675.84 318.639 675.178C316.431 674.589 312.752 673.191 310.544 672.087C308.19 670.983 304.289 667.965 301.272 664.948C297.447 661.121 295.311 658.177 293.398 654.203C291.926 651.185 290.234 646.548 289.646 643.898C288.91 640.954 288.468 635.583 288.468 629.916C288.468 624.249 288.909 618.876 289.572 615.932C290.234 613.283 292.147 608.351 293.84 604.893C296.047 600.256 298.255 597.239 302.082 593.412C305.761 589.658 308.778 587.45 312.752 585.463C315.769 583.991 320.773 582.298 323.79 581.636C327.691 580.827 331.296 580.606 336.3 580.9C340.127 581.121 345.72 582.003 348.59 582.813C351.533 583.622 355.286 584.948 356.905 585.758C358.524 586.566 359.995 587.228 360.217 587.229C360.437 587.229 360.585 584.285 360.585 580.605C360.585 575.012 360.364 573.908 359.26 573.32C358.598 572.952 355.213 571.995 351.754 571.112C347.559 570.008 342.482 569.419 336.3 569.198ZM569.943 601.654C568.766 601.581 565.896 601.729 563.688 602.022C561.481 602.244 557.802 603.2 555.595 604.009C553.387 604.893 549.56 607.027 547.132 608.867C544.704 610.633 541.834 613.283 540.803 614.607C539.7 615.933 537.712 619.171 536.24 621.82C534.842 624.469 533.077 628.445 532.414 630.652C531.752 632.86 531.016 638.526 530.795 643.163C530.501 649.345 530.721 653.099 531.604 657.146C532.267 660.164 534.033 665.316 535.651 668.554C537.417 672.087 539.92 675.84 542.128 677.974C544.041 679.888 547.279 682.464 549.34 683.641C551.327 684.745 555.006 686.291 557.434 686.953C561.04 687.983 563.689 688.204 571.416 687.836C577.009 687.615 582.528 686.953 584.662 686.291C586.649 685.628 590.181 684.156 592.389 682.979L596.436 680.918L596.804 668.186C591.359 671.938 587.532 673.853 584.662 674.883C580.394 676.355 578.113 676.65 571.416 676.65C564.205 676.65 562.879 676.429 559.273 674.736C557.067 673.632 554.123 671.645 552.725 670.32C551.4 668.922 549.34 665.904 548.162 663.549C546.985 661.268 545.66 657.22 545.292 654.57C544.924 651.922 544.704 649.419 544.924 649.051C545.149 648.609 555.746 648.315 574.581 648.315H603.795C602.912 633.376 602.324 629.474 600.925 625.279C599.895 622.188 597.908 617.846 596.584 615.711C595.185 613.651 592.61 610.56 590.844 609.014C589.078 607.395 585.766 605.261 583.558 604.304C581.351 603.347 577.819 602.39 575.832 602.243C573.771 602.022 571.121 601.802 569.943 601.654ZM516.961 602.464C515.342 602.243 512.692 602.318 511.073 602.686C509.455 602.98 506.805 603.936 505.186 604.746C503.567 605.555 500.992 607.542 499.446 609.235C497.975 610.854 495.988 613.651 495.031 615.417L493.412 618.508L492.676 603.789L479.062 603.421V686.585H493.044L493.046 686.362C493.412 633.523 493.415 633.148 495.252 628.812C496.209 626.384 498.048 623.071 499.299 621.452C500.55 619.759 503.2 617.625 505.554 616.448C508.277 615.123 510.706 614.46 513.134 614.46C515.047 614.46 517.844 614.976 519.315 615.564C520.86 616.227 522.183 616.667 522.259 616.668C522.406 616.668 522.48 613.724 522.48 610.045C522.48 604.378 522.333 603.347 521.155 603.126C520.493 602.906 518.58 602.611 516.961 602.464ZM408.712 614.24C411.508 613.283 414.157 612.989 419.088 613.209C424.975 613.43 426.226 613.724 430.42 615.932C432.996 617.331 435.939 619.465 436.97 620.716C437.926 621.894 439.545 624.47 440.502 626.383C441.459 628.37 442.783 631.976 443.372 634.479C443.961 637.054 444.476 641.838 444.476 645.15C444.476 648.535 444.108 653.025 443.666 655.085C443.151 657.22 442.121 660.605 441.238 662.666C440.355 664.653 438.294 667.818 436.602 669.657C434.688 671.792 431.966 673.705 428.949 675.104C424.607 677.017 423.724 677.164 416.88 676.944C410.478 676.649 408.932 676.355 405.179 674.441C402.825 673.19 399.734 670.982 398.409 669.437C397.011 667.965 395.098 665.021 394.067 663.034C393.037 660.973 391.713 657.293 391.05 654.717C390.167 651.332 389.947 648.315 390.241 643.163C390.462 639.189 391.271 634.405 392.081 632.123C392.817 629.916 394.362 626.751 395.392 625.132C396.422 623.513 397.747 621.673 398.262 621.084C398.777 620.422 400.543 618.949 402.089 617.771C403.708 616.521 406.725 614.976 408.712 614.24ZM568.841 613.062C570.239 612.989 573.109 613.43 575.096 614.019C577.156 614.681 580.1 616.227 581.719 617.625C583.558 619.171 585.472 621.82 586.796 624.837C587.974 627.413 589.078 631.314 589.812 637.275H544.556L544.998 635.288C545.292 634.111 546.101 631.608 546.91 629.548C547.646 627.561 549.34 624.396 550.664 622.556C552.062 620.716 554.564 618.287 556.331 617.036C558.097 615.859 561.04 614.46 562.88 613.945C564.793 613.504 567.442 613.063 568.841 613.062ZM101.552 474.626C99.6389 474.626 96.6955 475.362 94.5615 476.392C92.5011 477.276 89.484 479.631 87.7178 481.471C85.4366 484.046 84.4067 486.034 83.6709 489.051C83.1557 491.332 82.8607 494.718 83.0078 496.558C83.1549 498.47 83.6705 501.046 84.1855 502.225C84.7006 503.402 86.2464 505.757 87.6445 507.303C89.0427 508.922 91.8383 510.983 93.8252 511.939C96.4744 513.117 98.8297 513.632 102.288 513.632C105.305 513.632 108.175 513.117 110.015 512.307C111.634 511.571 114.283 509.658 115.829 508.039C117.448 506.493 119.361 503.844 120.097 502.225C120.906 500.385 121.421 497.441 121.421 494.497C121.421 490.67 121.053 488.904 119.434 485.739C118.257 483.531 116.049 480.587 114.43 479.263C112.811 477.938 110.015 476.319 108.175 475.73C106.336 475.068 103.392 474.626 101.552 474.626ZM173.669 510.689H203.104C202.736 346.126 202.442 297.626 202.147 296.669C201.854 295.712 201.927 295.05 202.369 295.05C202.81 295.051 204.357 297.627 205.901 300.79C207.374 303.883 238.281 352.456 274.486 408.61L340.348 510.762L376.038 510.689V259.723L346.529 259.355C347.044 416.775 347.486 464.541 347.854 467.046C348.147 469.621 348.295 471.68 348.075 471.682C347.854 471.756 343.954 465.868 339.465 458.656C334.902 451.443 304.435 403.679 271.688 352.455L212.229 259.355L173.669 258.987V510.689ZM598.35 259.282C597.982 259.064 597.687 264.362 597.614 271.793L597.54 284.746C652.29 284.746 668.7 284.894 669.289 285.114C670.246 285.41 670.394 298.658 670.394 398.086V510.689L699.461 510.321C699.755 332.658 700.123 285.63 700.491 285.335C700.862 285.041 717.271 284.746 736.917 284.746H772.681V259.723C638.088 259.723 598.718 259.503 598.35 259.282ZM441.532 510.688H575.464V482.722C495.326 482.722 471.998 482.648 471.924 482.501C471.851 482.426 471.777 477.568 471.704 471.682C471.704 465.794 471.63 446.365 471.704 428.407V395.878H562.218V369.383H471.704L472.071 285.114L568.841 284.746V259.723H441.532V510.688Z" fill="#E7E7E7"/>
</svg>
