<svg width="1513" height="629" viewBox="0 0 1513 629" fill="currentColor" xmlns="http://www.w3.org/2000/svg">
<path d="M305.387 3.18338C316.568 0.28869 329.413 -0.501586 344.638 0.287876C359.862 0.814196 373.422 3.44611 386.268 7.91971C396.735 11.6039 411.721 18.9726 419.572 23.9724C427.422 29.2355 438.602 37.9194 444.311 43.1824C450.258 48.4455 459.774 59.4977 465.245 67.3924C470.955 75.287 479.28 90.2871 483.8 100.287C488.082 110.287 493.554 126.339 495.695 135.812C498.549 147.391 499.738 162.392 499.262 212.128L510.443 218.443C516.865 221.864 527.094 230.022 533.755 236.338C540.178 242.917 548.98 253.969 553.262 261.074C557.306 268.179 563.015 281.336 565.632 290.547C568.962 301.599 570.627 313.705 570.627 328.441C570.627 342.915 569.2 356.073 566.108 367.388C563.491 376.862 558.02 390.019 553.976 396.861C550.17 403.966 541.843 414.756 535.658 421.335C529.236 427.914 519.006 436.335 500.451 447.124V476.334C500.451 502.912 499.738 506.859 494.029 520.806C490.222 528.964 482.61 541.069 476.663 547.648C470.716 554.227 460.25 562.648 453.589 566.596C442.171 573.174 438.602 573.964 416.003 573.964C393.642 573.964 389.598 573.174 363.668 559.49L347.492 577.385C338.453 587.121 324.418 599.49 315.854 605.016C307.528 610.543 292.066 617.911 281.599 621.858C265.423 627.648 258.286 628.963 234.022 628.963C210.233 629.226 202.383 628.174 187.634 622.911C177.881 619.49 165.035 614.226 159.088 610.805C153.141 607.385 141.961 599.49 134.111 593.175C126.26 586.596 114.366 573.7 107.467 564.49C100.806 555.28 91.5294 538.701 86.7718 527.912C82.0141 517.123 76.5426 499.229 74.4016 488.439C71.7849 475.282 70.8337 460.545 72.261 417.914L60.3665 411.861C53.9437 408.44 42.7633 399.493 35.3889 392.125C27.3009 383.967 18.9749 371.861 13.7415 360.546C8.98382 350.546 3.75041 335.809 2.08523 327.915C0.182167 318.704 -0.532319 304.757 0.419215 289.758C1.60863 268.968 2.79836 263.442 11.1243 245.021C18.4987 228.706 24.2079 220.285 36.8157 207.39C45.8553 198.443 57.7496 188.969 63.221 186.338C72.2603 182.39 72.9744 181.075 71.5471 175.286C70.5956 171.602 69.8815 158.707 70.1194 146.339C70.1194 127.918 71.3088 121.339 76.5423 109.497C79.8727 101.602 87.723 89.2343 94.1458 82.3924C100.331 75.2873 111.511 66.3403 118.648 62.656C130.066 56.3403 134.586 55.5506 155.758 55.5506C177.643 55.5506 180.736 56.3399 207.379 71.3396L220.7 55.8142C228.075 47.3933 240.445 35.5509 248.295 29.7615C256.145 23.9721 268.515 16.3402 275.652 13.1824C282.788 10.0246 296.348 5.55174 305.387 3.18338ZM218.322 298.969C217.608 298.969 190.965 325.021 158.851 357.126C126.975 388.967 99.8558 417.124 98.6663 419.493C97.4769 421.861 96.5247 435.809 96.5247 450.282C96.7626 469.755 98.1903 481.071 101.996 493.702C104.851 503.175 111.036 518.438 116.032 527.912C121.027 537.385 131.494 551.596 139.344 559.491C146.956 567.386 160.754 578.174 169.793 583.437C179.071 588.7 192.392 594.49 199.529 596.596C206.665 598.438 222.841 599.754 235.211 599.754C249.246 599.754 263.282 597.912 272.083 595.28C279.933 592.649 292.779 586.596 300.629 581.859C308.479 577.122 320.136 567.911 326.559 561.596C332.982 555.543 340.119 547.385 342.497 543.701C345.114 539.752 350.109 518.7 355.105 489.755C359.862 463.702 364.62 436.334 365.81 429.229C367.951 416.335 367.713 415.282 354.629 387.914L341.07 360.02C247.107 312.653 219.036 298.969 218.322 298.969ZM396.259 433.177C393.642 433.177 391.977 436.335 390.787 442.914V443.177C390.074 448.44 386.267 470.018 382.461 491.07C378.655 512.122 375.563 530.805 375.563 532.386C375.563 534.228 380.083 538.439 385.554 541.596C393.166 545.807 400.065 547.122 412.435 547.122C425.518 547.122 431.465 545.806 440.981 540.28C447.403 536.596 455.729 530.281 459.06 526.07C462.628 522.123 467.624 513.965 470.241 508.176C472.619 502.386 475.474 492.386 476.188 485.807C476.901 479.229 476.902 469.229 475.95 463.703L474.284 453.439C416.956 437.65 398.639 433.177 396.259 433.177ZM505.209 243.179C497.36 237.654 489.986 232.917 488.558 233.179C487.131 233.179 460.012 258.706 427.898 289.758C395.783 320.81 368.664 347.652 367.475 349.494C366.286 351.6 369.378 361.599 376.514 377.387C382.461 390.545 389.36 402.651 391.501 403.967C393.881 405.283 415.528 411.335 439.791 417.387L483.8 428.703C500.452 420.019 509.491 413.703 514.725 408.703C519.958 403.966 527.571 393.966 531.853 386.861C535.897 379.756 541.13 368.178 543.271 360.809C545.412 353.441 547.315 339.493 547.315 329.23C547.315 317.125 545.412 305.283 542.081 295.02C539.464 286.336 533.042 273.442 528.284 266.337C523.527 259.232 513.059 248.969 505.209 243.179ZM87.0091 204.233C86.7642 204.237 81.0585 207.13 74.6399 210.549C67.9792 214.233 57.7493 222.917 51.3264 230.285C45.1415 237.653 37.2921 250.548 33.7239 258.706C27.7768 272.127 27.0628 277.126 27.0628 300.284C27.0628 324.757 27.5386 327.916 34.6751 343.705C38.7192 353.178 46.5696 365.546 51.803 371.336C57.0364 377.125 66.0757 384.756 72.0227 388.44L82.7278 395.019C92.9569 384.493 118.411 359.23 146.005 331.862C173.6 304.757 197.15 281.337 198.339 280.284C199.766 278.705 196.912 269.231 190.251 253.706C184.542 240.285 179.784 228.969 179.546 228.706C179.457 228.681 158.559 222.903 133.397 216.338C108.419 209.759 87.4848 204.233 87.0091 204.233ZM366.048 33.1824C358.912 31.6035 344.4 30.5511 333.933 30.8142C323.466 30.8143 308.479 32.6563 300.629 34.7615C292.779 36.8668 279.933 42.6566 272.083 47.3933C264.233 52.3933 253.053 60.8139 247.106 66.0769C241.159 71.6032 233.784 79.7615 230.453 84.2351C225.458 91.0772 222.603 102.13 214.278 148.97C208.807 180.021 204.287 207.915 204.286 210.811C204.286 213.706 209.044 227.917 214.991 242.39L225.934 268.706L349.396 330.547C436.937 246.337 464.532 219.759 467.149 216.864C470.241 213.706 472.382 206.601 473.572 196.865C474.523 188.707 474.047 172.391 472.858 160.812C471.43 149.234 467.625 132.655 464.294 123.97C460.964 115.286 454.302 101.602 449.307 93.7078C444.549 85.8132 435.272 73.9712 428.849 67.9187C422.426 61.6031 408.629 51.8663 398.162 46.0769C387.696 40.5508 373.185 34.4983 366.048 33.1824ZM163.846 79.4978C156.71 78.7084 147.67 79.2343 143.626 80.2869C139.582 81.6027 133.635 83.9716 129.828 85.5506C126.26 87.1297 118.648 93.4455 112.463 99.4978C106.516 105.814 99.3797 116.076 96.763 122.655C93.1947 131.076 91.5296 140.023 91.5296 153.444C91.2917 167.128 92.2429 173.444 94.8596 176.339C96.7629 178.181 112.225 183.707 129.353 188.18C146.48 192.391 164.798 197.391 170.507 198.97L180.498 201.601C182.877 186.338 186.921 162.391 191.202 138.444C195.484 114.497 198.339 93.9713 197.625 92.3924C196.673 91.0765 191.678 87.9183 186.445 85.2869C181.211 82.9186 170.982 80.2873 163.846 79.4978Z" fill="#4d64b5"/>
<path d="M1331.18 434.856L1330.35 244.823L1356.06 246.203V434.856H1331.18Z" fill="#4d64b5"/>
<path d="M1431.76 248.044C1435.7 246.203 1444.21 243.903 1450.43 242.982C1456.65 241.832 1462.87 240.912 1463.91 240.682C1464.95 240.682 1473.86 241.602 1483.61 242.752C1493.36 244.133 1503.73 245.743 1506.84 246.203C1512.23 247.354 1512.65 248.274 1512.65 269.21L1482.99 268.519C1455.61 267.829 1452.92 268.059 1444.21 273.121C1437.16 277.032 1433.63 281.173 1429.69 289.915C1424.71 300.728 1424.5 303.489 1424.5 340.529C1424.5 376.419 1424.92 380.56 1429.07 390.683C1432.59 398.736 1436.12 402.877 1442.55 406.788C1450.84 411.389 1453.75 411.849 1512.65 410.699V433.705L1502.9 435.546C1497.3 436.466 1481.33 437.156 1467.02 437.156C1444.41 437.156 1439.85 436.466 1430.73 431.865C1425.13 428.874 1418.07 424.273 1415.59 421.512C1412.89 418.751 1408.74 412.309 1406.46 407.248C1404.18 402.186 1400.86 391.373 1399.41 383.091C1397.75 374.809 1396.51 355.253 1396.51 339.379C1396.51 321.894 1397.75 304.87 1399.62 296.357C1401.28 288.305 1404.39 277.952 1406.67 273.351C1408.74 268.519 1413.72 261.618 1417.45 257.936C1421.39 254.486 1427.82 249.884 1431.76 248.044Z" fill="#4d64b5"/>
<path d="M1067.37 250.574C1072.76 247.584 1082.1 244.133 1088.11 242.982C1093.92 241.832 1104.91 241.372 1112.38 241.832C1119.84 242.292 1135.19 243.212 1166.92 245.513L1166.3 270.36L1129.59 268.749C1103.87 267.829 1090.19 268.059 1085 269.9C1080.65 271.51 1075.25 275.421 1072.97 279.102C1070.07 283.243 1068.62 288.765 1068.62 295.667C1068.62 303.489 1069.86 307.17 1073.39 310.851C1076.08 313.612 1081.48 316.833 1085.42 318.213C1089.36 319.594 1103.46 323.275 1116.52 326.265C1131.46 329.716 1144.52 334.318 1151.37 338.459C1159.46 343.29 1163.4 347.661 1166.3 354.333C1169.2 361.005 1170.45 368.367 1170.45 380.791C1170.45 392.754 1169.2 400.806 1166.51 407.248C1164.43 412.309 1160.49 418.751 1157.8 421.512C1155.1 424.273 1148.26 428.874 1142.45 431.865C1133.32 436.466 1128.97 437.156 1104.08 437.156C1088.73 437.156 1068.82 436.466 1043.94 433.705L1044.97 409.548L1062.6 410.699C1072.35 411.389 1090.6 411.849 1103.04 411.849C1120.67 411.849 1127.31 410.929 1132.7 407.708C1136.23 405.637 1140.79 400.576 1142.45 396.895C1144.11 393.214 1145.56 386.772 1145.56 383.091C1145.56 379.41 1144.52 373.659 1143.49 370.438C1142.45 367.217 1138.3 362.615 1134.78 360.315C1131.04 357.784 1122.75 354.563 1116.52 353.183C1110.3 352.033 1097.65 349.272 1088.53 347.201C1079.4 345.131 1067.58 340.989 1062.19 337.999C1056.59 334.778 1050.37 329.256 1048.08 325.115C1045.8 320.974 1043.52 312.462 1042.69 306.02C1041.86 299.118 1042.49 289.455 1044.14 281.863C1045.6 274.961 1049.33 266.219 1052.23 262.538C1055.14 258.857 1061.77 253.565 1067.37 250.574Z" fill="#4d64b5"/>
<path fill-rule="evenodd" clip-rule="evenodd" d="M884.659 239.992L926.552 240.682C968.446 241.602 968.653 241.602 980.682 248.504C990.637 254.256 993.748 257.477 998.103 266.909C1003.5 277.952 1003.5 279.333 1004.53 338.919C1005.36 389.303 1006.19 399.656 1008.68 401.496C1010.34 402.877 1014.07 404.487 1016.98 405.178C1019.88 405.868 1022.99 406.788 1024.23 407.248C1025.48 407.478 1026.1 412.77 1025.69 418.981C1025.27 428.184 1024.23 430.485 1020.5 431.865C1018.01 432.785 1010.75 433.015 1004.53 432.095C998.31 431.405 990.844 429.564 987.941 427.954C983.585 425.653 980.267 426.113 967.201 430.945C956.832 434.626 944.803 436.926 930.907 437.847C911.62 438.997 909.338 438.767 898.347 433.015C888.599 427.954 885.281 424.733 880.718 415.76C876.363 407.478 874.911 401.036 874.289 387.693C873.874 378.03 874.496 365.837 875.948 360.085C877.4 353.873 881.548 346.511 886.11 341.45C891.088 335.698 897.517 331.787 904.983 329.256C911.205 327.416 930.493 324.195 947.499 322.124C964.713 320.284 979.023 318.674 979.645 318.674C980.267 318.674 980.06 311.081 979.437 302.109C978.815 292.906 976.741 282.784 975.082 279.563C973.216 276.342 969.068 272.201 965.749 270.36C961.394 267.829 950.402 266.909 884.244 265.759L884.659 239.992ZM911.827 351.113C909.131 352.953 905.605 357.554 903.739 361.235C901.458 365.607 900.213 373.199 900.213 380.791C900.213 387.923 901.665 396.895 903.531 401.036C905.605 405.638 909.961 410.009 914.731 412.309C921.575 415.53 924.893 415.76 940.24 413.46C949.78 412.079 962.639 409.319 968.653 407.478L979.645 403.797V341.68C964.298 342.14 949.988 343.52 938.166 345.131C926.137 346.741 914.316 349.502 911.827 351.113Z" fill="#4d64b5"/>
<path fill-rule="evenodd" clip-rule="evenodd" d="M721.44 242.062C728.284 242.752 738.653 245.283 744.253 247.584C750.06 249.884 758.148 255.636 762.296 260.467C766.444 265.299 771.836 273.811 774.118 279.563C776.399 285.314 779.51 298.658 780.754 309.471C782.206 320.284 782.621 333.858 780.547 350.882H667.517L669.177 366.297C670.006 375.039 672.702 386.542 675.398 392.064C677.887 397.585 683.072 404.257 687.22 407.018C694.064 411.619 697.382 411.849 776.399 411.849V432.555L755.66 435.546C744.253 436.926 725.795 438.307 714.596 438.307C702.774 438.307 690.123 436.926 684.109 434.856C678.302 433.015 670.006 428.184 665.651 424.043C661.296 419.902 655.696 412.309 653.415 407.248C651.133 402.187 648.022 392.984 646.363 386.542C644.912 380.331 643.045 366.297 642.423 355.484C641.593 343.981 642.008 327.876 643.46 316.373C644.912 305.56 648.437 291.066 651.133 284.164C654.037 277.262 658.6 268.52 661.088 264.609C663.784 260.928 670.421 254.946 676.021 251.495C681.62 248.044 691.368 244.363 697.589 242.983C703.811 241.832 714.596 241.372 721.44 242.062ZM682.035 278.412C677.472 283.474 673.532 290.836 671.665 298.658C670.006 305.1 668.554 314.993 668.554 320.514V330.177H755.66C755.66 311.542 754.623 301.879 753.378 296.817C752.134 291.756 749.023 284.624 746.534 280.943C744.253 277.032 738.446 272.201 733.883 269.9C728.906 267.599 721.025 265.989 714.181 265.989C707.959 265.989 699.663 267.139 695.93 268.29C692.405 269.44 685.975 274.041 682.035 278.412Z" fill="#4d64b5"/>
<path d="M1213.58 217.906C1213.38 202.951 1214 189.838 1215.04 189.148C1216.07 188.227 1222.3 187.537 1240.96 187.537V245.053H1294.88V270.36H1240.96V329.716C1240.96 362.155 1242 392.754 1243.03 397.585C1244.28 402.877 1247.18 407.478 1250.71 410.009C1255.48 413 1260.25 413.69 1275.6 412.77C1293.22 411.849 1294.68 412.079 1295.71 416.451C1296.33 418.981 1296.96 424.273 1296.96 427.954C1296.96 434.395 1296.33 434.856 1287.21 436.696C1281.61 437.616 1270.2 438.307 1261.7 438.307C1251.12 438.307 1243.45 436.926 1237.85 433.935C1233.29 431.635 1227.69 427.494 1225.41 424.503C1223.12 421.512 1220.01 413.92 1218.56 407.478C1216.7 400.116 1215.24 372.738 1212.96 270.36H1191.19V245.053H1214L1213.58 217.906Z" fill="#4d64b5"/>
<path d="M1331.18 202.491L1330.76 185.697L1330.14 168.902L1356.06 170.282L1356.69 185.927C1357.1 200.191 1356.69 201.341 1352.54 202.721C1349.84 203.412 1344.04 203.642 1331.18 202.491Z" fill="#4d64b5"/>
<path d="M818.915 434.856L818.085 162L843.802 163.38V434.856H818.915Z" fill="#4d64b5"/>
</svg>
