<svg width="724" height="784" viewBox="0 0 724 784" fill="currentColor" xmlns="http://www.w3.org/2000/svg">
<g clip-path="url(#clip0_117_316)">
<path fill-rule="evenodd" clip-rule="evenodd" d="M1.60449 -22H724V-14.6801C724 -10.8275 709.961 148.477 692.914 339.179C675.867 529.882 661.026 686.489 660.224 687.067C659.422 687.645 592.437 704.789 364.006 761.807L67.1857 687.645L65.5812 681.096C64.779 677.436 50.5397 521.792 34.0942 335.327C17.6488 148.862 3.40948 -7.74545 2.80782 -12.7538L1.60449 -22ZM151.418 255.386C157.435 322.613 162.449 379.054 162.449 380.98C162.449 384.255 171.273 384.255 318.48 384.255C404.116 384.255 474.711 384.64 475.313 385.025C475.915 385.603 473.308 411.415 469.497 442.429C465.686 473.634 462.678 499.254 462.478 499.447C462.478 499.832 439.213 504.648 411.136 510.427L359.995 520.636C289.6 505.418 268.742 500.41 268.141 500.025C267.339 499.447 264.731 482.303 262.325 461.884L257.712 424.707L166.46 424.899C167.864 434.531 170.672 466.314 173.68 501.951L179.095 566.482C319.282 601.54 361.799 611.749 364.006 611.749C366.212 611.557 408.127 601.54 457.263 589.404C506.399 577.076 546.911 566.482 547.513 566.096C548.114 565.518 553.73 507.344 559.947 436.65C566.365 365.955 571.378 305.855 571.579 302.965V297.764H240.665C239.261 286.399 237.857 270.218 236.654 254.423C235.651 238.434 234.247 222.254 233.645 218.208L232.643 211.081H579.601C581.005 199.716 582.409 184.884 583.612 170.629C584.816 156.182 586.219 140.771 586.621 136.341L587.623 128.251C186.515 128.251 140.388 128.636 140.388 130.562C140.388 131.911 145.402 187.966 151.418 255.386Z" fill="#4d64b5"/>
</g>
<defs>
<clipPath id="clip0_117_316">
<rect width="724" height="784" fill="white"/>
</clipPath>
</defs>
</svg>
