<svg width="1943" height="606" viewBox="0 0 1943 606" fill="none" xmlns="http://www.w3.org/2000/svg">
<path d="M1344.61 408.264C1345.69 385.984 1346.05 385.188 1360.02 376.435C1367.91 371.661 1375.08 367.285 1376.15 367.285C1377.23 367.285 1384.39 371.263 1392.28 376.435C1404.46 383.995 1406.97 387.973 1408.4 401.103C1409.48 409.856 1409.48 420.2 1408.4 424.178C1407.33 428.555 1399.8 436.114 1376.15 450.835L1343.9 430.942L1344.61 408.264Z" fill="#E7E7E7"/>
<path d="M1776.09 337.843C1781.83 333.864 1793.65 329.09 1802.25 327.896C1811.21 326.305 1827.34 326.703 1838.09 328.294C1850.63 330.284 1862.46 335.058 1869.99 341.424C1876.08 346.994 1882.53 355.349 1883.61 360.521C1884.68 365.295 1885.04 373.65 1884.32 379.22C1883.61 386.78 1880.74 389.565 1873.57 390.36C1867.84 390.758 1861.74 388.769 1859.95 386.382C1857.8 383.597 1853.14 376.833 1849.56 371.263C1843.47 362.51 1839.88 361.317 1820.89 361.317C1806.56 361.317 1797.24 363.306 1793.65 367.284C1788.99 372.059 1788.64 374.048 1792.58 378.027C1795.09 380.812 1810.86 385.984 1827.7 389.167C1844.54 392.747 1862.82 397.522 1868.55 400.307C1874.29 403.092 1882.17 409.458 1885.76 415.028C1889.7 420.598 1892.56 431.34 1892.21 440.093C1892.21 451.233 1889.34 458.394 1880.74 469.136C1874.29 476.696 1863.18 485.051 1856.37 487.04C1849.56 489.029 1833.43 490.621 1820.53 490.621C1805.12 490.621 1792.22 487.836 1782.19 482.664C1773.58 478.287 1764.27 470.728 1761.4 465.954C1758.17 460.781 1755.67 450.437 1754.95 442.878C1754.23 429.351 1754.59 428.953 1767.85 428.157C1778.6 426.963 1781.83 428.555 1784.34 436.114C1785.77 440.888 1790.07 447.652 1793.65 450.835C1798.31 455.211 1806.91 456.405 1824.83 456.007C1838.09 455.211 1850.99 454.018 1852.79 452.824C1854.58 451.631 1856.37 446.458 1856.37 440.888C1856.37 432.931 1854.22 430.544 1846.69 429.351C1840.96 428.157 1828.77 426.168 1818.74 424.974C1809.06 423.383 1794.37 420.2 1786.84 417.813C1779.32 415.028 1769.28 408.264 1764.63 402.296C1759.61 395.93 1756.02 385.984 1756.02 379.22C1756.02 372.457 1758.17 362.51 1761.04 356.542C1763.55 350.177 1770.36 341.821 1776.09 337.843Z" fill="#E7E7E7"/>
<path d="M1228.14 312.778C1231.73 307.606 1265.77 284.132 1304.12 259.862C1356.08 227.238 1375.79 216.894 1381.17 218.883C1385.47 220.076 1417.72 239.969 1453.2 262.647C1488.68 285.325 1520.57 308.003 1524.16 312.778C1528.82 319.143 1530.61 328.294 1530.25 344.209C1530.25 362.51 1528.46 369.274 1522.37 376.435C1517.71 381.21 1495.85 396.726 1473.99 410.253C1451.77 423.78 1432.06 434.125 1429.91 432.931C1428.11 431.738 1426.32 419.404 1426.32 379.22L1404.1 363.306C1391.56 354.553 1379.38 347.391 1377.22 347.391C1374.72 347.391 1362.17 353.757 1325.98 375.242L1325.62 440.888L1387.62 480.276C1421.66 502.159 1453.92 522.847 1459.65 527.224C1465.03 531.202 1469.33 536.773 1469.33 539.16C1469.33 541.945 1449.97 556.268 1426.32 570.988C1402.67 586.107 1379.73 598.043 1375.43 598.043C1370.77 598.043 1338.16 579.741 1302.68 557.063C1267.2 534.783 1234.59 512.503 1230.29 507.729C1222.41 498.976 1222.05 496.589 1222.05 409.855C1221.69 330.681 1222.41 320.735 1228.14 312.778Z" fill="#E7E7E7"/>
<path d="M4.30047 310.789C6.80908 306.81 39.421 284.132 77.0501 260.26C114.679 235.991 148.366 216.496 152.308 216.098C156.25 216.098 191.371 235.991 230.792 260.658C283.473 294.078 302.825 308.004 305.333 315.563C307.125 321.133 308.2 375.64 308.2 436.91C307.842 498.18 306.05 551.493 304.258 555.472C302.466 559.053 299.241 562.236 297.449 562.236C295.657 562.236 276.664 551.096 255.52 537.568C234.017 524.439 213.948 510.514 210.365 506.933C204.989 501.363 203.914 493.406 204.272 440.889C204.272 383.597 204.272 380.812 196.388 372.855C191.729 368.478 182.412 360.919 175.602 356.145C168.793 351.37 159.117 347.392 154.1 347.392C149.083 347.392 136.182 353.36 105.72 373.65L103.928 438.501C102.136 497.385 101.419 503.75 94.9687 508.923C91.0266 512.105 70.9577 525.633 50.1721 538.364C29.3865 551.493 10.3928 562.236 8.24257 562.236C5.73396 562.236 2.86698 559.451 1.79186 556.268C0.716745 553.085 0 497.782 0 434.125C0 346.198 1.07512 315.961 4.30047 310.789Z" fill="#E7E7E7"/>
<path d="M444.382 283.734C447.249 281.347 473.768 264.239 503.513 245.938C532.9 227.238 559.778 212.12 562.645 212.12C565.512 212.12 599.557 232.41 638.261 257.078C677.324 281.347 710.652 305.219 713.161 309.595C716.386 315.165 717.462 344.209 717.103 411.049C716.745 493.804 715.67 505.342 710.294 511.31C707.069 514.89 688.075 528.02 668.365 540.751C648.654 553.085 623.568 568.601 612.817 575.365C602.066 582.129 587.014 591.677 579.488 596.849C569.095 604.011 564.078 605.204 556.552 602.817C550.818 600.828 522.507 583.72 492.762 564.623C463.375 545.128 431.48 524.041 404.961 504.546V409.06C404.602 314.767 404.961 313.574 412.845 304.821C417.504 300.046 425.03 294.476 430.047 292.089C435.064 289.702 441.515 285.723 444.382 283.734Z" fill="#E7E7E7"/>
<path d="M1700.48 255.486C1732.01 235.593 1762.83 216.496 1768.57 213.711C1774.66 210.528 1783.98 209.334 1790.07 210.926C1795.8 212.119 1806.56 217.292 1813.36 222.066C1820.17 226.84 1834.87 235.991 1845.62 242.755C1856.37 249.518 1878.95 263.443 1895.79 273.39C1912.63 283.734 1929.84 296.466 1934.14 302.036C1942.38 311.186 1942.38 313.574 1942.38 405.081C1942.38 459.588 1940.95 501.761 1938.79 506.535C1937 510.912 1916.93 526.03 1894.72 539.955C1872.85 553.881 1840.6 574.569 1823.04 585.709C1805.84 596.849 1788.64 606 1784.69 606C1780.75 606 1766.78 599.236 1753.16 590.484C1739.9 582.129 1727 572.58 1724.49 569.795C1720.9 565.021 1721.62 563.031 1729.15 557.063C1734.16 553.483 1741.69 550.3 1745.99 550.3C1750.65 550.3 1761.04 555.074 1784.69 570.193L1839.17 535.579C1869.27 516.88 1898.3 498.18 1913.71 486.642V325.509L1895.07 312.778C1884.68 306.014 1855.65 287.713 1784.69 243.948L1757.1 261.454C1741.69 271.003 1720.9 283.336 1711.23 289.702C1701.55 295.67 1684.71 306.014 1655.68 325.509V488.632L1677.9 502.159C1696.89 513.299 1701.91 514.89 1708.36 510.912C1716.6 506.535 1716.6 505.74 1716.6 420.996C1716.6 343.413 1717.32 335.058 1722.7 331.875C1726.28 329.886 1730.94 328.294 1732.73 328.294C1734.52 328.294 1739.18 329.886 1742.41 331.875C1748.14 335.058 1748.86 343.413 1748.86 417.813C1748.86 463.566 1747.42 506.933 1745.27 514.492C1743.48 522.052 1737.75 532.794 1732.73 538.364C1724.85 546.321 1719.83 548.311 1704.78 547.913C1689.73 547.515 1681.13 544.332 1660.34 531.203C1646 522.052 1631.67 510.514 1628.8 505.342C1624.14 498.18 1623.43 481.072 1625.22 311.584L1634.18 302.036C1639.2 296.466 1668.94 275.777 1700.48 255.486Z" fill="#E7E7E7"/>
<path fill-rule="evenodd" clip-rule="evenodd" d="M1060.78 16.3726C1077.63 26.3191 1097.69 39.0506 1119.91 55.3628L1120.63 279.755C1121.35 403.49 1120.27 506.535 1118.84 508.922C1117.4 511.31 1085.15 533.192 1047.52 557.859C1009.53 582.128 974.773 602.021 970.114 602.021C965.813 602.021 932.485 582.924 895.931 559.848C859.377 536.772 826.765 514.89 823.181 510.912C817.447 505.342 816.73 495.793 817.089 315.563L827.123 308.003C832.499 304.025 865.469 282.54 900.231 260.26C935.352 238.378 966.889 220.077 970.472 220.077C973.698 220.077 985.166 226.044 995.917 233.206C1012.04 243.948 1015.27 245.142 1018.14 239.969C1019.93 236.787 1021 181.882 1020.64 117.827C1019.93 19.9533 1020.64 1.65178 1024.94 0.0603417C1027.81 -0.735377 1043.94 6.42609 1060.78 16.3726ZM923.525 378.822C918.508 383.597 917.075 391.156 917.433 411.049C917.433 425.372 918.867 438.899 920.3 441.286C921.734 443.276 932.843 452.028 945.028 459.986C957.571 467.943 968.68 474.309 970.472 473.911C971.906 473.115 983.015 466.351 995.558 458.792L1018.14 444.867L1017.78 379.22C996.992 364.897 985.882 357.736 979.79 354.155C968.68 348.187 967.605 348.187 949.328 360.123C938.577 366.887 927.109 375.242 923.525 378.822Z" fill="#E7E7E7"/>
</svg>
