<svg width="1396" height="500" viewBox="0 0 1396 500" fill="none" xmlns="http://www.w3.org/2000/svg">
<path d="M1396 428.266H698V500H387.39V428.266H0V0H1396V428.266ZM465.333 428.266H620.056L620.638 357.066L775.944 356.532V71.7342H465.333V428.266ZM77.9439 71.7342V356.532H232.667V142.399L310.028 142.934L310.61 356.532H387.39V71.7342H77.9439ZM852.723 356.532H1008.61V142.399H1085.39V356.532H1163.33V142.399L1240.7 142.934L1241.28 356.532H1318.06V71.7342H852.723V356.532ZM698 285.867L620.639 285.332L620.289 215.204C620.173 176.66 620.29 144.432 620.639 143.79V143.683C620.991 142.72 629.959 142.399 698 142.399V285.867Z" fill="#E7E7E7"/>
</svg>
