<svg width="603" height="727" viewBox="0 0 603 727" fill="currentColor" xmlns="http://www.w3.org/2000/svg">
<path d="M553.059 556.035C554.91 555.723 557.568 555.342 558.948 555.169C560.328 554.996 563.827 554.926 566.687 554.996C569.548 555.065 573.283 555.377 574.931 555.688C576.58 556 579.171 556.658 580.652 557.143C582.132 557.629 584.555 558.633 586.036 559.395C587.516 560.157 589.636 561.439 590.747 562.271C591.857 563.067 593.674 564.73 594.818 565.943C595.962 567.155 597.409 569.026 598.048 570.065C598.721 571.105 599.563 572.733 599.933 573.703C600.337 574.638 600.909 576.371 601.245 577.514C601.784 579.454 601.851 582.884 602.019 668.799H583.849V629.132C583.849 596.429 583.781 589.015 583.377 586.971C583.108 585.586 582.503 583.334 581.998 582.017C581.493 580.701 580.585 578.796 579.979 577.86C579.339 576.89 578.094 575.366 577.22 574.431C576.345 573.53 574.999 572.317 574.258 571.798C573.518 571.278 572.004 570.377 570.894 569.788C569.783 569.199 567.495 568.368 565.846 567.918C563.356 567.294 561.943 567.155 557.939 567.19C554.372 567.19 552.218 567.398 549.863 567.918C548.113 568.299 545.387 569.095 543.806 569.684C542.224 570.273 539.431 571.624 537.581 572.664C535.73 573.738 533.879 574.95 532.668 576.128L532.702 668.626L514.867 668.799V573.357L517.29 571.624C518.636 570.689 521.261 568.922 523.112 567.71C524.962 566.497 528.058 564.696 530.01 563.656C531.961 562.652 535.124 561.162 537.076 560.4C539.028 559.603 542.662 558.425 545.152 557.802C547.642 557.143 551.209 556.347 553.059 556.035Z" fill="#4d64b5"/>
<path fill-rule="evenodd" clip-rule="evenodd" d="M448.343 554.857C450.126 554.857 453.087 554.996 454.871 555.203C456.688 555.377 459.38 555.827 460.86 556.208C462.341 556.555 464.528 557.178 465.74 557.629C466.951 558.044 469.138 559.014 470.619 559.742C472.099 560.504 474.589 561.994 476.171 563.068C477.82 564.211 480.579 566.636 482.732 568.853C485.256 571.417 487.275 573.911 488.924 576.475C490.27 578.588 492.053 581.706 492.861 583.403C493.668 585.135 494.846 588.149 495.486 590.159C496.125 592.168 496.966 595.355 497.336 597.261C497.706 599.166 498.177 602.596 498.413 604.882C498.649 607.376 498.716 611.222 498.581 614.409C498.447 617.354 498.077 621.719 497.706 624.109C497.336 626.5 496.663 629.929 496.192 631.731C495.721 633.532 494.947 636.13 494.442 637.447C493.971 638.798 492.827 641.431 491.885 643.336C490.977 645.242 489.698 647.667 489.025 648.706C488.386 649.745 486.905 651.859 485.761 653.383C484.617 654.907 482.463 657.332 481.016 658.753C479.536 660.208 477.214 662.182 475.834 663.152C474.455 664.088 472.099 665.508 470.619 666.27C469.138 667.032 466.715 668.072 465.235 668.591C463.754 669.111 461.029 669.838 459.178 670.254C456.351 670.878 454.669 671.016 448.915 671.016C443.161 671.016 441.478 670.878 438.652 670.254C436.801 669.838 433.907 669.042 432.259 668.418C430.61 667.829 428.456 666.928 427.548 666.478C426.605 665.993 424.587 664.746 423.005 663.707C421.222 662.494 418.732 660.346 416.41 657.921C413.886 655.323 411.901 652.863 410.252 650.265C408.94 648.186 407.156 645.068 406.349 643.336C405.541 641.639 404.33 638.59 403.657 636.581C402.984 634.571 402.142 631.696 401.806 630.172C401.469 628.647 400.931 625.772 400.662 623.763C400.359 621.753 400.023 617.562 399.888 614.409C399.787 610.91 399.854 607.065 400.09 604.536C400.325 602.249 400.796 598.889 401.133 597.087C401.503 595.286 402.277 592.307 402.849 590.505C403.387 588.704 404.498 585.828 405.305 584.096C406.079 582.399 407.392 579.904 408.199 578.553C408.973 577.237 410.588 574.881 411.732 573.357C412.877 571.832 415.165 569.269 416.814 567.64C418.462 566.012 421.087 563.83 422.669 562.756C424.25 561.682 426.505 560.296 427.716 559.672C428.927 559.049 431.417 558.044 433.268 557.386C435.119 556.762 438.08 556 439.83 555.723C441.579 555.411 443.464 555.134 444.036 555.065C444.574 554.996 446.526 554.892 448.309 554.857H448.343ZM439.19 569.511C437.811 569.996 435.859 570.932 434.883 571.555C433.907 572.144 432.259 573.357 431.283 574.223C430.273 575.089 428.658 576.821 427.682 578.068C426.706 579.35 425.259 581.671 424.486 583.265C423.712 584.858 422.702 587.353 422.265 588.773C421.794 590.193 421.121 592.93 420.75 594.836C420.347 596.741 419.876 600.344 419.64 602.803C419.405 605.61 419.304 609.905 419.438 614.236C419.539 618.047 419.876 622.793 420.178 624.802C420.448 626.811 421.053 629.999 421.491 631.904C421.928 633.809 422.87 636.858 423.543 638.659C424.216 640.461 425.36 643.128 426.101 644.549C426.841 645.969 428.322 648.29 429.365 649.711C430.408 651.131 432.191 653.036 433.302 653.972C434.412 654.942 436.532 656.328 438.013 657.055C439.493 657.817 441.849 658.649 443.228 658.96C445.113 659.376 446.93 659.48 450.295 659.341C453.559 659.203 455.544 658.96 457.361 658.406C458.741 657.99 460.86 657.124 462.072 656.466C463.283 655.842 465.134 654.561 466.177 653.66C467.254 652.725 468.903 650.958 469.878 649.711C470.854 648.429 472.301 646.108 473.075 644.514C473.849 642.921 474.926 640.218 475.498 638.486C476.036 636.789 476.81 633.74 477.214 631.731C477.618 629.721 478.156 625.841 478.459 623.07C478.829 619.398 478.93 615.829 478.796 609.905C478.695 604.536 478.459 600.69 478.089 598.646C477.786 596.949 477.147 594.143 476.676 592.41C476.205 590.713 475.229 587.976 474.556 586.348C473.883 584.72 472.537 582.156 471.595 580.632C470.619 579.073 468.701 576.717 467.22 575.262C465.74 573.842 463.653 572.109 462.543 571.451C461.466 570.793 459.582 569.892 458.37 569.442C457.159 568.992 455.073 568.403 453.727 568.125C452.414 567.848 450.194 567.64 448.848 567.675C447.535 567.675 445.348 567.918 444.069 568.16C442.757 568.403 440.57 568.992 439.19 569.511Z" fill="#4d64b5"/>
<path d="M113.398 561.232L131.098 554.926L131.299 596.187C131.434 624.317 131.602 637.932 131.838 639.006C132.04 639.872 132.612 641.639 133.117 642.99C133.621 644.306 134.563 646.246 135.236 647.286C135.909 648.325 137.491 650.126 138.702 651.27C140.015 652.551 142.034 653.972 143.75 654.873C145.298 655.669 147.653 656.639 148.932 657.02C150.21 657.402 152.801 657.887 154.652 658.094C157.142 658.406 158.959 658.406 161.718 658.094C163.737 657.887 166.564 657.402 167.944 657.02C169.323 656.605 171.544 655.877 172.823 655.392C174.101 654.907 176.255 653.972 177.534 653.314C178.812 652.655 181.201 651.304 185.778 648.533V557.594H203.948L203.814 614.652C203.746 654.422 203.578 672.991 203.309 675.901C203.107 678.188 202.703 681.86 202.434 684.042C202.131 686.225 201.458 689.897 200.92 692.183C200.381 694.47 199.54 697.345 199.069 698.593C198.598 699.84 197.589 701.918 196.815 703.269C196.041 704.586 194.156 707.011 192.642 708.639C191.128 710.267 188.705 712.485 187.258 713.558C185.778 714.632 183.018 716.399 181.067 717.438C179.115 718.478 175.952 719.967 174 720.764C172.049 721.526 168.886 722.6 166.934 723.155C164.982 723.709 161.819 724.506 159.868 724.887C157.916 725.268 154.989 725.753 153.306 725.961C151.624 726.134 149.066 726.342 144.927 726.48L143.48 720.938C142.707 717.889 142.067 715.291 142.034 715.117C142.034 714.979 143.279 714.702 144.793 714.528C146.341 714.321 149.335 713.836 151.455 713.455C153.575 713.073 156.772 712.45 158.522 712.069C160.271 711.688 163.3 710.822 165.252 710.163C167.203 709.505 169.962 708.293 171.409 707.496C172.89 706.699 175.212 705.105 176.625 703.928C178.072 702.784 179.889 700.914 180.73 699.77C181.538 698.662 182.648 696.86 183.153 695.821C183.658 694.782 184.398 692.668 184.768 691.144C185.138 689.62 185.677 686.641 185.98 684.562C186.249 682.449 186.585 676.663 186.72 671.64C186.854 666.651 186.854 662.563 186.686 662.563C186.552 662.563 184.734 663.256 182.648 664.088C180.596 664.954 177.13 666.166 175.01 666.825C172.89 667.517 169.323 668.418 167.102 668.903C164.881 669.388 161.617 669.977 159.868 670.22C158.051 670.497 153.542 670.705 149.436 670.705C142.875 670.705 141.933 670.635 139.173 669.873C137.491 669.423 135.001 668.557 133.621 667.968C132.242 667.379 129.819 665.993 128.237 664.919C126.656 663.845 124.267 661.905 122.887 660.623C121.541 659.307 119.724 657.298 118.883 656.154C118.042 655.011 116.864 652.967 116.258 651.651C115.619 650.3 114.778 648.117 113.6 644.376L113.398 561.232Z" fill="#4d64b5"/>
<path fill-rule="evenodd" clip-rule="evenodd" d="M50.6758 555.065C53.0985 555.134 56.4971 555.446 58.2469 555.723C59.9966 556 62.5876 556.624 63.9673 557.109C65.3469 557.594 67.5677 558.529 68.8464 559.222C70.1251 559.88 72.1104 561.093 73.2208 561.924C74.3312 562.756 76.2156 564.419 77.3933 565.596C78.571 566.809 80.4554 569.061 81.5658 570.585C82.6426 572.109 84.2578 574.673 85.1327 576.301C86.0075 577.93 87.2862 580.562 87.9592 582.191C88.5985 583.819 89.5407 586.383 90.0118 587.907C90.4829 589.431 91.0886 591.614 91.3578 592.757C91.627 593.9 92.0644 596.152 92.3672 597.78C92.6364 599.408 93.0402 602.353 93.2758 604.362C93.4777 606.372 93.6796 611.118 93.6796 614.929C93.6796 619.536 93.4777 623.382 93.0739 626.361C92.771 628.855 92.0981 632.562 91.5597 634.675C91.0549 636.754 90.0118 640.114 89.2715 642.124C88.4976 644.133 87.0843 647.147 86.1421 648.879C85.1999 650.611 83.3492 653.452 82.0369 655.254C80.6909 657.055 78.5374 659.549 77.2587 660.762C75.98 662.009 73.6919 663.845 72.2113 664.85C70.7308 665.854 68.4426 667.136 67.1639 667.76C65.8853 668.349 63.9 669.111 62.7895 669.492C61.6791 669.838 59.4919 670.358 57.9104 670.67C56.3289 670.982 53.2331 671.294 51.0123 671.363C48.7914 671.467 45.763 671.363 44.2824 671.19C42.8019 671.016 40.4464 670.635 39.0668 670.323C37.6872 670.012 35.0962 669.284 33.3464 668.73C31.5967 668.141 28.2654 666.755 25.9436 665.612C23.6218 664.503 21.0308 663.118 20.1223 662.529C19.2474 661.974 18.4734 661.524 18.3725 661.524C18.2716 661.524 18.2043 676.247 18.2043 694.262C18.2043 712.277 18.1033 727 17.9351 727C17.8005 727 13.7626 725.545 0.201896 720.556L0 574.396L3.06208 571.347C4.7109 569.684 7.33554 567.502 8.88341 566.463C10.3976 565.458 13.0559 563.899 14.772 562.998C16.4545 562.132 19.0455 560.92 20.4924 560.331C21.9057 559.742 24.3621 558.876 25.9436 558.425C27.5251 557.94 30.5535 557.178 32.6734 556.728C34.7933 556.277 38.2256 555.758 40.2445 555.55C42.2635 555.342 44.4843 555.1 45.1237 555.03C45.763 554.961 48.2531 554.961 50.6758 555.065ZM33.5147 568.853C32.4042 569.165 30.217 569.892 28.6355 570.481C27.054 571.07 24.6986 572.04 23.4199 572.698C22.1412 573.322 20.4251 574.292 19.6512 574.881L18.2043 575.955V648.706C23.0161 651.616 25.9436 653.175 27.7943 654.006C29.645 654.872 32.4379 655.946 34.0194 656.431C35.6009 656.916 37.7881 657.505 38.8986 657.748C40.009 658.025 42.8019 658.198 45.1237 658.198C48.2867 658.164 50.0028 657.99 52.0218 657.401C53.5023 657.02 55.8578 656.085 57.2374 655.392C59.1218 654.422 60.4677 653.348 62.6213 651.131C64.2028 649.503 66.0535 647.182 66.7601 645.935C67.4331 644.687 68.4763 642.436 69.0483 640.911C69.6203 639.387 70.4616 636.719 70.899 635.022C71.3365 633.29 71.9421 630.103 72.2786 627.92C72.7497 624.733 72.8843 621.823 72.8843 613.37C72.8507 605.125 72.7161 601.903 72.2786 598.646C71.9421 596.36 71.3028 592.861 70.8317 590.852C70.3606 588.842 69.4184 585.794 68.7791 584.096C68.1061 582.364 66.9284 579.904 66.1881 578.588C65.4142 577.271 63.6981 575.02 62.3857 573.634C60.4677 571.659 59.3237 570.793 57.1701 569.754C55.6222 568.992 53.2668 568.16 51.9545 567.848C50.3393 567.502 48.0175 567.294 45.2246 567.329C42.8355 567.363 39.7061 567.571 38.2256 567.814C36.745 568.091 34.6251 568.541 33.5147 568.853Z" fill="#4d64b5"/>
<path d="M236.083 526.623L244.664 523.436C249.375 521.669 253.413 520.214 253.615 520.214C253.917 520.179 254.018 525.029 253.985 557.421L274.275 557.594V569.373H254.086L254.052 570.135C254.052 570.585 254.052 587.768 254.018 608.346C254.018 641.396 254.086 646.038 254.557 648.082C254.86 649.399 255.499 651.304 256.004 652.378C256.542 653.487 257.686 655.046 258.628 655.947C259.604 656.882 261.253 657.921 262.498 658.475C263.709 658.96 265.829 659.619 267.209 659.896C268.589 660.173 270.742 660.519 274.275 660.831V670.531L271.684 670.566C270.237 670.601 267.714 670.601 266.031 670.566C264.349 670.531 261.657 670.289 259.974 670.012C258.292 669.735 255.869 669.18 254.59 668.765C253.312 668.384 250.889 667.31 249.207 666.443C246.851 665.196 245.505 664.157 243.284 661.871C240.862 659.411 240.155 658.372 238.843 655.635C237.968 653.833 236.992 651.235 236.689 649.919C236.184 647.736 236.117 643.648 235.915 569.373H229.858C225.282 569.373 223.768 569.269 223.7 568.922C223.633 568.715 223.599 566.082 223.633 557.767L235.915 557.594L236.083 526.623Z" fill="#4d64b5"/>
<path d="M310.122 492.898L310.28 492.846L313.14 491.876L313.241 530.815C313.275 552.19 313.342 569.719 313.376 569.719C313.443 569.719 314.755 568.853 316.337 567.779C317.918 566.705 321.317 564.765 323.908 563.449C326.499 562.167 330.066 560.608 331.816 560.019C333.565 559.43 336.459 558.668 338.209 558.287C339.959 557.94 342.987 557.455 344.939 557.213C346.89 557.005 350.289 556.901 352.51 557.005C354.731 557.074 357.692 557.455 359.071 557.767C360.451 558.114 362.672 558.841 363.951 559.361C365.229 559.915 367.114 560.885 368.123 561.509C369.133 562.098 371.219 563.864 372.8 565.389C374.449 567.017 376.434 569.373 377.511 571.105C378.554 572.733 379.9 575.228 380.472 576.648C381.044 578.068 381.751 580.251 382.054 581.498C382.357 582.745 382.761 585.17 382.929 586.868C383.164 588.842 383.299 604.432 383.299 668.799H365.128L364.96 590.678L364.152 587.734C363.715 586.106 362.806 583.542 362.1 582.018C361.427 580.493 360.115 578.242 359.206 577.029C358.297 575.782 356.783 574.223 355.875 573.495C354.933 572.802 353.553 571.902 352.745 571.486C351.971 571.105 350.457 570.516 349.38 570.239C348.337 569.927 346.116 569.685 344.434 569.685C342.752 569.685 340.194 569.927 338.714 570.239C337.233 570.585 334.575 571.382 332.825 572.04C331.075 572.699 327.744 574.223 325.422 575.47C323.1 576.683 319.466 578.9 313.477 583.057L313.308 668.799H295.474L295.34 497.696L301.363 495.756C304.588 494.716 308.444 493.449 310.122 492.898Z" fill="#4d64b5"/>
<path fill-rule="evenodd" clip-rule="evenodd" d="M470.955 118.246C471.897 118.281 474.085 118.593 475.834 118.87C477.584 119.182 480.478 119.909 482.228 120.464C483.977 121.053 486.703 122.127 488.285 122.889C489.866 123.651 492.423 125.071 494.005 126.041C495.586 127.011 498.312 129.021 500.062 130.476C501.812 131.965 504.167 134.148 505.311 135.36C506.455 136.538 508.239 138.617 509.349 139.968C510.426 141.319 512.478 144.264 513.959 146.55C515.439 148.837 517.829 153.202 519.242 156.25C520.689 159.299 522.573 163.664 523.381 165.95C524.222 168.237 525.534 172.29 526.275 174.958C527.015 177.625 528.092 181.956 528.664 184.554C529.202 187.187 530.043 191.725 530.514 194.601C530.952 197.511 531.557 202.014 531.827 204.578C532.13 207.141 532.533 211.576 532.769 214.451C533.004 217.569 533.173 225.502 533.173 234.198C533.173 245.249 533.038 250.307 532.601 255.157C532.264 258.691 531.625 264.303 531.154 267.629C530.716 270.955 529.774 276.186 529.135 279.234C528.462 282.283 527.351 286.717 526.645 289.108C525.938 291.498 524.828 294.928 524.188 296.729C523.549 298.531 522.304 301.649 521.429 303.658C520.554 305.667 519.309 308.3 518.636 309.547C517.963 310.794 516.685 313.046 515.776 314.571C514.834 316.095 512.949 318.901 511.536 320.806C510.123 322.677 507.532 325.726 505.782 327.562C504.032 329.398 501.139 332.031 499.389 333.417C497.639 334.802 494.812 336.777 493.164 337.782C491.515 338.821 488.924 340.207 487.443 340.9C485.963 341.592 483.237 342.701 481.386 343.359C479.536 344.017 476.204 344.987 469.946 346.442L304.223 346.616V362.552H414.929L414.963 371.282C414.963 376.097 415.03 389.643 415.097 422.658L414.155 425.776C413.617 427.508 412.607 430.141 411.867 431.665C411.093 433.189 409.781 435.441 408.94 436.688C408.065 437.936 406.382 440.014 405.171 441.331C403.959 442.647 401.772 444.726 400.292 445.938C398.811 447.151 396.321 448.987 394.74 449.992C393.158 450.996 390.231 452.694 388.178 453.733C386.125 454.807 382.727 456.366 380.607 457.232C378.487 458.098 375.223 459.276 373.372 459.865C371.522 460.454 367.517 461.528 364.455 462.29C361.393 463.052 356.716 464.057 354.024 464.542C351.332 465.027 346.722 465.754 343.761 466.101C340.8 466.482 336.425 466.967 334.003 467.175C331.58 467.382 327.441 467.694 324.749 467.867C322.057 468.006 312.669 468.11 303.887 468.041C293.119 467.971 285.985 467.764 282.015 467.417C278.784 467.105 274.174 466.62 271.751 466.309C269.329 466.031 265.089 465.373 262.33 464.888C259.57 464.438 254.927 463.468 252.067 462.81C249.206 462.117 245.135 461.043 243.049 460.385C240.996 459.726 237.564 458.583 235.511 457.786C233.425 456.989 229.421 455.223 226.661 453.837C223.902 452.451 220.033 450.234 218.081 448.918C216.129 447.601 213.404 445.557 212.024 444.414C210.644 443.271 208.154 440.88 206.506 439.079C204.89 437.277 202.569 434.333 201.391 432.531C200.247 430.73 198.665 427.924 197.959 426.295C197.218 424.667 196.31 422.346 195.94 421.099C195.57 419.852 195.031 417.6 194.695 416.076C194.19 413.547 194.156 408.108 194.19 355.276C194.19 319.282 194.325 296.071 194.526 294.131C194.728 292.399 195.031 290.078 195.233 288.934C195.401 287.791 195.973 285.297 196.444 283.392C196.949 281.486 197.79 278.68 198.396 277.156C198.968 275.631 200.146 272.998 201.054 271.266C201.929 269.534 203.511 266.901 204.554 265.412C205.597 263.887 207.919 261.15 209.669 259.349C211.452 257.513 214.312 254.984 216.062 253.702C217.812 252.42 221.143 250.376 223.465 249.129C225.787 247.917 229.623 246.219 232.045 245.353C234.468 244.522 238.17 243.413 240.289 242.928C242.409 242.443 246.043 241.785 248.365 241.473C251.999 241.023 260.546 240.953 311.626 240.919C344.097 240.884 372.127 240.745 373.877 240.572C375.627 240.399 378.453 240.018 380.102 239.741C381.751 239.429 384.342 238.875 385.823 238.494C387.303 238.113 389.659 237.385 391.038 236.9C392.418 236.415 395.009 235.306 396.759 234.475C398.508 233.644 401.402 231.981 403.152 230.768C404.902 229.59 407.627 227.442 409.175 226.022C410.757 224.636 413.045 222.211 414.29 220.687C415.501 219.163 417.419 216.53 418.53 214.798C419.606 213.065 421.222 210.19 422.063 208.389C422.938 206.587 424.284 203.296 425.024 201.113C425.798 198.931 426.875 195.259 427.379 192.972C427.918 190.686 428.591 187.083 428.86 185.004C429.129 182.926 429.432 180.258 429.533 179.115C429.634 177.972 429.701 163.837 429.735 118.316L449.521 118.212C460.389 118.177 470.047 118.177 470.955 118.246ZM360.148 392.587C358.903 393.072 357.052 394.077 356.043 394.77C355.033 395.497 353.587 396.745 352.846 397.576C352.106 398.408 351.029 399.863 350.423 400.833C349.851 401.768 348.943 403.812 348.438 405.336C347.698 407.623 347.563 408.731 347.563 411.572C347.563 414.343 347.732 415.591 348.438 417.808C348.909 419.332 349.885 421.515 350.625 422.658C351.332 423.801 352.88 425.637 354.058 426.746C355.235 427.854 357.288 429.275 358.567 429.898C359.845 430.557 361.763 431.284 362.773 431.527C363.782 431.769 365.835 431.977 367.315 431.977C368.796 431.977 370.849 431.769 371.858 431.527C372.868 431.284 374.786 430.557 376.064 429.933C377.41 429.275 379.328 427.924 380.573 426.746C381.751 425.637 383.299 423.801 384.005 422.658C384.746 421.515 385.722 419.332 386.193 417.808C386.899 415.591 387.068 414.343 387.068 411.572C387.068 408.974 386.899 407.519 386.327 405.683C385.923 404.366 385.116 402.392 384.544 401.352C383.938 400.313 382.727 398.615 381.785 397.611C380.876 396.571 379.194 395.151 378.083 394.424C376.973 393.731 375.223 392.83 374.214 392.414C373.204 392.033 371.522 391.617 370.512 391.479C369.503 391.375 368.291 391.236 367.82 391.167C367.349 391.132 365.969 391.202 364.724 391.375C363.446 391.513 361.427 392.068 360.182 392.587H360.148Z" fill="#4d64b5"/>
<path fill-rule="evenodd" clip-rule="evenodd" d="M305.737 0.00866085C313.88 0.0779476 320.913 0.216521 321.384 0.285808C321.855 0.389738 323.908 0.562955 325.927 0.701528C327.946 0.805459 331.681 1.15189 334.171 1.42904C336.661 1.70619 340.295 2.15655 342.247 2.46834C344.198 2.74549 347.832 3.36907 350.322 3.85408C352.813 4.33908 356.985 5.27445 359.576 5.93268C362.167 6.5909 365.801 7.63021 367.652 8.21914C369.503 8.80808 372.834 10.0552 375.055 10.956C377.276 11.8567 380.304 13.1731 381.785 13.9007C383.265 14.5935 385.923 16.0485 387.673 17.0878C389.423 18.1272 392.014 19.79 393.394 20.7947C394.773 21.7993 397.196 23.774 398.777 25.1944C400.359 26.6148 402.714 29.0745 404.027 30.6681C405.339 32.2963 407.122 34.7213 407.93 36.0378C408.771 37.3542 410.016 39.606 410.689 40.9918C411.362 42.3429 412.338 44.8372 412.91 46.5347C413.448 48.1976 414.121 51.0384 414.424 52.8398C414.862 55.7152 414.929 63.1635 414.895 112.253C414.862 143.328 414.727 170.142 414.559 172.359C414.357 174.542 413.852 178.284 413.381 180.674C412.91 183.064 412.069 186.39 411.53 188.122C410.958 189.854 409.848 192.73 409.007 194.531C408.166 196.333 406.483 199.381 405.238 201.287C403.858 203.469 401.705 206.102 399.45 208.389C397.499 210.398 394.47 213.065 392.721 214.347C390.971 215.629 387.572 217.708 385.149 218.92C382.727 220.167 379.463 221.657 377.814 222.211C376.199 222.8 374.752 223.216 374.55 223.112C374.348 223.008 374.213 223.043 374.213 223.216C374.213 223.355 373.54 223.666 372.699 223.909C371.858 224.117 371.05 224.255 370.849 224.151C370.647 224.047 370.512 224.151 370.512 224.325C370.512 224.498 370.209 224.602 369.839 224.498C369.469 224.394 369.166 224.498 369.166 224.671C369.166 224.844 368.459 225.121 367.551 225.225C366.676 225.364 365.667 225.502 365.296 225.572C364.926 225.606 363.849 225.849 362.941 226.091C361.696 226.369 352.543 226.542 328.955 226.611C311.188 226.68 294.902 226.75 292.782 226.75C290.662 226.75 278.683 226.75 266.199 226.75C253.715 226.75 242.275 226.819 240.794 226.923C239.314 226.992 236.823 227.165 235.242 227.269C233.66 227.408 230.699 227.789 228.68 228.135C226.661 228.516 223.633 229.209 221.951 229.694C220.268 230.179 217.845 230.976 216.567 231.496C215.288 231.981 212.764 233.124 211.014 234.059C209.265 234.995 206.741 236.45 205.462 237.35C204.184 238.251 201.929 239.983 200.449 241.265C199.002 242.512 196.747 244.799 195.469 246.323C194.19 247.847 192.272 250.411 191.195 252.039C190.118 253.668 188.537 256.3 187.696 257.929C186.854 259.557 185.475 262.675 184.667 264.857C183.826 267.04 182.682 270.643 182.11 272.825C181.538 275.008 180.73 278.611 180.326 280.793C179.62 284.673 179.586 285.505 179.384 349.734H159.094C147.956 349.734 137.558 349.56 135.977 349.387C134.395 349.214 131.67 348.694 129.92 348.209C128.17 347.759 125.142 346.754 123.19 345.992C121.238 345.195 118.075 343.602 116.124 342.389C114.172 341.177 111.615 339.445 110.403 338.475C109.192 337.539 106.87 335.426 105.221 333.798C103.606 332.169 101.284 329.675 100.14 328.255C98.9624 326.834 96.8425 323.855 95.4293 321.672C94.016 319.49 91.5932 315.056 90.0454 311.799C88.4975 308.543 86.5459 303.935 85.7046 301.51C84.8297 299.05 83.5847 294.997 82.8444 292.503C82.1378 289.974 81.162 286.024 80.6572 283.738C80.1861 281.452 79.4795 277.779 79.1094 275.597C78.7392 273.414 78.1335 269.118 77.7634 266.07C77.3933 263.021 76.9558 258.656 76.7876 256.37C76.5857 254.083 76.3501 250.654 76.2492 248.748C76.1482 246.843 76.0136 241.542 75.9463 236.969C75.9127 232.396 75.98 225.918 76.1146 222.592C76.2492 219.267 76.5184 214.417 76.7539 211.853C76.9558 209.289 77.4942 204.439 77.9653 201.113C78.4364 197.788 79.3449 192.487 79.9842 189.335C80.6572 186.182 81.7677 181.575 82.5079 179.115C83.2482 176.655 84.4596 172.879 85.1999 170.801C85.9738 168.687 87.4544 165.119 88.4975 162.833C89.5406 160.546 91.324 157.116 92.4008 155.211C93.4776 153.306 95.6985 149.945 97.3136 147.763C98.9288 145.58 101.352 142.601 102.731 141.18C104.077 139.76 106.332 137.578 107.711 136.365C109.091 135.118 111.581 133.212 113.263 132.069C114.946 130.961 117.806 129.228 119.657 128.293C121.507 127.323 124.166 126.076 125.545 125.522C126.925 125.002 129.415 124.136 131.097 123.686C132.78 123.201 135.337 122.542 136.818 122.231C139.274 121.711 146.374 121.642 305.064 121.26L305.098 113.639C305.098 109.447 305.064 105.81 304.997 105.602C304.93 105.255 293.556 105.151 194.19 105.151L194.156 78.0256C194.156 63.1289 194.089 50.6919 194.022 50.4148C193.988 50.1376 194.055 48.6133 194.224 47.0544C194.392 45.4608 194.93 42.8972 195.401 41.3382C195.906 39.7446 196.747 37.5274 197.319 36.3842C197.858 35.241 198.934 33.3702 199.708 32.227C200.449 31.0838 201.929 29.1437 202.939 27.8966C203.982 26.6494 206.102 24.5362 207.683 23.1851C209.231 21.834 211.856 19.79 213.538 18.6814C215.221 17.5382 218.249 15.7368 220.268 14.6628C222.287 13.5889 225.719 12.0299 227.839 11.1638C229.959 10.2977 233.459 9.05058 235.578 8.35772C237.698 7.66485 241.568 6.55626 244.159 5.89804C246.75 5.23981 250.99 4.33908 253.581 3.85408C256.172 3.36907 260.479 2.6762 263.171 2.29512C265.863 1.91405 270.776 1.35975 274.107 1.04796C277.438 0.736172 282.587 0.355095 285.548 0.216521C288.509 0.0433042 297.594 -0.0259825 305.737 0.00866085ZM232.954 37.9085C232.281 38.255 230.8 39.2596 229.69 40.1257C228.579 40.9571 227.032 42.5161 226.258 43.5207C225.484 44.56 224.474 46.1536 224.003 47.1237C223.532 48.059 222.926 49.618 222.657 50.588C222.354 51.5234 222.018 53.5673 221.917 55.0916C221.782 56.997 221.883 58.6599 222.253 60.4614C222.556 61.8817 223.296 64.1682 223.936 65.4846C224.575 66.8011 225.921 68.8451 226.931 69.9883C227.906 71.1315 229.623 72.6905 230.733 73.4526C231.81 74.1801 233.997 75.2541 235.578 75.8084C238.001 76.6745 238.943 76.8477 241.804 76.813C244.529 76.813 245.673 76.6398 247.86 75.8777C249.341 75.3927 251.528 74.3187 252.706 73.5219C253.884 72.7251 255.566 71.2701 256.407 70.3347C257.249 69.3647 258.426 67.7365 259.032 66.6972C259.604 65.6579 260.378 63.8564 260.782 62.7132C261.152 61.5699 261.556 59.3874 261.657 57.8631C261.825 55.8884 261.724 54.3295 261.354 52.4934C261.051 51.073 260.243 48.648 259.503 47.1237C258.696 45.4608 257.484 43.59 256.374 42.4122C255.398 41.3729 253.749 39.9178 252.74 39.225C251.73 38.5321 249.745 37.5274 248.365 37.0078C246.38 36.3149 245.068 36.0724 242.308 36.0031C239.515 35.8992 238.304 36.0031 236.521 36.5574C235.242 36.9385 233.66 37.5621 232.987 37.9085H232.954Z" fill="#4d64b5"/>
</svg>
