<svg width="59" height="81" viewBox="0 0 59 81" fill="none" xmlns="http://www.w3.org/2000/svg">
<g clip-path="url(#clip0_225_2281)">
<path d="M13.2756 53.7638C13.5573 53.7325 13.7964 53.709 13.8049 53.7012C13.8135 53.7012 17.2455 53.7012 21.4459 53.7168C25.6378 53.7246 29.121 53.7482 29.1808 53.7716C29.2576 53.803 29.2746 55.3308 29.2491 61.16C29.232 65.195 29.1979 68.6581 29.1637 68.8539C29.1296 69.0497 29.0441 69.4729 28.9758 69.794C28.8991 70.1153 28.6686 70.8597 28.4551 71.4394C28.2501 72.0192 27.883 72.834 27.644 73.2414C27.4135 73.6488 27.0549 74.213 26.8501 74.495C26.6452 74.7771 26.1756 75.3412 25.8085 75.7486C25.4414 76.156 24.7926 76.7672 24.3743 77.104C23.9474 77.4409 23.2558 77.9267 22.8375 78.1931C22.4191 78.4517 21.702 78.8356 21.258 79.0392C20.8142 79.243 20.1568 79.5016 19.8068 79.6112C19.4567 79.721 18.8421 79.9011 18.4407 80.0108C18.0395 80.1205 17.4077 80.2458 17.032 80.2928C16.6565 80.3399 16.1015 80.3947 15.7942 80.4182C15.4868 80.4496 15.1794 80.4809 15.1111 80.4966C15.0428 80.5044 14.9832 80.5201 14.9832 80.5279C14.9832 80.5358 14.838 80.5592 14.6672 80.5749C14.4282 80.5984 14.3599 80.5828 14.4025 80.5122C14.4368 80.4496 14.394 80.4573 14.3001 80.5279C14.2062 80.5984 14.1635 80.6063 14.1976 80.5514C14.2404 80.4731 14.155 80.4496 13.8733 80.4496C13.6599 80.4496 13.4635 80.4417 13.4293 80.426C13.3866 80.4104 13.0707 80.3712 12.7207 80.3399C12.3707 80.3085 11.7731 80.2145 11.3974 80.1283C11.0218 80.0421 10.3132 79.8541 9.81798 79.7053C9.32281 79.5563 8.53738 79.2508 8.06783 79.0314C7.59827 78.8121 6.9665 78.483 6.65915 78.295C6.35181 78.1148 5.89079 77.8092 5.63467 77.6211C5.37855 77.4331 4.88338 77.0336 4.53335 76.728C4.19186 76.4303 3.67107 75.9132 3.38934 75.5919C3.1076 75.2707 2.6722 74.7222 2.42462 74.3775C2.18556 74.0327 1.80993 73.4373 1.59649 73.0456C1.39159 72.6617 1.10132 72.0271 0.956187 71.6353C0.81105 71.2514 0.614691 70.6637 0.52078 70.3426C0.426869 70.0213 0.307345 69.418 0.256121 69.0105C0.204897 68.6032 0.128061 68.1644 0.0768365 68.0312C0.0341496 67.9059 0 67.4201 0 66.9578C0 66.4407 0.0341496 66.1117 0.0853738 66.1117C0.136598 66.1117 0.170748 65.9628 0.170748 65.7826C0.170748 65.5945 0.221972 65.1636 0.29027 64.8189C0.35857 64.4741 0.478093 63.9806 0.554929 63.722C0.631766 63.4635 0.81105 62.9385 0.956187 62.5468C1.10132 62.1629 1.40866 61.489 1.63918 61.0581C1.87822 60.6272 2.3307 59.9221 2.64659 59.4912C2.97101 59.0603 3.56862 58.3785 3.98696 57.9712C4.39675 57.5637 5.02852 57.0153 5.37855 56.7489C5.72858 56.4825 6.36889 56.0516 6.78722 55.8009C7.20555 55.5502 7.90562 55.1976 8.32394 55.0174C8.74228 54.8372 9.38258 54.5943 9.73262 54.4847C10.0826 54.3671 10.723 54.1947 11.1413 54.0929C11.5596 53.991 12.106 53.8814 12.3365 53.8578C12.5756 53.8344 12.9938 53.7874 13.2756 53.7638Z" fill="#FDF6FC"/>
<path d="M41.8758 26.9765L41.4489 26.9295C41.2184 26.8982 42.132 26.8826 43.4979 26.8982C44.8638 26.9139 46.0335 26.9374 46.1018 26.9531C46.1701 26.9765 46.3835 27.0157 46.5714 27.0471C46.7592 27.0863 47.2202 27.1803 47.5958 27.2665C47.9715 27.3448 48.3556 27.4466 48.4496 27.4859C48.5435 27.5251 48.8167 27.619 49.0472 27.6896C49.2862 27.76 49.7643 27.9403 50.1143 28.0969C50.4645 28.2537 51.045 28.5357 51.395 28.7316C51.745 28.9196 52.2999 29.2643 52.6328 29.4916C52.9659 29.711 53.5976 30.2281 54.0501 30.6277C54.5025 31.035 55.0405 31.56 55.2539 31.7951C55.4674 32.0301 55.8686 32.5394 56.1503 32.9312C56.4405 33.3228 56.8248 33.9339 57.0126 34.3022C57.2004 34.6704 57.4138 35.0935 57.4821 35.2424C57.559 35.3913 57.6955 35.7438 57.798 36.0259C57.9004 36.3079 58.0456 36.7467 58.1138 37.0052C58.1821 37.2638 58.3102 37.9533 58.3956 38.5331C58.4895 39.1128 58.5578 39.8886 58.5664 40.2568C58.5664 40.625 58.5066 41.3772 58.4297 41.9413C58.3614 42.5054 58.2676 43.0303 58.2249 43.1165C58.1821 43.2027 58.1224 43.3985 58.0968 43.5474C58.0626 43.6963 57.9004 44.1899 57.7383 44.6443C57.5674 45.0988 57.2602 45.7804 57.0467 46.1721C56.8333 46.5639 56.5088 47.1044 56.321 47.3865C56.1246 47.6686 55.7576 48.1622 55.4929 48.4835C55.2282 48.8046 54.6477 49.4001 54.2037 49.8075C53.7599 50.215 53.1109 50.7477 52.7609 50.9907C52.4109 51.2335 51.8304 51.5861 51.4804 51.7819C51.1303 51.9778 50.5157 52.2834 50.1143 52.4558C49.7131 52.6281 49.235 52.8161 49.0472 52.871C48.8594 52.9259 48.663 52.9963 48.6203 53.0276C48.5777 53.0591 48.0568 53.1923 47.4678 53.3255C46.8787 53.4586 46.1871 53.584 45.9311 53.6075C45.6749 53.6309 45.1542 53.6779 44.7785 53.7015C44.4029 53.7328 43.976 53.7564 43.8394 53.7564C43.7027 53.7564 43.276 53.7328 42.9003 53.7015C42.5246 53.6779 41.927 53.6153 41.577 53.5683C41.227 53.5213 40.7489 53.4351 40.5099 53.3802C40.2793 53.3176 39.8524 53.2157 39.5707 53.1452C39.289 53.0747 39.0243 52.9885 38.9731 52.9415C38.9219 52.9023 38.8109 52.871 38.7169 52.871C38.6231 52.8631 38.1791 52.6986 37.7352 52.5028C37.2912 52.299 36.6339 51.97 36.2838 51.7819C35.9337 51.5861 35.3959 51.2492 35.0885 51.0376C34.7813 50.826 34.3032 50.4578 34.0214 50.215C33.7397 49.972 33.2786 49.549 32.9969 49.2669C32.7152 48.9849 32.4078 48.6558 32.314 48.5305C32.22 48.405 32.0664 48.2171 31.9639 48.0995C31.87 47.9898 31.6481 47.6921 31.4772 47.4493C31.2979 47.1985 30.982 46.6658 30.7601 46.274C30.5382 45.8744 30.2649 45.3181 30.1625 45.036C30.0515 44.754 29.8637 44.2134 29.7442 43.8216C29.6161 43.43 29.488 42.9206 29.4539 42.6856C29.4197 42.4505 29.377 47.9507 29.3599 54.9081C29.3344 66.3157 29.3258 66.8877 29.2404 53.772L14.3854 53.6936L29.2832 53.6545L29.2917 47.7234C29.2917 44.4563 29.3003 38.4548 29.3173 26.9765L29.3685 32.6177C29.3942 35.7203 29.4197 38.1335 29.4368 37.9847C29.4454 37.8358 29.4966 37.5694 29.5478 37.397C29.5991 37.2246 29.6759 36.9112 29.7271 36.6919C29.7698 36.4803 29.838 36.2609 29.8808 36.2217C29.9149 36.1826 30.026 35.9162 30.1284 35.6342C30.2308 35.3522 30.4955 34.788 30.7089 34.3806C30.9224 33.9731 31.315 33.3385 31.5797 32.9703C31.8443 32.602 32.22 32.1085 32.4249 31.8734C32.6383 31.6383 33.1505 31.1212 33.586 30.7373C34.0128 30.3456 34.6702 29.8128 35.0459 29.5543C35.4215 29.2957 36.0191 28.9274 36.3692 28.7316C36.7192 28.5435 37.1461 28.3242 37.3083 28.2537C37.4705 28.1831 37.7779 28.0578 37.9913 27.9716C38.2047 27.8854 38.606 27.7287 38.8878 27.619C39.1695 27.5093 39.5536 27.3997 39.7414 27.3683C39.9293 27.337 40.1256 27.29 40.1683 27.2587C40.2111 27.2351 40.3135 27.2038 40.3818 27.1959C40.4501 27.1803 40.8171 27.1254 41.8758 26.9765Z" fill="#FDF6FC"/>
<path d="M13.1049 26.9686C13.3354 26.9451 13.5402 26.9138 13.5573 26.8981C13.5745 26.8824 17.1174 26.8668 29.2662 26.8511L29.2832 32.7508C29.3003 35.9945 29.3003 39.3713 29.3003 40.2566C29.3003 41.1419 29.3003 44.5188 29.2832 53.6544L20.9849 53.6308C16.4174 53.6152 12.5414 53.576 12.3792 53.5446C12.217 53.5133 11.7731 53.4193 11.3974 53.341C11.0218 53.2548 10.3473 53.0745 9.90336 52.9492C9.45942 52.816 8.63129 52.4948 8.06783 52.2363C7.50436 51.9777 6.68477 51.5311 6.24083 51.2412C5.79689 50.9513 5.05413 50.3794 4.58458 49.9719C4.11501 49.5645 3.49179 48.9456 3.20152 48.6009C2.91125 48.2561 2.45876 47.6607 2.20265 47.2689C1.94652 46.8772 1.61356 46.3131 1.45989 46.0153C1.29768 45.7176 1.02449 45.0438 0.836663 44.5267C0.648841 44.0096 0.418332 43.2182 0.332958 42.7638C0.239046 42.3093 0.170748 41.7922 0.170748 41.6121C0.170748 41.4241 0.128061 41.2751 0.0853738 41.2751C0.0341496 41.2751 0 40.8599 0 40.1783C0 39.4731 0.0341496 39.0971 0.0853738 39.1206C0.136598 39.1441 0.170748 39.0188 0.170748 38.8307C0.170748 38.6426 0.23051 38.2117 0.298808 37.867C0.375645 37.5222 0.495167 37.0443 0.563467 36.8093C0.640304 36.5742 0.793976 36.112 0.9135 35.7907C1.03302 35.4695 1.27207 34.921 1.44282 34.5763C1.6221 34.2316 1.96359 33.6518 2.21118 33.2835C2.45876 32.9153 2.9027 32.3355 3.20152 31.9908C3.49179 31.646 4.03818 31.0898 4.40529 30.745C4.77239 30.4082 5.37001 29.9302 5.72004 29.6795C6.07008 29.4366 6.57379 29.1076 6.8299 28.9586C7.08603 28.802 7.64096 28.52 8.06783 28.3319C8.48615 28.136 9.10084 27.8853 9.4338 27.7756C9.75822 27.658 10.4327 27.4622 10.9278 27.3369C11.423 27.2115 12.0121 27.0862 12.2511 27.0626C12.4816 27.0392 12.8659 26.9921 13.1049 26.9686Z" fill="#FDF6FC"/>
<path d="M13.233 0.298301C13.361 0.36098 13.4123 0.34531 13.4549 0.259125C13.4805 0.196447 13.5402 0.141602 13.583 0.141602C13.6257 0.141602 13.6769 0.188612 13.6854 0.235621C13.7025 0.298301 13.8904 0.34531 14.138 0.353145C14.3684 0.36098 14.633 0.376649 14.727 0.376649C14.8209 0.376649 18.0651 0.384484 21.9411 0.376649C25.8171 0.376649 29.0527 0.384484 29.1381 0.400154C29.2149 0.407989 29.2832 0.439329 29.2832 0.470669C29.2832 0.509843 29.2234 0.533348 29.1551 0.533348C29.0869 0.533348 29.0441 0.572523 29.0698 0.611697C29.0954 0.650872 29.1467 0.674376 29.1979 0.650872C29.2491 0.627367 29.2746 0.674376 29.2576 0.744891C29.2491 0.82324 29.1979 0.940764 29.1551 1.00344C29.0954 1.08963 29.1039 1.1053 29.1808 1.05829C29.232 1.02695 29.2832 1.04262 29.2832 1.08179C29.2832 1.12096 29.2234 1.16014 29.1551 1.16014C29.0869 1.16014 29.0441 1.19931 29.0698 1.23849C29.0954 1.27766 29.1467 1.30117 29.1979 1.27766C29.2491 1.25417 29.2662 1.31684 29.2491 1.41086C29.2234 1.51272 29.2063 1.59107 29.1979 1.59107C29.1893 1.59107 29.1722 1.65374 29.1467 1.72426C29.1296 1.80261 29.1467 1.84962 29.1979 1.82611C29.2491 1.80261 29.2832 1.82611 29.2832 1.86528C29.2832 1.90446 29.2234 1.94363 29.1551 1.94363C29.0869 1.94363 29.0441 1.98281 29.0698 2.02198C29.0954 2.06116 29.1467 2.08466 29.1979 2.06116C29.2491 2.03765 29.2662 2.10034 29.2491 2.19435C29.2234 2.2962 29.2063 2.37455 29.1979 2.37455C29.1893 2.37455 29.1722 2.43724 29.1467 2.50774C29.1296 2.58609 29.1467 2.6331 29.1979 2.6096C29.2491 2.58609 29.2832 2.6096 29.2832 2.64878C29.2832 2.68795 29.2234 2.72713 29.1551 2.72713C29.0869 2.72713 29.0441 2.7663 29.0698 2.80547C29.0954 2.84464 29.1467 2.86815 29.1979 2.84464C29.2491 2.82115 29.2662 2.88382 29.2491 2.97785C29.2234 3.0797 29.2063 3.15805 29.1979 3.15805C29.1893 3.15805 29.1722 3.22072 29.1467 3.29124C29.1296 3.36959 29.1467 3.4166 29.1979 3.39309C29.2491 3.36959 29.2832 3.39309 29.2832 3.43226C29.2832 3.47144 29.2234 3.51061 29.1551 3.51061C29.0869 3.51061 29.0441 3.54979 29.0698 3.58896C29.0954 3.62814 29.1467 3.65165 29.1979 3.62814C29.2491 3.60464 29.2662 3.66732 29.2491 3.76133C29.2234 3.86319 29.2063 3.94154 29.1979 3.94154C29.1893 3.94154 29.1722 4.00422 29.1467 4.07473C29.1296 4.15309 29.1467 4.20009 29.1979 4.17658C29.2491 4.15308 29.2832 4.17658 29.2832 4.21576C29.2832 4.25493 29.2234 4.29411 29.1551 4.29411C29.0869 4.29411 29.0441 4.33328 29.0698 4.37246C29.0954 4.41164 29.1467 4.43513 29.1979 4.41164C29.2491 4.38813 29.2662 4.45081 29.2491 4.54483C29.2234 4.64668 29.2063 4.72503 29.1979 4.72503C29.1893 4.72503 29.1722 4.78771 29.1467 4.85822C29.1296 4.93657 29.1467 4.98358 29.1979 4.96008C29.2491 4.93657 29.2832 4.96008 29.2832 4.99925C29.2832 5.03843 29.2234 5.07761 29.1551 5.07761C29.0869 5.07761 29.0441 5.11678 29.0698 5.15594C29.0954 5.19512 29.1467 5.21863 29.1979 5.19512C29.2491 5.17162 29.2662 5.2343 29.2491 5.32832C29.2234 5.43017 29.2063 5.50852 29.1979 5.50852C29.1893 5.50852 29.1722 5.5712 29.1467 5.64171C29.1296 5.72007 29.1467 5.76707 29.1979 5.74356C29.2491 5.72007 29.2832 5.74356 29.2832 5.78274C29.2832 5.82191 29.2234 5.86109 29.1551 5.86109C29.0869 5.86109 29.0441 5.90027 29.0698 5.93944C29.0954 5.97862 29.1467 6.00213 29.1979 5.97862C29.2491 5.95511 29.2662 6.01779 29.2491 6.11181C29.2234 6.21367 29.2063 6.29202 29.1979 6.29202C29.1893 6.29202 29.1722 6.35469 29.1467 6.42521C29.1296 6.50356 29.1467 6.55057 29.1979 6.52706C29.2491 6.50356 29.2832 6.52706 29.2832 6.56624C29.2832 6.60541 29.2234 6.64459 29.1551 6.64459C29.0869 6.64459 29.0441 6.68376 29.0698 6.72294C29.0954 6.76211 29.1467 6.78561 29.1979 6.76211C29.2491 6.7386 29.2662 6.80129 29.2491 6.8953C29.2234 6.99715 29.2063 7.0755 29.1979 7.0755C29.1893 7.0755 29.1722 7.13819 29.1467 7.2087C29.1296 7.28705 29.1467 7.33405 29.1979 7.31056C29.2491 7.28705 29.2832 7.31056 29.2832 7.34973C29.2832 7.38891 29.2234 7.42808 29.1551 7.42808C29.0869 7.42808 29.0441 7.46726 29.0698 7.50642C29.0954 7.5456 29.1467 7.56911 29.1979 7.5456C29.2491 7.5221 29.2662 7.58477 29.2491 7.6788C29.2234 7.78065 29.2063 7.859 29.1979 7.859C29.1893 7.859 29.1722 7.92167 29.1467 7.99219C29.1296 8.07054 29.1467 8.11755 29.1979 8.09404C29.2491 8.07054 29.2832 8.09404 29.2832 8.13322C29.2832 8.17239 29.2234 8.21157 29.1551 8.21157C29.0869 8.21157 29.0441 8.25074 29.0698 8.28992C29.0954 8.32909 29.1467 8.3526 29.1979 8.32909C29.2491 8.30558 29.2662 8.36827 29.2491 8.46228C29.2234 8.56414 29.2063 8.6425 29.1979 8.6425C29.1893 8.6425 29.1722 8.70517 29.1467 8.77569C29.1296 8.85404 29.1467 8.90105 29.1979 8.87754C29.2491 8.85404 29.2832 8.87754 29.2832 8.91671C29.2832 8.95589 29.2234 8.99506 29.1551 8.99506C29.0869 8.99506 29.0441 9.03424 29.0698 9.07341C29.0954 9.11259 29.1467 9.13609 29.1979 9.11259C29.2491 9.08908 29.2662 9.15176 29.2491 9.24578C29.2234 9.34763 29.2063 9.42598 29.1979 9.42598C29.1893 9.42598 29.1722 9.48866 29.1467 9.55917C29.1296 9.63752 29.1467 9.68453 29.1979 9.66103C29.2491 9.63752 29.2832 9.66103 29.2832 9.70021C29.2832 9.73938 29.2234 9.77856 29.1551 9.77856C29.0869 9.77856 29.0441 9.81773 29.0698 9.8569C29.0954 9.89607 29.1467 9.91958 29.1979 9.89607C29.2491 9.87257 29.2662 9.93525 29.2491 10.0293C29.2234 10.1311 29.2063 10.2095 29.1979 10.2095C29.1893 10.2095 29.1722 10.2722 29.1467 10.3427C29.1296 10.421 29.1467 10.468 29.1979 10.4445C29.2491 10.421 29.2832 10.4445 29.2832 10.4837C29.2832 10.5229 29.2234 10.562 29.1551 10.562C29.0869 10.562 29.0441 10.6012 29.0698 10.6404C29.0954 10.6796 29.1467 10.7031 29.1979 10.6796C29.2491 10.6561 29.2662 10.7187 29.2491 10.8128C29.2234 10.9146 29.2063 10.9929 29.1979 10.9929C29.1893 10.9929 29.1722 11.0557 29.1467 11.1261C29.1296 11.2045 29.1467 11.2515 29.1979 11.228C29.2491 11.2045 29.2832 11.228 29.2832 11.2672C29.2832 11.3064 29.2234 11.3455 29.1551 11.3455C29.0869 11.3455 29.0441 11.3847 29.0698 11.4238C29.0954 11.463 29.1467 11.4866 29.1979 11.463C29.2491 11.4396 29.2662 11.5023 29.2491 11.5962C29.2234 11.6981 29.2063 11.7764 29.1979 11.7764C29.1893 11.7764 29.1722 11.8392 29.1467 11.9096C29.1296 11.988 29.1467 12.035 29.1979 12.0115C29.2491 11.988 29.2832 12.0115 29.2832 12.0507C29.2832 12.0899 29.2234 12.129 29.1551 12.129C29.0869 12.129 29.0441 12.1682 29.0698 12.2074C29.0954 12.2465 29.1467 12.2701 29.1979 12.2465C29.2491 12.2231 29.2662 12.2857 29.2491 12.3797C29.2234 12.4816 29.2063 12.5599 29.1979 12.5599C29.1893 12.5599 29.1722 12.6227 29.1467 12.6931C29.1296 12.7715 29.1467 12.8185 29.1979 12.795C29.2491 12.7715 29.2832 12.795 29.2832 12.8342C29.2832 12.8734 29.2234 12.9125 29.1551 12.9125C29.0869 12.9125 29.0441 12.9517 29.0698 12.9909C29.0954 13.03 29.1467 13.0536 29.1979 13.03C29.2491 13.0066 29.2662 13.0692 29.2491 13.1632C29.2234 13.2651 29.2063 13.3434 29.1979 13.3434C29.1893 13.3434 29.1722 13.4061 29.1467 13.4766C29.1296 13.555 29.1467 13.602 29.1979 13.5785C29.2491 13.555 29.2832 13.5785 29.2832 13.6177C29.2832 13.6569 29.2234 13.696 29.1551 13.696C29.0869 13.696 29.0441 13.7352 29.0698 13.7744C29.0954 13.8135 29.1467 13.8371 29.1979 13.8135C29.2491 13.7901 29.2662 13.8527 29.2491 13.9467C29.2234 14.0486 29.2063 14.127 29.1979 14.127C29.1893 14.127 29.1722 14.1896 29.1467 14.2602C29.1296 14.3385 29.1467 14.3855 29.1979 14.3619C29.2491 14.3385 29.2832 14.3619 29.2832 14.4011C29.2832 14.4404 29.2234 14.4795 29.1551 14.4795C29.0869 14.4795 29.0441 14.5187 29.0698 14.5579C29.0954 14.597 29.1467 14.6205 29.1979 14.597C29.2491 14.5735 29.2662 14.6362 29.2491 14.7302C29.2234 14.832 29.2063 14.9105 29.1979 14.9105C29.1893 14.9105 29.1722 14.9731 29.1467 15.0437C29.1296 15.122 29.1467 15.169 29.1979 15.1454C29.2491 15.122 29.2832 15.1454 29.2832 15.1846C29.2832 15.2238 29.2234 15.263 29.1551 15.263C29.0869 15.263 29.0441 15.3022 29.0698 15.3414C29.0954 15.3805 29.1467 15.404 29.1979 15.3805C29.2491 15.357 29.2662 15.4197 29.2491 15.5137C29.2234 15.6155 29.2063 15.694 29.1979 15.694C29.1893 15.694 29.1722 15.7566 29.1467 15.8271C29.1296 15.9055 29.1467 15.9525 29.1979 15.929C29.2491 15.9055 29.2832 15.929 29.2832 15.9681C29.2832 16.0073 29.2234 16.0464 29.1551 16.0464C29.0869 16.0464 29.0441 16.0856 29.0698 16.1249C29.0954 16.164 29.1467 16.1875 29.1979 16.164C29.2491 16.1405 29.2662 16.2032 29.2491 16.2973C29.2234 16.399 29.2063 16.4774 29.1979 16.4774C29.1893 16.4774 29.1722 16.5401 29.1467 16.6106C29.1296 16.689 29.1467 16.7359 29.1979 16.7125C29.2491 16.689 29.2832 16.7125 29.2832 16.7516C29.2832 16.7908 29.2234 16.83 29.1551 16.83C29.0869 16.83 29.0441 16.8691 29.0698 16.9083C29.0954 16.9476 29.1467 16.971 29.1979 16.9476C29.2491 16.924 29.2662 16.9867 29.2491 17.0806C29.2234 17.1825 29.2063 17.2609 29.1979 17.2609C29.1893 17.2609 29.1722 17.3236 29.1467 17.3941C29.1296 17.4724 29.1467 17.5194 29.1979 17.496C29.2491 17.4724 29.2832 17.496 29.2832 17.5351C29.2832 17.5743 29.2234 17.6135 29.1551 17.6135C29.0869 17.6135 29.0441 17.6526 29.0698 17.6918C29.0954 17.731 29.1467 17.7545 29.1979 17.731C29.2491 17.7075 29.2662 17.7701 29.2491 17.8642C29.2234 17.966 29.2063 18.0444 29.1979 18.0444C29.1893 18.0444 29.1722 18.1071 29.1467 18.1776C29.1296 18.2559 29.1467 18.3029 29.1979 18.2795C29.2491 18.2559 29.2832 18.2795 29.2832 18.3186C29.2832 18.3578 29.2234 18.397 29.1551 18.397C29.0869 18.397 29.0441 18.4361 29.0698 18.4753C29.0954 18.5145 29.1467 18.538 29.1979 18.5145C29.2491 18.491 29.2662 18.5536 29.2491 18.6477C29.2234 18.7496 29.2063 18.8279 29.1979 18.8279C29.1893 18.8279 29.1722 18.8906 29.1467 18.9611C29.1296 19.0394 29.1467 19.0864 29.1979 19.063C29.2491 19.0394 29.2832 19.063 29.2832 19.1021C29.2832 19.1413 29.2234 19.1805 29.1551 19.1805C29.0869 19.1805 29.0441 19.2196 29.0698 19.2588C29.0954 19.298 29.1467 19.3215 29.1979 19.298C29.2491 19.2745 29.2662 19.3371 29.2491 19.4312C29.2234 19.5331 29.2063 19.6114 29.1979 19.6114C29.1893 19.6114 29.1722 19.674 29.1467 19.7446C29.1296 19.8229 29.1467 19.8699 29.1979 19.8464C29.2491 19.8229 29.2832 19.8464 29.2832 19.8856C29.2832 19.9248 29.2234 19.964 29.1551 19.964C29.0869 19.964 29.0441 20.0031 29.0698 20.0423C29.0954 20.0815 29.1467 20.1049 29.1979 20.0815C29.2491 20.058 29.2662 20.1206 29.2491 20.2147C29.2234 20.3166 29.2063 20.3949 29.1979 20.3949C29.1893 20.3949 29.1722 20.4575 29.1467 20.5281C29.1296 20.6064 29.1467 20.6534 29.1979 20.6299C29.2491 20.6064 29.2832 20.6299 29.2832 20.669C29.2832 20.7082 29.2234 20.7475 29.1551 20.7475C29.0869 20.7475 29.0441 20.7866 29.0698 20.8258C29.0954 20.865 29.1467 20.8884 29.1979 20.865C29.2491 20.8414 29.2662 20.9041 29.2491 20.9982C29.2234 21.1 29.2063 21.1784 29.1979 21.1784C29.1893 21.1784 29.1722 21.241 29.1467 21.3116C29.1296 21.3899 29.1467 21.437 29.1979 21.4134C29.2491 21.3899 29.2832 21.4134 29.2832 21.4526C29.2832 21.4917 29.2234 21.5309 29.1551 21.5309C29.0869 21.5309 29.0441 21.5702 29.0698 21.6093C29.0954 21.6485 29.1467 21.6719 29.1979 21.6485C29.2491 21.6249 29.2662 21.6876 29.2491 21.7817C29.2234 21.8835 29.2063 21.9618 29.1979 21.9618C29.1893 21.9618 29.1722 22.0245 29.1467 22.095C29.1296 22.1734 29.1467 22.2204 29.1979 22.1969C29.2491 22.1734 29.2832 22.1969 29.2832 22.2361C29.2832 22.2752 29.2234 22.3144 29.1551 22.3144C29.0869 22.3144 29.0441 22.3536 29.0698 22.3927C29.0954 22.432 29.1467 22.4554 29.1979 22.432C29.2491 22.4084 29.2662 22.4712 29.2491 22.5652C29.2234 22.667 29.2063 22.7453 29.1979 22.7453C29.1893 22.7453 29.1722 22.808 29.1467 22.8785C29.1296 22.9568 29.1467 23.0039 29.1979 22.9804C29.2491 22.9568 29.2832 22.9804 29.2832 23.0196C29.2832 23.0587 29.2234 23.0979 29.1551 23.0979C29.0869 23.0979 29.0441 23.1371 29.0698 23.1762C29.0954 23.2154 29.1467 23.239 29.1979 23.2154C29.2491 23.1919 29.2662 23.2547 29.2491 23.3486C29.2234 23.4505 29.2063 23.5288 29.1979 23.5288C29.1893 23.5288 29.1722 23.5915 29.1467 23.662C29.1296 23.7403 29.1467 23.7874 29.1979 23.7639C29.2491 23.7403 29.2832 23.7639 29.2832 23.8031C29.2832 23.8422 29.2234 23.8814 29.1551 23.8814C29.0869 23.8814 29.0441 23.9206 29.0698 23.9597C29.0954 23.9989 29.1467 24.0225 29.1979 23.9989C29.2491 23.9754 29.2662 24.0381 29.2491 24.1321C29.2234 24.234 29.2063 24.3123 29.1979 24.3123C29.1893 24.3123 29.1722 24.375 29.1467 24.4455C29.1296 24.5239 29.1467 24.5709 29.1979 24.5474C29.2491 24.5239 29.2832 24.5474 29.2832 24.5866C29.2832 24.6257 29.2234 24.6649 29.1551 24.6649C29.0869 24.6649 29.0441 24.7041 29.0698 24.7432C29.0954 24.7824 29.1467 24.806 29.1979 24.7824C29.2491 24.7589 29.2662 24.8216 29.2491 24.9156C29.2234 25.0175 29.2063 25.0958 29.1979 25.0958C29.1893 25.0958 29.1722 25.1584 29.1467 25.229C29.1296 25.3074 29.1467 25.3544 29.1979 25.3309C29.2491 25.3074 29.2832 25.3309 29.2832 25.3701C29.2832 25.4093 29.2234 25.4484 29.1551 25.4484C29.0869 25.4484 29.0441 25.4876 29.0698 25.5267C29.0954 25.5659 29.1467 25.5895 29.1979 25.5659C29.2491 25.5425 29.2662 25.6051 29.2491 25.6991C29.2234 25.801 29.2063 25.8793 29.1979 25.8793C29.1893 25.8793 29.1722 25.942 29.1467 26.0125C29.1296 26.0909 29.1467 26.1379 29.1979 26.1143C29.2491 26.0909 29.2832 26.1143 29.2832 26.1535C29.2832 26.1928 29.2234 26.2319 29.1551 26.2319C29.0869 26.2319 29.0441 26.2711 29.0698 26.3102C29.0954 26.3494 29.1467 26.3729 29.1979 26.3494C29.2491 26.3259 29.2746 26.3807 29.2662 26.4669C29.2491 26.5531 29.1893 26.6237 29.1381 26.6237C29.0783 26.6237 29.0441 26.6628 29.0698 26.702C29.0954 26.7412 29.1637 26.7569 29.2149 26.7176C29.2889 26.6811 29.3031 26.6941 29.2576 26.7569C29.2149 26.8352 27.6184 26.8587 21.7532 26.8508C17.5102 26.8508 14.377 26.8195 14.4709 26.7803C14.5647 26.7412 17.809 26.702 28.7282 26.6628L21.8556 26.6393C18.0736 26.6237 14.7356 26.6393 14.4282 26.6628C14.0183 26.702 13.9074 26.7333 14.0013 26.7882C14.0866 26.8431 14.0354 26.8508 13.8306 26.8116C13.6683 26.7803 13.3952 26.749 13.233 26.7412C13.0707 26.7333 12.7036 26.702 12.4219 26.6707C12.1402 26.6314 11.5596 26.5218 11.1413 26.412C10.723 26.3024 10.0826 26.13 9.73262 26.0281C9.38258 25.9185 8.63129 25.6208 8.06783 25.3701C7.50436 25.1115 6.67624 24.6571 6.23229 24.3672C5.78835 24.0773 4.99437 23.4505 4.47359 22.9804C3.9528 22.5103 3.3552 21.907 3.15029 21.6485C2.94539 21.3899 2.62097 20.9669 2.43315 20.7082C2.25387 20.4497 1.8953 19.8699 1.65625 19.4155C1.40866 18.9611 1.13547 18.3813 1.04156 18.1227C0.947649 17.8642 0.819588 17.4724 0.742752 17.2609C0.674453 17.0415 0.554929 16.642 0.486631 16.3599C0.409794 16.0779 0.332958 15.694 0.307345 15.498C0.281734 15.3022 0.239046 14.9026 0.204897 14.597C0.179285 14.2915 0.110986 14.0251 0.0512243 14.0016C-0.00853737 13.9624 0.0170748 13.9154 0.128061 13.8527C0.247584 13.7901 0.256121 13.7744 0.153673 13.8057C0.0170748 13.8448 0 13.7978 0 13.4375C0 13.2181 0.0341496 12.9909 0.0768365 12.9517C0.128061 12.9125 0.187822 12.6304 0.221972 12.325C0.247584 12.0194 0.307345 11.5649 0.350032 11.3064C0.384182 11.0478 0.443944 10.7187 0.469556 10.5777C0.495168 10.4445 0.554929 10.3427 0.597617 10.3662C0.648841 10.3897 0.657379 10.3505 0.631766 10.2721C0.606153 10.1938 0.68299 9.84906 0.802514 9.50433C0.930574 9.1596 1.10986 8.67383 1.19523 8.42311C1.31476 8.10972 1.40013 7.99219 1.47697 8.03137C1.54527 8.07316 1.55949 8.06009 1.51965 7.99219C1.47697 7.93735 1.54527 7.71797 1.67332 7.49076C1.79285 7.26355 1.98921 6.92665 2.1002 6.74644C2.21118 6.5584 2.34777 6.42521 2.39046 6.44871C2.44169 6.47222 2.45022 6.43304 2.41608 6.35469C2.36486 6.245 2.37339 6.22933 2.47584 6.29202C2.56975 6.34686 2.58683 6.34686 2.54414 6.26851C2.50145 6.21367 2.58683 6.03346 2.75758 5.82191C2.9027 5.63388 3.06492 5.50069 3.11614 5.53202C3.16737 5.56336 3.1759 5.5477 3.13322 5.49286C3.09907 5.43017 3.19298 5.24997 3.37227 5.03843C3.53448 4.84255 3.71376 4.70153 3.75645 4.72503C3.80767 4.74854 3.83328 4.71719 3.82475 4.67019C3.80767 4.61535 3.85036 4.57617 3.91013 4.59184C3.96135 4.59967 4.00403 4.56049 3.99549 4.51348C3.97842 4.45864 4.02111 4.41947 4.08087 4.43513C4.1321 4.44297 4.17477 4.4273 4.17477 4.39596C4.16624 4.35678 4.16624 4.28628 4.17477 4.23927C4.17477 4.18442 4.226 4.15308 4.26869 4.17658C4.31991 4.20009 4.35407 4.17658 4.35407 4.13741C4.35407 4.09823 4.39675 4.07473 4.43944 4.09823C4.49066 4.12174 4.4992 4.0904 4.46505 4.01205C4.40529 3.9102 4.4309 3.90237 4.55896 3.94938C4.67848 4.00422 4.7041 3.98855 4.68703 3.90237C4.66994 3.83968 4.7041 3.79267 4.76386 3.80834C4.81508 3.81618 4.84924 3.80051 4.82362 3.76916C4.80655 3.72999 4.91753 3.58113 5.08828 3.43226C5.25049 3.28341 5.37855 3.19722 5.37855 3.2364C5.37855 3.27557 5.44684 3.22072 5.54929 3.10321C5.64321 2.97785 5.73712 2.89166 5.76273 2.90733C5.78835 2.91516 5.92494 2.82898 6.06153 2.71145C6.24083 2.5626 6.36035 2.50774 6.47134 2.54692C6.57379 2.58609 6.59939 2.57826 6.5567 2.50774C6.51403 2.4529 6.54817 2.37455 6.61646 2.31971C6.69331 2.26487 6.75307 2.24919 6.75307 2.2962C6.74738 2.34844 6.76729 2.34844 6.81283 2.2962C6.84698 2.25703 6.94943 2.16301 7.0348 2.10034C7.13725 2.02982 7.17994 2.02198 7.14579 2.08466C7.1031 2.15518 7.12872 2.16301 7.25677 2.10034C7.35069 2.06116 7.42752 1.98281 7.42752 1.94363C7.42752 1.90446 7.57266 1.79477 7.75194 1.70858C7.92269 1.63024 8.09343 1.58322 8.13612 1.61457C8.17028 1.64591 8.27272 1.59107 8.36663 1.49704C8.46055 1.39519 8.55445 1.31684 8.58007 1.31684C8.60567 1.31684 8.60567 1.35601 8.58007 1.39519C8.55445 1.43437 8.59714 1.45786 8.66543 1.43437C8.73374 1.41086 8.7935 1.34818 8.7935 1.30117C8.7935 1.24632 8.81058 1.22282 8.83619 1.262C8.8618 1.29333 8.93863 1.262 9.00694 1.19931C9.07524 1.13664 9.19476 1.09746 9.26305 1.12096C9.33135 1.14447 9.39112 1.11313 9.39112 1.06612C9.39112 1.01128 9.41673 0.987773 9.45088 1.01911C9.48503 1.05045 9.59601 1.02695 9.68993 0.972103C9.78384 0.909424 9.92897 0.878085 10.0143 0.893755C10.0912 0.909424 10.1595 0.88592 10.1595 0.846744C10.1595 0.794512 10.2164 0.794512 10.3302 0.846744C10.4241 0.88592 10.5095 0.90159 10.5095 0.862414C10.5181 0.831075 10.5181 0.784065 10.5095 0.744891C10.5095 0.713552 10.5351 0.705716 10.5863 0.729221C10.6376 0.752726 10.8254 0.744891 11.0132 0.705716C11.201 0.674376 11.3547 0.603863 11.3547 0.549018C11.3547 0.502008 11.423 0.439329 11.5084 0.42366C11.5852 0.407989 11.7304 0.431495 11.8243 0.478504C11.9523 0.533348 12.0121 0.525513 12.0804 0.431495C12.1316 0.36098 12.217 0.306136 12.2768 0.298301C12.328 0.298301 12.3621 0.337475 12.3365 0.376649C12.3109 0.415824 12.3963 0.478504 12.5329 0.502008C12.7036 0.541183 12.7976 0.517678 12.9171 0.384484C13.0281 0.251291 13.0964 0.235621 13.233 0.298301Z" fill="#FDF6FC"/>
<path d="M13.404 0.0947255C13.7114 0.0712207 13.976 0.0320462 13.9931 0.0163763C14.0187 0.000706477 21.0876 -0.00712844 29.7018 0.00854139C38.3247 0.0163763 45.4533 0.0555509 45.5473 0.0790557C45.6411 0.10256 45.9314 0.14957 46.1875 0.18091C46.4437 0.212249 46.9986 0.314103 47.4254 0.415958C47.8523 0.517811 48.4841 0.69018 48.8341 0.799868C49.1841 0.909557 49.7988 1.14461 50.2002 1.32481C50.6014 1.49717 51.1562 1.7714 51.438 1.9281C51.7197 2.07696 52.2918 2.4452 52.7187 2.7351C53.1454 3.01716 53.9139 3.65962 54.4261 4.14537C55.0067 4.69382 55.6128 5.37546 55.9969 5.9004C56.3385 6.37049 56.808 7.11481 57.0385 7.54573C57.269 7.97666 57.5764 8.66613 57.7216 9.07355C57.8666 9.48095 58.0545 10.0607 58.1399 10.3663C58.2252 10.6719 58.3618 11.4789 58.4472 12.1683C58.5838 13.3671 58.5838 13.4846 58.4472 14.7147C58.3618 15.4277 58.2082 16.3052 58.0971 16.6735C57.9862 17.0416 57.7899 17.6215 57.6704 17.9662C57.5507 18.3109 57.2605 18.9455 57.03 19.3765C56.808 19.8074 56.4153 20.442 56.1677 20.7867C55.9286 21.1315 55.4677 21.6956 55.1432 22.0403C54.8274 22.385 54.3236 22.8865 54.0248 23.1451C53.7346 23.4115 53.1967 23.8345 52.8466 24.0852C52.4966 24.3438 51.882 24.7355 51.4807 24.9549C51.0795 25.1743 50.4904 25.4642 50.1574 25.6052C49.8245 25.7384 49.4829 25.8795 49.3891 25.9187C49.2951 25.9578 48.911 26.0832 48.5353 26.1928C48.1596 26.3026 47.562 26.4592 47.212 26.5454C46.862 26.6237 46.1278 26.7335 45.5899 26.7883C44.9326 26.8431 42.0469 26.8823 29.2494 26.898L29.2408 0.141735L28.9847 0.1339C28.848 0.1339 25.3648 0.126065 21.2583 0.126065C17.1519 0.126065 13.6772 0.141735 13.5321 0.173075C13.3869 0.196579 13.0796 0.235755 12.8491 0.259259C12.61 0.282764 12.2685 0.321938 12.0807 0.345443C11.8929 0.368947 11.466 0.462967 11.1416 0.549151C10.8172 0.635335 10.3732 0.745024 10.1598 0.799868C9.94636 0.854713 9.50241 1.00358 9.17799 1.1211C8.85357 1.23862 8.38402 1.42667 8.1535 1.53635C7.91446 1.63821 7.49613 1.84975 7.21439 2.00644C6.93265 2.15531 6.35212 2.52355 5.93378 2.81345C5.50692 3.10334 4.78978 3.68312 4.3373 4.1062C3.87628 4.53713 3.32135 5.10907 3.09084 5.39113C2.86033 5.67319 2.5103 6.14328 2.3054 6.44884C2.1005 6.75441 1.79316 7.26368 1.61387 7.58491C1.44312 7.90614 1.15285 8.56428 0.973569 9.03437C0.802821 9.50446 0.606462 10.1077 0.538163 10.3663C0.469863 10.6249 0.38449 11.048 0.341803 11.3065C0.307654 11.5651 0.247902 12.0195 0.222289 12.3251C0.18814 12.6306 0.128378 12.9127 0.0771538 12.9518C0.0173921 13.0067 0.000307769 12.8735 0.0173825 12.5365C0.0344573 12.2702 0.0600694 12.0508 0.0856816 12.0508C0.111294 12.0508 0.15398 11.7766 0.196668 11.4476C0.230817 11.1106 0.299116 10.7267 0.341803 10.6014C0.38449 10.476 0.504013 10.0999 0.606462 9.77869C0.700373 9.45746 0.879658 8.94819 0.999181 8.64263C1.1187 8.33706 1.35775 7.8513 1.51997 7.54573C1.68218 7.24017 1.98952 6.7309 2.20295 6.40967C2.41639 6.08844 2.76642 5.61051 2.97985 5.35196C3.19329 5.0934 3.71406 4.55279 4.14094 4.14537C4.55927 3.7458 5.21664 3.19736 5.59229 2.93096C5.96794 2.65675 6.54847 2.28067 6.87289 2.08479C7.19732 1.89676 7.83763 1.57552 8.28157 1.37181C8.72551 1.17595 9.39996 0.925227 9.77561 0.807703C10.1512 0.698015 10.7403 0.533482 11.0733 0.447297C11.4148 0.368947 11.9526 0.267094 12.2685 0.220084C12.5929 0.18091 13.0967 0.126065 13.404 0.0947255Z" fill="#FDF6FC"/>
</g>
<defs>
<clipPath id="clip0_225_2281">
<rect width="58.5664" height="80.5874" fill="white"/>
</clipPath>
</defs>
</svg>
