<svg width="59" height="58" viewBox="0 0 59 58" fill="none" xmlns="http://www.w3.org/2000/svg">
<path d="M1.89648 45.1692C1.74335 38.1495 1.97305 35.7833 2.81528 35.0734C3.50437 34.4424 6.94984 34.127 12.7689 34.127C18.8941 34.127 21.8802 34.4424 22.5693 35.0734C23.1818 35.7833 23.4881 38.9382 23.4881 45.1692C23.4881 51.2162 23.1818 54.5552 22.5693 55.1862C21.9568 55.896 18.8941 56.2115 12.8454 56.2115C6.64357 56.2115 3.6575 55.896 2.96841 55.265C2.35588 54.5552 1.97305 51.2425 1.89648 45.1692Z" fill="#4D64B5" stroke="#4D64B5" stroke-width="1.31256"/>
<path d="M1.66669 6.52088L3.50427 4.54905C4.49963 3.44482 5.57155 2.57721 5.80125 2.57721C6.03095 2.57721 7.7154 4.07581 12.7688 9.28145L20.0425 2.26172L23.8708 6.52088L16.9799 13.6195L23.8708 20.7181L19.6597 25.0561L12.7688 17.9575L5.87782 25.0561L1.66669 20.7181L8.55762 13.6195L1.66669 6.52088Z" fill="#4D64B5" stroke="#4D64B5" stroke-width="1.31256"/>
<path d="M33.6713 5.65353C34.6667 4.23381 36.6574 2.65634 38.1121 2.10423C39.5669 1.55211 41.8639 1.07887 43.1655 1C44.5437 1 46.8407 1.47324 48.1423 2.02535C49.5205 2.65634 51.5877 4.23381 52.7362 5.57466C53.9613 6.99438 55.1098 9.43945 55.3395 11.0169C55.5692 12.6733 55.5692 15.2761 55.2629 16.7747C54.9567 18.3521 53.5019 20.7184 51.894 22.3747C50.0564 24.3202 48.1168 25.477 46.075 25.8451C44.3906 26.1606 41.7873 26.1606 40.3326 25.8451C38.8012 25.5296 36.5043 24.031 34.8964 22.3747C33.0077 20.4817 31.8848 18.4836 31.5275 16.3803C31.2212 14.6451 31.2212 12.0423 31.4509 10.6226C31.6806 9.28171 32.7525 6.99438 33.6713 5.65353Z" fill="#4D64B5" stroke="#4D64B5" stroke-width="1.31256"/>
<path d="M34.7433 43.1972C37.4997 38.4648 40.3326 33.8902 40.9451 33.1803C41.5577 32.3916 42.6296 31.7606 43.3187 31.7606C44.0078 31.6817 45.0797 32.3127 45.7688 33.1014C46.4579 33.8902 49.2908 38.4648 52.0472 43.1972C54.8036 48.0085 57.2537 52.4254 57.5599 53.0564C57.8662 53.6874 57.4834 54.8705 56.7943 55.6592C55.7224 56.8423 53.9613 57.0001 43.3187 57.0001C32.676 57.0001 30.9915 56.8423 29.9196 55.6592C29.3071 54.8705 28.9243 53.6874 29.2305 53.0564C29.5368 52.4254 31.9869 48.0085 34.7433 43.1972Z" fill="#4D64B5" stroke="#4D64B5" stroke-width="1.31256"/>
</svg>
