<svg width="801" height="822" viewBox="0 0 801 822" fill="currentColor" xmlns="http://www.w3.org/2000/svg">
<path d="M778.038 3.62695C782.844 5.97361 787.223 9.06643 790.32 12.373C792.752 15.1057 796.049 20.0474 800.303 29.3841C800.767 30.4015 801 31.5112 801 32.6292V767.758C801 768.97 800.725 770.166 800.195 771.256L797.369 777.066C795.02 781.866 791.922 786.24 788.611 789.333C785.875 791.762 780.926 795.057 771.575 799.306C770.559 799.768 769.452 800 768.337 800H32.7028C31.5619 800 30.4342 799.756 29.3954 799.284L25.0977 797.333C21.8938 795.84 19.2236 794.88 19.2236 795.2C19.2223 795.519 16.5531 793.172 13.2432 790.187C9.47245 786.522 6.38244 782.469 0.818121 771.262C0.277603 770.174 0 768.968 0 767.752V32.633C0 31.5125 0.235356 30.4046 0.690822 29.3809L2.99023 24.2129C4.59222 20.5864 8.11659 15.2538 10.6797 12.4805C13.7768 9.17384 18.156 5.97361 22.9619 3.62695L28.7848 0.802226C29.8731 0.274286 31.0669 0 32.2765 0H768.724C769.933 0 771.127 0.274286 772.215 0.802225L778.038 3.62695ZM341.627 371C337.221 371 333.644 374.563 333.627 378.97L333.147 506.243C332.638 632.044 332.469 641.792 329.582 648.188C327.884 651.996 324.147 657.326 321.091 660.067C317.864 663.113 312.26 666.007 307.166 667.378C302.411 668.596 294.089 669.511 288.485 669.511C281.353 669.511 275.749 668.445 269.806 665.855C265.051 663.876 259.107 660.22 256.39 657.936C253.503 655.499 248.069 648.949 243.993 643.314C239.918 637.528 236.183 632.96 235.333 632.958C234.654 632.958 220.049 640.421 202.728 649.711C185.406 659.001 170.801 667.073 170.122 667.683C169.443 668.292 171.651 673.166 175.217 678.648C178.613 684.131 187.614 694.031 195.086 700.885C202.558 707.586 213.596 715.81 219.709 718.856C225.822 722.055 236.012 726.319 242.635 728.146C249.258 730.126 259.447 732.563 265.561 733.324C271.674 734.238 284.58 735 294.43 735C304.279 735 317.525 734.087 324.147 732.868C330.77 731.65 340.28 729.517 345.375 727.842C350.47 726.319 359.13 722.663 364.564 719.77C369.999 716.876 378.49 710.631 383.584 706.062C388.678 701.493 395.471 693.574 398.867 688.548C402.264 683.522 407.018 673.927 409.565 667.226L413.508 656.349C413.821 655.484 413.983 654.572 413.986 653.652L414.971 379.029C414.987 374.599 411.401 371 406.971 371H341.627ZM600.761 370.114C595.746 369.815 585.551 370.114 578.196 370.862C570.842 371.461 559.643 373.406 553.124 375.201C546.605 376.847 536.242 380.736 529.724 383.728C522.369 387.318 513.677 393.153 505.988 400.184C496.628 408.411 492.282 413.797 487.268 423.371C483.59 430.103 479.746 439.677 478.743 444.613C477.573 449.55 476.738 460.62 476.905 469.297C476.905 477.973 478.242 489.044 479.579 493.98C480.916 498.917 485.095 508.342 488.605 514.924C493.118 523.152 498.467 529.883 505.821 536.615C511.671 542.001 522.035 549.631 528.888 553.819C535.741 557.858 544.767 562.795 548.945 564.739C553.124 566.534 567.666 572.519 581.539 578.054C595.245 583.439 612.461 590.47 619.481 593.611C626.669 596.902 635.695 601.989 639.372 605.131C643.216 608.123 647.729 613.209 649.4 616.351C651.406 619.791 652.576 625.028 652.576 630.562C652.576 635.499 651.239 641.633 649.567 645.073C647.896 648.364 643.55 653.151 639.873 655.844C636.363 658.387 628.841 661.977 623.325 663.623C615.637 666.016 609.285 666.765 596.582 666.765C583.545 666.765 577.527 666.016 569.003 663.323C562.986 661.379 554.963 658.088 550.951 655.844C547.107 653.6 539.752 647.915 534.737 643.277C529.723 638.49 523.873 632.207 521.7 629.365C519.694 626.523 517.354 624.129 516.519 624.129C515.849 624.13 503.815 630.114 489.942 637.443C475.902 644.774 461.695 652.253 458.185 654.198C454.798 656.165 453.692 660.55 455.852 663.817C460.834 671.351 464.758 676.236 467.712 679.48C471.556 683.669 477.574 689.503 481.251 692.794C484.928 695.935 491.614 701.022 496.294 704.163C500.807 707.155 509.833 712.092 516.352 714.935C522.87 717.777 532.899 721.666 538.916 723.312C544.933 725.107 555.464 727.5 562.317 728.697C571.176 730.343 583.378 730.791 604.104 730.492C627.671 730.193 636.028 729.445 646.726 726.902C654.08 725.107 667.285 720.47 675.977 716.58C687.844 711.195 694.697 706.856 703.723 698.928C712.581 690.999 717.262 685.314 722.443 675.74C726.789 668.111 730.466 658.387 731.971 651.506C733.308 645.073 734.478 636.097 734.479 631.609C734.479 627.121 733.643 618.145 732.64 611.862C731.637 605.43 728.962 595.855 726.789 590.47C724.449 585.084 720.103 577.455 717.095 573.267C714.086 569.228 707.234 561.898 701.718 556.961C696.369 552.174 687.009 545.442 680.991 541.852C674.974 538.411 664.444 532.726 657.591 529.435C650.738 526.143 637.533 520.609 628.34 517.168C619.147 513.727 604.438 507.893 595.746 504.153C587.055 500.563 576.358 495.028 572.012 492.036C567.666 489.044 562.484 484.107 560.812 481.265C558.974 478.422 556.968 473.037 556.3 469.297C555.631 464.809 556.132 460.171 557.804 455.085C559.308 450.896 562.986 445.511 565.994 442.818C569.003 440.126 574.351 436.984 577.694 435.787C581.372 434.441 589.061 433.394 595.245 433.394C601.597 433.394 609.954 434.291 614.133 435.638C618.311 436.835 624.663 440.126 628.34 442.818C632.017 445.661 637.7 451.345 640.876 455.534C644.72 460.77 647.562 463.014 649.233 462.416C650.571 461.967 664.778 454.038 680.657 444.913C696.535 435.639 709.572 427.86 709.573 427.41C709.573 426.961 706.565 422.623 702.888 417.687C699.378 412.75 691.689 404.671 686.173 399.734C680.49 394.798 671.296 388.216 665.446 385.074C659.763 381.933 649.401 377.893 642.548 375.799C635.695 373.854 625.498 371.91 619.982 371.461C614.467 371.012 605.775 370.264 600.761 370.114Z" fill="#4d64b5"/>
</svg>
