<svg width="1159" height="897" viewBox="0 0 1159 897" fill="none" xmlns="http://www.w3.org/2000/svg">
<path d="M519.985 10.2129C559.258 2.20831 599.742 2.20832 639.015 10.2129L809.844 45.0312C853.753 53.9809 895.078 72.7177 930.744 99.8477L1022.56 169.691C1068.89 204.93 1103.88 252.964 1123.22 307.862L1137.88 349.491C1160.45 413.567 1160.45 483.433 1137.88 547.509L1123.22 589.138C1103.88 644.036 1068.89 692.07 1022.56 727.309L930.744 797.152C895.078 824.282 853.753 843.019 809.844 851.969L639.015 886.787C599.742 894.792 559.258 894.792 519.985 886.787L349.156 851.969C305.247 843.019 263.922 824.282 228.256 797.152L136.438 727.309C90.1118 692.07 55.1196 644.036 35.7812 589.138L21.1172 547.509C-1.45394 483.433 -1.45394 413.567 21.1172 349.491L35.7812 307.862C55.1196 252.964 90.1117 204.93 136.438 169.691L228.256 99.8477C263.922 72.7177 305.247 53.9809 349.156 45.0312L519.985 10.2129Z" fill="#BA9FEA" fill-opacity="0.8" stroke="#E4DCF8" stroke-width="8"/>
</svg>
