<svg width="971" height="1066" viewBox="0 0 971 1066" fill="currentColor" xmlns="http://www.w3.org/2000/svg">
<path fill-rule="evenodd" clip-rule="evenodd" d="M379.34 954.957C400.433 954.957 403.546 955.966 412.882 965.048C423.256 975.139 423.256 975.812 423.256 1010.46C423.256 1029.97 424.639 1049.48 426.714 1054.19C430.172 1062.6 429.826 1062.6 412.882 1062.6C403.2 1062.6 395.592 1061.25 395.592 1059.23C395.592 1057.21 391.097 1058.22 385.218 1060.91C379.34 1063.6 369.312 1065.96 362.741 1065.96C356.171 1065.96 347.181 1064.28 342.685 1061.92C338.536 1059.9 333.349 1055.87 330.928 1052.84C328.507 1049.81 326.433 1041.4 326.433 1034C326.433 1026.6 328.507 1017.19 331.274 1013.15C333.694 1009.11 341.994 1004.07 349.255 1002.05C356.863 1000.37 369.312 997.339 377.265 995.321C386.602 993.303 392.134 989.939 392.134 986.912C392.134 984.221 389.022 980.521 385.218 978.503C381.415 976.484 375.882 975.139 373.115 975.139C370.349 975.139 365.162 978.166 361.704 981.866C358.246 986.239 351.676 988.594 344.414 988.594C338.536 988.594 332.657 987.248 331.62 985.23C330.582 983.212 330.582 978.839 331.62 975.139C332.657 971.439 338.536 965.384 344.414 961.684C353.059 956.638 362.05 954.957 378.994 954.957H379.34ZM362.05 1023.58C359.629 1025.59 357.555 1029.97 357.9 1033.33C357.9 1036.36 361.012 1040.39 364.816 1042.41C369.657 1044.77 374.153 1044.43 379.34 1042.08C383.835 1039.72 388.33 1036.36 389.714 1034.34C391.097 1032.32 392.48 1027.28 392.48 1023.24C392.48 1017.86 390.405 1015.5 386.256 1015.84C383.144 1016.18 377.265 1017.19 373.461 1017.86C369.657 1018.87 364.47 1021.22 362.05 1023.58Z" fill="#4d64b5"/>
<path fill-rule="evenodd" clip-rule="evenodd" d="M269.376 954.957C280.442 954.957 290.47 957.311 298.077 961.684C303.956 965.384 311.218 973.457 313.984 979.512C316.405 985.23 319.517 996.667 322.975 1018.87H286.666C252.778 1018.87 250.357 1019.2 250.357 1025.59C250.357 1029.29 254.507 1035.35 259.694 1039.05C265.227 1043.09 270.414 1046.11 271.797 1045.78C273.526 1045.78 277.675 1042.75 281.479 1039.05C285.283 1035.35 292.89 1032.32 298.769 1032.32C304.647 1032.32 311.563 1032.99 314.33 1034C318.825 1035.35 318.825 1036.69 314.33 1045.78C311.563 1051.16 304.647 1058.22 298.769 1060.91C292.89 1063.6 280.442 1065.96 271.105 1065.96C261.423 1065.96 249.32 1063.6 243.441 1060.91C237.563 1058.22 229.955 1050.82 226.151 1045.1C221.31 1037.03 219.235 1027.95 219.235 1013.15C219.235 1000.03 221.656 987.248 225.114 979.512C228.572 972.784 235.834 964.375 241.712 961.011C247.937 957.311 259.002 954.957 269.376 954.957ZM249.666 996.33C250.357 1001.04 254.161 1002.05 269.376 1002.05C285.974 1002.05 288.395 1001.38 288.395 995.321C288.395 991.621 285.283 985.566 281.479 981.866C277.675 978.166 272.488 975.139 270.068 975.139C267.301 975.139 261.769 978.503 257.273 982.875C252.778 987.248 249.32 993.303 249.666 996.33Z" fill="#4d64b5"/>
<path d="M547.052 948.229C546.014 939.82 548.089 936.793 559.846 930.065C567.454 925.356 574.716 921.656 576.445 921.656C577.828 921.32 578.865 929.729 578.865 939.82C578.865 957.984 578.865 958.32 589.239 958.32C598.576 958.32 599.613 959.33 599.613 968.412C599.613 977.494 598.576 978.503 578.865 978.503V1008.78C578.865 1029.29 580.248 1039.72 583.36 1041.4C585.435 1042.75 590.276 1043.42 593.734 1043.09C597.884 1042.75 599.959 1045.1 600.65 1052.84C600.996 1058.22 600.65 1063.6 599.959 1064.61C599.267 1065.29 590.622 1065.96 580.94 1065.96C567.454 1066.3 561.575 1064.61 556.388 1058.9C550.51 1052.84 549.472 1046.45 548.781 1015.17C547.743 980.857 547.398 978.503 540.827 978.503C536.217 978.503 534.488 980.185 535.64 983.548C536.678 986.239 534.949 989.267 532.182 990.276C529.416 991.285 522.846 991.958 517.659 991.958C511.78 991.621 504.864 988.257 500.369 983.548C495.874 978.839 489.995 975.139 487.229 975.139C484.462 975.139 478.93 978.166 475.126 981.866C471.322 985.566 467.172 993.639 466.135 999.358C465.098 1005.41 465.789 1016.85 467.864 1024.59C470.4 1034.23 474.434 1040.39 479.967 1043.09C487.229 1046.79 489.995 1046.45 497.257 1041.4C502.098 1038.38 506.248 1033.33 506.248 1030.64C506.248 1027.28 509.706 1025.59 517.659 1025.59C523.537 1025.59 531.145 1027.28 533.911 1028.96C538.407 1031.65 538.061 1033.67 532.182 1044.09C528.379 1050.49 520.425 1058.56 514.893 1061.25C507.631 1065.29 498.294 1066.3 483.079 1065.62C465.098 1064.61 460.256 1062.6 450.92 1054.19C445.041 1048.47 438.471 1038.04 436.742 1030.64C434.667 1023.24 433.976 1009.45 435.013 1000.37C436.051 990.948 439.509 980.185 442.275 975.812C445.041 971.775 452.649 965.384 458.873 961.684C466.481 956.975 476.163 954.957 489.649 954.957C506.939 954.957 511.435 956.302 533.911 975.139V966.73C533.911 960.675 535.64 958.32 540.827 958.32C546.36 958.32 547.743 956.302 547.052 948.229Z" fill="#4d64b5"/>
<path d="M710.268 1035.69V917.956H744.848V973.457C744.848 1012.81 743.465 1032.32 740.007 1039.72C737.586 1045.78 732.053 1053.85 727.558 1057.55C721.334 1062.93 715.109 1064.28 694.016 1064.28C669.118 1064.28 667.735 1063.94 658.053 1053.51C651.137 1045.78 648.025 1039.05 648.025 1030.64C648.025 1023.24 649.754 1018.19 653.212 1017.19C655.978 1016.18 663.24 1015.5 668.773 1015.5C677.417 1015.5 679.146 1016.85 679.146 1022.9C678.801 1027.28 682.259 1033.67 686.062 1037.37C692.287 1043.09 694.362 1043.42 710.268 1035.69Z" fill="#4d64b5"/>
<path fill-rule="evenodd" clip-rule="evenodd" d="M87.8321 917.956H134.515C169.095 917.956 183.964 919.301 191.571 923.001C197.45 925.692 204.366 932.756 207.132 938.138C209.899 943.52 212.319 953.275 212.319 959.329C212.319 965.048 209.553 974.803 206.095 980.184C202.637 985.566 194.684 992.63 177.394 1000.37L187.768 1010.46C193.3 1015.84 203.329 1029.29 210.245 1040.06C217.161 1050.49 222.693 1059.9 222.693 1060.91C222.693 1061.92 214.048 1062.6 184.656 1062.6L167.366 1037.37C158.029 1023.58 146.618 1009.79 142.468 1007.09C137.973 1004.4 131.748 1002.05 128.636 1002.05C123.104 1002.05 122.412 1005.75 122.412 1062.6H87.8321V917.956ZM122.412 978.503C150.422 978.503 162.524 976.484 167.366 974.13C172.898 971.439 176.356 966.73 177.048 960.675C177.394 954.284 175.319 949.911 170.132 946.547C165.291 943.52 154.225 941.502 142.468 941.502H122.412V978.503Z" fill="#4d64b5"/>
<path d="M771.474 932.084C774.586 927.711 781.848 921.992 787.727 919.638C793.605 916.947 807.437 914.929 818.503 914.592C829.222 914.592 843.4 916.611 849.624 918.965C855.503 921.656 864.148 928.047 868.643 933.429C872.793 938.811 876.597 946.548 876.251 950.584C876.251 957.311 874.522 958.321 862.419 958.321C851.699 958.321 846.166 955.966 838.213 948.229C832.68 942.847 824.727 938.138 820.923 938.138C817.12 938.138 810.204 939.484 805.362 941.502C800.521 943.52 796.717 947.557 796.717 950.584C796.372 953.948 798.446 958.321 800.867 960.675C803.288 962.693 814.699 967.066 826.11 970.094C837.522 973.457 852.391 978.503 858.961 981.866C866.223 985.23 873.139 991.958 876.251 999.021C879.017 1005.41 881.092 1016.51 880.746 1023.91C880.4 1031.31 877.288 1041.07 873.83 1045.78C870.027 1050.49 861.727 1056.88 855.157 1059.9C847.55 1063.94 835.447 1065.96 821.961 1065.96C809.858 1065.96 794.988 1063.94 789.11 1061.59C782.886 1058.9 774.241 1052.5 769.745 1047.12C765.25 1041.74 760.754 1033.67 759.717 1028.96C758.68 1023.58 759.717 1019.54 762.483 1018.19C765.25 1016.85 772.166 1015.5 777.699 1015.5C785.652 1015.5 789.456 1017.86 794.297 1025.59C797.409 1031.31 804.325 1037.37 809.858 1039.39C815.045 1041.07 822.998 1041.74 827.839 1040.73C832.68 1039.39 839.251 1036.02 842.708 1032.99C846.166 1029.97 848.933 1024.59 848.587 1021.22C848.587 1018.19 845.129 1013.82 840.979 1011.8C836.484 1009.45 825.419 1005.41 815.736 1002.72C806.4 1000.03 792.914 995.321 786.344 991.958C778.736 988.257 771.82 981.194 767.67 973.121C763.521 964.375 762.138 956.639 763.521 949.911C764.904 944.529 768.362 936.456 771.474 932.084Z" fill="#4d64b5"/>
<path fill-rule="evenodd" clip-rule="evenodd" d="M286.666 0C290.47 0 304.648 2.01822 317.788 4.70919C330.928 7.40016 353.059 14.8003 366.2 20.855C379.34 26.9097 399.742 38.0099 411.154 45.7464C422.565 53.1466 444.004 68.6196 485.5 100.575L505.556 84.429C516.276 75.6834 535.295 61.5558 547.744 52.8102C560.192 44.4009 582.669 30.9461 597.884 23.5459C613.099 16.1458 636.268 7.73653 649.754 4.70919C663.586 1.34548 681.221 -0.336371 691.25 0.672741C700.932 1.34548 714.764 5.38193 722.371 9.08201C729.979 12.7821 741.045 20.855 746.923 27.246C753.147 33.3007 761.101 44.4009 764.905 51.8011C768.708 59.2012 774.241 77.0289 777.353 91.1565C780.466 105.62 782.886 132.194 782.886 150.358C782.886 168.185 780.465 198.122 777.699 216.623C774.587 235.123 771.821 252.951 771.475 256.314C770.783 261.36 777.007 264.724 801.905 273.469C818.849 279.524 843.055 289.615 855.504 295.67C867.952 301.725 888.009 313.161 900.457 320.898C912.906 328.971 930.196 342.762 938.841 351.507C947.486 360.589 958.206 374.717 963.047 383.126C969.271 394.899 971 403.308 971 421.809C971 440.646 969.271 448.719 962.009 462.173C956.822 471.255 943.682 487.401 932.617 498.165C921.551 508.593 903.915 522.384 893.541 528.775C883.167 535.166 865.186 544.921 853.775 550.639C842.363 556.021 818.849 565.439 770.783 581.921L774.933 602.776C777.353 614.213 780.811 640.113 782.54 660.632C784.961 684.851 784.961 708.06 782.886 727.906C781.157 744.388 777.353 764.234 774.933 771.634C772.166 779.035 767.325 790.471 763.867 796.862C760.755 803.253 753.839 813.008 748.652 818.054C743.811 823.435 733.437 830.836 725.829 834.536C718.222 838.572 702.661 842.272 691.25 842.945C678.109 843.954 662.203 842.609 648.025 838.909C635.576 835.881 613.099 827.136 597.884 819.735C582.669 812.335 560.192 799.217 547.744 790.808C535.295 782.062 516.276 767.934 485.5 743.043L467.519 758.516C457.49 767.262 438.126 781.726 424.985 790.808C411.845 800.226 388.677 813.344 374.153 820.745C359.284 827.808 338.19 836.218 327.47 838.909C316.405 841.599 298.078 843.954 286.666 843.954C270.76 843.954 261.423 841.936 246.9 834.872C234.797 828.817 224.423 820.072 216.815 810.317C210.937 801.908 202.292 784.416 197.796 771.634C190.88 750.779 189.843 741.697 190.189 692.587C190.189 661.978 191.918 628.677 193.993 618.586C196.067 608.495 198.834 596.049 199.871 590.667C201.946 581.921 200.908 581.249 178.777 574.185C165.637 570.485 143.506 562.075 129.328 555.684C115.151 549.293 94.057 538.53 82.6457 531.802C71.2343 525.075 51.8697 510.611 39.7667 499.51C28.0096 488.074 13.8319 471.255 8.99074 462.173C1.72899 448.719 0 440.646 0 421.809C0 403.308 1.72899 394.899 7.95335 383.126C12.7945 374.717 23.5142 360.589 32.1592 351.507C40.8041 342.762 58.094 328.971 70.5427 320.898C82.9915 313.161 103.048 301.725 115.496 295.67C127.945 289.615 152.151 279.524 169.095 273.469C186.039 267.415 199.871 261.36 199.525 259.678C199.525 258.333 196.413 241.851 193.301 223.35C188.806 198.122 187.768 176.931 189.151 139.257C190.189 100.238 192.264 84.7654 197.451 70.3015C201.254 60.2104 208.862 45.0737 214.395 37.0008C219.927 28.9279 231.339 18.5004 239.984 13.7912C248.629 8.74564 261.077 4.03645 267.647 2.69097C274.218 1.34548 282.863 0.336371 286.666 0ZM247.937 73.6652C243.787 82.0745 238.255 100.911 236.18 115.712C234.105 130.512 233.413 153.049 234.451 166.167C235.488 179.286 238.255 201.15 240.329 214.941C242.058 228.732 244.825 242.187 246.208 244.541C248.283 248.578 254.853 247.905 284.937 242.187C304.994 238.487 331.966 234.114 345.106 232.769L368.966 230.078C398.705 193.75 417.032 171.885 429.135 158.431L450.92 134.212C417.378 107.302 399.051 93.8474 388.677 87.12C378.303 80.0562 362.05 70.6378 352.368 65.9287C343.031 61.5558 326.433 55.1648 316.059 52.1375C305.685 49.1101 292.545 46.7555 286.666 46.7555C280.788 46.7555 271.797 49.4465 265.918 52.8102C260.04 56.1739 252.087 65.5923 247.937 73.6652ZM599.613 75.347C587.165 82.7472 569.529 94.5202 559.846 101.92C550.51 108.984 537.715 119.748 531.491 125.466L520.426 135.894C551.202 169.867 569.529 191.059 580.94 204.85L602.034 230.078C639.034 234.114 666.006 238.487 686.063 242.187C706.119 245.887 722.717 248.242 723.409 247.905C723.755 247.232 726.521 233.441 729.633 216.623C733.437 195.431 734.82 172.895 733.783 140.939C732.745 99.9021 731.708 93.5111 723.063 76.0198C716.839 63.2377 710.268 55.1648 703.353 51.8011C697.82 49.1101 686.408 46.7555 678.455 47.0919C670.156 47.0919 654.249 50.4556 642.838 54.4921C631.427 58.8649 612.062 67.9469 599.613 75.347ZM461.294 193.413C448.845 207.541 438.471 220.323 438.126 222.005C437.434 223.687 457.49 225.032 485.5 225.032C530.454 225.032 533.566 224.696 530.799 219.314C529.071 215.95 517.659 203.168 505.556 190.722L483.771 168.185L461.294 193.413ZM393.518 281.206C388.677 286.251 374.845 306.434 363.088 325.943C350.985 345.116 334.041 375.053 325.05 392.208L309.143 423.491C337.844 476.974 355.826 507.583 367.583 526.084C379.34 544.584 391.443 562.748 394.209 566.448C399.051 572.839 403.2 573.176 485.5 573.176C567.454 573.176 571.949 572.839 576.791 566.448C579.903 562.748 592.006 543.575 604.454 524.402C616.557 504.892 634.539 474.283 644.221 456.119L661.857 423.491C630.043 362.271 609.641 327.961 596.155 308.116L571.949 272.124H402.163L393.518 281.206ZM263.152 296.006C262.46 297.352 266.264 312.825 271.797 330.652C276.984 348.144 283.208 362.608 284.937 362.608C287.012 362.608 288.395 361.599 288.395 360.253C288.395 358.908 294.965 346.125 303.265 332.334C311.218 318.543 321.592 301.388 325.741 294.661L333.349 281.879C321.246 282.551 306.031 285.242 291.162 288.27C276.638 291.297 264.189 294.661 263.152 296.006ZM668.081 332.334C676.035 346.125 682.605 358.908 682.605 360.253C682.605 361.599 683.988 362.608 685.371 362.608C686.754 362.608 692.979 348.144 699.203 329.98C705.427 311.816 709.577 296.006 707.848 294.997C706.465 293.988 691.941 290.624 675.689 287.597C659.782 284.57 644.221 281.879 641.455 281.879C637.997 281.879 639.034 285.242 644.913 294.661C649.408 301.388 659.782 318.543 668.081 332.334ZM122.412 344.444C106.506 352.18 87.4868 365.971 73.3091 379.426C59.4772 392.881 49.4491 405.327 48.0659 411.381C46.6827 417.1 46.6827 426.854 48.0659 433.245C49.7949 440.982 56.7108 451.073 68.4679 462.173C78.1503 471.592 97.8608 485.719 112.038 494.129C126.216 502.201 154.226 515.32 174.282 523.056C194.338 530.793 211.628 536.175 213.011 534.829C214.049 533.484 219.236 519.693 224.769 503.883C229.955 488.074 239.292 463.182 245.516 448.382L256.582 421.473C245.862 397.927 236.18 373.035 227.881 350.835C219.582 327.961 211.282 310.134 208.516 309.797C205.75 309.461 191.226 314.17 176.011 320.225C160.796 326.28 136.936 337.043 122.412 344.444ZM719.951 409.7C714.764 421.136 715.11 422.482 725.829 448.382C732.054 463.182 741.045 487.401 746.232 502.201C751.418 517.002 756.26 531.129 757.297 533.484C758.334 536.511 763.521 535.839 778.736 530.457C789.456 526.757 812.625 517.002 829.569 508.929C846.859 501.192 870.373 487.401 882.476 478.992C894.233 470.583 908.756 456.455 914.289 447.709C920.168 438.964 924.663 427.527 924.663 422.482C924.663 417.436 922.588 409.027 919.822 403.981C917.401 398.936 905.99 386.154 894.924 376.062C883.513 365.971 862.074 351.171 846.859 343.771C831.644 336.034 807.092 324.934 792.568 319.216C777.699 313.498 763.521 308.788 761.101 308.788C758.68 308.788 750.381 327.289 741.045 353.526C732.4 378.081 722.717 403.308 719.951 409.7ZM261.423 549.966C262.115 550.302 278.021 553.33 297.04 557.03C316.059 560.73 331.966 563.421 332.657 563.085C333.003 563.085 323.321 545.257 310.526 524.066C297.732 502.874 286.666 484.374 285.283 483.028C284.246 481.683 278.021 496.147 271.797 514.984C265.573 533.82 260.731 549.63 261.423 549.966ZM655.978 532.475C645.95 549.293 637.997 563.085 638.688 563.085C639.034 563.421 655.287 560.73 674.997 557.366C697.474 553.33 710.268 549.63 710.268 546.939C710.268 544.584 705.773 528.775 700.24 511.62C694.708 494.465 688.829 480.337 686.754 480.337C685.025 480.337 681.222 485.383 678.801 491.438C676.035 497.492 666.006 515.993 655.978 532.475ZM241.713 624.977C238.946 640.786 236.526 671.732 236.526 693.933C236.526 724.543 238.255 739.679 243.442 756.161C246.9 768.271 253.816 781.389 257.965 785.426C262.46 789.798 270.76 794.508 276.292 796.189C282.171 797.871 293.582 797.871 302.227 796.526C310.872 794.844 326.433 790.471 336.807 786.435C347.527 782.398 370.695 769.616 388.677 757.843C407.004 745.734 428.789 730.261 437.088 722.861L452.649 709.742C421.182 676.778 402.509 655.25 390.751 641.123C371.041 616.567 368.62 614.886 354.097 612.867C345.798 611.858 321.592 608.158 300.498 604.458C279.75 601.094 259.348 597.058 255.199 596.049C251.395 595.04 247.937 594.367 247.591 595.04C247.245 596.049 244.479 609.167 241.713 624.977ZM672.231 604.458C650.446 608.158 625.548 611.858 616.903 612.867C602.38 614.886 599.959 616.567 580.249 641.123C568.837 655.25 550.856 675.769 540.482 686.869C525.267 703.015 522.5 707.388 525.613 712.097C527.687 715.124 538.753 724.879 549.818 733.625C561.23 742.707 581.978 756.834 596.155 765.58C610.679 774.325 631.772 784.753 643.875 789.126C655.632 793.162 673.268 796.526 682.951 796.526C698.166 796.526 702.315 795.18 711.997 785.762C719.259 778.698 725.484 767.934 728.942 756.161C731.708 746.07 735.166 727.906 736.549 715.797C737.587 703.688 736.895 679.132 734.82 661.305C732.745 643.141 729.633 620.94 727.558 611.522C725.484 601.431 722.371 594.703 719.605 594.703C717.185 594.703 714.418 595.376 713.381 596.049C712.689 597.058 694.362 600.422 672.231 604.458ZM452.303 639.777C461.986 650.541 473.397 663.323 477.892 668.369L485.5 677.114C504.865 656.259 516.276 643.477 523.538 635.068L536.678 619.931H434.668L452.303 639.777Z" fill="#4d64b5"/>
<path d="M431.901 350.162C441.583 344.108 453.686 337.716 459.565 336.035C465.097 334.353 479.275 333.344 490.686 334.016C502.444 334.689 517.313 338.053 525.266 341.753C532.874 345.453 544.285 353.862 550.855 359.917C557.425 366.308 565.725 378.081 569.528 386.49C574.024 396.245 576.444 409.027 576.444 421.809C576.444 434.928 574.024 447.373 569.528 457.128C565.725 465.537 558.809 476.638 553.967 482.356C549.472 488.074 537.023 496.483 526.649 501.865C511.78 509.266 503.481 510.947 485.499 510.947C471.322 510.947 457.836 508.593 449.191 504.556C441.583 501.193 430.172 494.129 423.602 488.747C417.031 483.365 408.041 471.592 403.2 462.174C396.629 449.392 394.209 439.973 394.209 423.155C393.863 404.991 395.592 397.59 404.237 381.108C412.19 366.308 419.106 358.571 431.901 350.162Z" fill="#4d64b5"/>
</svg>
