<svg width="752" height="865" viewBox="0 0 752 865" fill="currentColor" xmlns="http://www.w3.org/2000/svg">
<path d="M467.744 819.797C462.981 811.917 462.48 806.663 461.728 765.73L460.976 720.2H501.333V760.695C501.333 783.023 502.587 803.599 503.84 806.663C505.344 809.728 509.355 813.23 513.365 814.544C517.125 815.857 523.893 816.295 528.405 815.638C532.666 814.981 539.184 811.917 542.693 808.852C548.96 803.38 548.96 803.161 548.96 720.2H586.56V838.403H571.52C558.485 838.403 556.229 837.746 555.227 834.025C554.475 831.399 551.968 829.647 548.96 829.647C546.203 829.647 538.432 832.712 531.413 836.214C523.058 840.592 515.538 842.781 508.853 842.781C501.834 842.781 494.816 840.592 486.042 835.558C477.77 831.18 471.003 825.269 467.744 819.797Z" fill="#4d64b5"/>
<path d="M704.373 720.199L723.925 719.762L723.675 719.543C734.453 719.324 743.728 719.324 744.48 719.762C745.232 719.98 743.477 722.388 740.469 725.234C737.712 727.861 727.685 739.681 718.661 751.283C709.387 763.103 701.867 773.61 701.867 774.923C701.867 776.237 708.133 786.306 715.904 797.251C723.675 808.414 733.451 821.767 737.211 826.802C741.221 832.055 744.48 836.652 744.48 837.309C744.48 837.965 735.205 838.403 703.12 838.403L689.333 819.359C681.813 808.633 673.792 800.096 671.787 800.096C669.781 800.096 662.261 808.633 641.707 838.403H601.6L621.653 812.136C632.683 797.688 642.709 783.46 644.213 780.396C646.469 775.58 644.715 772.297 628.421 751.939C618.645 739.243 608.619 726.766 606.613 724.358C602.853 719.98 603.104 719.981 647.973 720.199L658.501 736.179C664.016 744.716 670.533 753.253 672.789 754.566C676.048 756.974 677.552 756.536 681.061 752.158C683.568 749.312 689.835 740.994 704.373 720.199Z" fill="#4d64b5"/>
<path fill-rule="evenodd" clip-rule="evenodd" d="M228.106 718.01C240.89 718.01 250.165 719.324 256.933 722.169C262.448 724.358 270.469 728.955 274.48 732.457C278.741 735.96 284.005 743.183 286.512 748.656C289.52 755.004 290.773 762.665 289.52 782.584L245.653 783.898C221.589 784.555 201.536 785.211 201.034 785.43C200.784 785.649 200.533 788.057 200.533 790.684C200.533 793.529 202.789 799.002 205.546 802.723C208.304 806.663 214.57 811.479 219.333 813.23C224.096 814.981 231.866 816.513 236.378 816.513C240.64 816.513 249.413 814.543 255.68 811.917C261.946 809.509 269.466 807.757 272.725 807.757C275.984 807.757 280.245 810.384 283.253 814.324C286.01 817.827 288.266 821.767 288.266 823.08C288.266 824.394 280.746 828.334 271.472 832.274C261.946 835.995 252.421 839.935 250.165 841.03C247.658 841.905 239.136 842.781 231.365 842.781C223.344 842.781 215.824 841.905 214.32 840.811C212.816 839.716 207.802 837.746 203.04 836.433C198.277 835.119 189.754 830.96 184.49 827.02C179.226 823.08 172.208 815.419 169.2 809.946C165.941 804.474 162.682 795.062 161.68 789.151C160.677 783.022 160.677 773.172 161.429 767.262C162.432 760.695 166.442 751.501 171.205 744.497C177.472 735.084 182.485 730.925 194.266 725.234C207.552 718.886 211.562 718.01 228.106 718.01ZM204.544 751.501C200.533 756.317 199.781 758.287 202.037 761.352C204.293 764.197 209.306 765.292 227.104 765.729C245.152 766.386 249.914 765.73 252.672 763.103C254.176 761.133 255.178 757.412 254.426 754.566C253.674 751.939 251.168 747.999 248.912 745.81C246.405 743.621 239.386 741.432 233.12 740.775C226.352 740.119 219.333 740.775 215.824 742.527C212.565 744.059 207.301 748.218 204.544 751.501Z" fill="#4d64b5"/>
<path fill-rule="evenodd" clip-rule="evenodd" d="M8.02135 669.416L104.027 670.948L120.32 678.609C132.101 684.301 138.117 688.679 142.128 695.027C146.389 701.594 147.893 707.285 147.893 718.449C147.893 728.737 146.389 735.741 143.131 741.433C140.624 746.029 135.611 751.721 132.352 754.347C129.344 756.755 123.579 760.476 119.819 762.447C115.808 764.417 112.8 767.043 112.8 768.357C112.8 769.67 114.805 772.297 117.563 774.267C120.069 776.456 131.851 791.779 165.44 838.403H142.128C129.595 838.403 117.813 837.528 116.309 836.652C114.805 835.777 105.28 822.643 95.504 807.101C85.728 791.779 75.4507 778.207 72.6934 777.113C69.936 775.799 64.4214 774.924 60.16 774.924C55.1467 774.924 51.8045 776.383 50.1334 779.302C48.88 781.709 47.6267 795.938 47.6267 838.403H7.52002L8.02135 669.416ZM47.6267 723.483C47.6267 740.338 48.6293 744.935 52.1387 747.781C55.3973 750.407 59.9094 751.064 70.1867 750.407C77.9574 749.751 87.4827 747.999 91.4934 746.248C95.7547 744.497 100.768 740.119 102.773 736.398C104.779 732.896 106.533 725.672 106.533 720.637C106.533 713.195 105.28 710.13 98.512 704.22C90.992 697.872 88.4854 696.997 73.1947 696.34C59.9094 695.683 55.1467 696.34 51.888 699.186C48.128 702.25 47.376 706.628 47.6267 723.483Z" fill="#4d64b5"/>
<path fill-rule="evenodd" clip-rule="evenodd" d="M398.56 665.476H436.16V838.403H421.12C407.333 838.403 405.829 837.966 403.573 832.931C402.069 829.866 400.064 827.021 398.56 826.364C397.056 825.707 394.048 826.583 391.541 828.115C389.285 829.866 381.515 833.807 374.747 837.09C367.728 840.155 358.955 843 354.693 843C350.432 843 341.659 840.155 334.891 836.871C328.123 833.588 320.603 828.334 318.096 825.27C315.84 822.205 311.829 815.419 309.072 809.947C305.813 802.723 304.56 794.624 304.56 779.302C304.811 759.82 305.312 757.631 313.333 744.497C320.352 733.333 324.613 729.174 334.64 724.359C344.416 719.324 350.432 718.011 362.213 718.011C370.485 718.011 381.515 719.324 386.779 721.294C395.803 724.578 396.053 724.359 397.307 719.543C398.059 716.916 398.56 703.564 398.56 689.992V665.476ZM351.685 749.969C349.931 752.377 347.173 759.82 345.419 766.824C342.661 776.894 342.661 781.928 345.168 791.997C347.424 801.191 350.432 806.226 355.947 810.604C359.957 813.887 365.723 816.514 368.48 816.514C371.237 816.514 377.003 815.419 381.515 813.668C386.027 812.136 391.792 808.415 394.048 805.569C397.808 801.191 398.56 795.719 398.56 776.675C398.56 754.566 398.059 752.815 392.293 747.562C388.784 744.716 384.272 742.089 382.267 742.089C380.261 742.089 377.003 741.651 375.248 741.214C373.493 740.557 368.229 741.433 363.717 742.965C358.955 744.497 353.44 747.781 351.685 749.969Z" fill="#4d64b5"/>
<path d="M327.872 7.47529C333.637 6.8186 339.904 4.84854 341.157 3.09737C343.163 0.908417 350.683 0.0328343 369.483 0.0328343C387.28 -0.186061 395.552 0.689521 397.557 2.65958C399.312 4.19185 404.827 6.16191 410.091 7.0375C415.605 7.91308 428.891 12.5099 439.92 17.1067C450.949 21.9224 466.741 30.0215 475.013 35.4939C483.285 40.7474 495.317 50.5977 501.584 57.1646C508.101 63.7315 517.627 74.8951 522.891 82.1187C528.155 89.3423 535.925 102.257 540.437 110.575C544.949 118.893 550.965 133.34 553.723 142.315C556.731 151.29 560.741 168.145 562.747 179.527C565.003 190.91 566.256 200.541 566.005 200.979C565.504 201.198 556.229 199.228 525.648 191.567L522.389 177.338C520.384 169.458 516.875 156.762 514.117 148.882C511.36 141.002 503.84 125.241 497.323 113.859C487.296 96.5658 481.531 89.7801 462.731 73.144C449.696 61.7614 435.157 51.2544 428.64 48.6277C422.373 46.0009 410.091 42.2797 401.067 40.3096C389.035 37.6829 379.76 37.0262 365.973 38.1207C355.696 38.9963 336.896 42.4986 324.613 46.2198C312.331 49.941 297.04 55.4134 290.773 58.478C284.507 61.7614 272.976 69.8605 264.704 76.4274C256.683 83.2132 245.904 94.158 240.64 100.725C235.627 107.292 228.107 118.236 224.347 124.803C220.587 131.37 214.069 145.161 210.309 155.449C206.299 165.737 201.285 183.905 199.029 195.944C195.771 212.799 195.269 225.933 196.272 252.857C197.024 272.339 199.531 295.104 201.787 304.298C204.043 313.273 209.557 330.565 214.069 342.605C218.832 354.644 227.104 372.593 232.869 382.662C238.384 392.513 245.403 401.487 248.16 402.801C250.917 404.114 256.181 404.99 260.192 404.99C263.952 404.99 273.227 407.617 280.747 410.9C292.528 416.153 295.536 418.78 301.552 429.068C305.312 435.854 308.32 444.61 308.32 449.426C308.32 453.804 306.565 461.246 304.309 465.843C302.304 470.221 298.043 476.35 295.035 478.977C292.027 481.822 285.259 486.2 280.245 488.389C274.48 490.797 265.456 492.548 258.187 492.548C249.915 492.548 241.643 490.797 233.872 487.295C224.848 483.573 220.085 479.414 215.072 471.534C210.309 463.873 208.304 457.744 208.053 449.863C208.053 443.953 209.557 435.854 211.312 431.914C214.069 425.347 213.317 423.158 197.525 394.702C188.251 378.066 177.973 357.052 174.464 348.077C170.955 339.102 165.941 321.809 162.933 309.77C159.925 296.855 157.168 274.966 156.165 256.141C155.413 236.878 155.915 216.302 157.669 203.606C159.424 192.223 162.933 174.93 165.691 165.299C168.448 155.668 172.96 142.315 175.717 135.748C178.475 129.181 185.744 115.391 192.011 105.103C198.027 94.8147 210.059 78.6164 219.083 68.985C227.856 59.3536 242.896 46.4387 252.171 40.0907C261.696 33.9617 280.245 24.3303 293.28 18.8579C306.315 13.3855 321.856 8.13197 327.872 7.47529Z" fill="#4d64b5"/>
<path d="M282 217.396C285.76 211.924 292.779 205.576 299.045 202.511H298.795C306.816 198.352 313.083 197.039 323.861 197.039C333.136 197.039 341.659 198.571 347.675 201.198C352.939 203.606 360.459 208.64 372.24 220.461L406.08 221.774C424.629 222.65 453.456 225.276 470 227.684C486.544 230.092 510.357 235.127 522.64 238.848C534.923 242.569 555.979 249.793 569.013 255.265C582.048 260.737 603.605 271.463 616.64 278.906C629.675 286.567 650.48 301.014 662.763 311.083C675.045 321.153 691.589 337.351 699.861 346.982C708.133 356.614 720.416 374.344 727.184 386.384C733.952 398.423 741.221 414.183 743.227 421.407C745.232 428.63 748.24 434.76 749.493 435.197C750.997 435.416 752 446.799 752 462.997C752 478.101 751.248 490.797 749.995 491.235C748.992 491.672 747.488 496.926 746.485 502.617C745.483 508.527 739.717 521.661 733.952 531.949C727.184 543.988 717.909 555.59 708.133 564.565C699.861 572.226 685.824 582.733 676.8 587.768C667.776 593.021 652.987 600.245 643.461 603.966C634.187 607.687 616.891 612.722 604.608 615.348C585.557 619.289 577.536 619.726 541.44 618.851C509.355 617.975 495.568 616.662 480.027 612.941C468.997 610.314 453.707 605.717 446.187 602.871C438.416 599.807 433.403 596.742 434.907 595.867C436.411 594.991 443.68 589.738 451.2 584.265C458.72 578.793 466.491 573.758 467.995 572.883C469.749 572.007 479.525 573.758 489.301 576.823C499.328 579.887 517.125 584.046 528.907 585.798C542.693 588.205 557.733 589.081 571.52 588.205C583.301 587.768 600.597 585.141 610.373 582.514C620.149 580.106 633.435 575.072 640.453 571.569C647.221 568.067 659.003 560.624 666.523 554.714C673.792 548.804 684.32 538.078 689.835 530.855C695.099 523.631 702.368 510.06 705.877 500.866C709.888 489.265 711.893 478.539 711.893 468.032C711.893 458.619 709.637 445.266 706.629 435.635C703.872 426.66 697.355 411.338 691.84 401.706C686.576 392.075 676.549 377.847 669.781 369.966C663.013 362.086 647.723 347.639 635.691 337.789C623.909 327.72 604.859 314.367 593.328 307.8C582.048 301.452 566.507 293.353 558.987 290.069C551.467 286.786 535.424 280.657 523.141 276.717C511.109 272.558 489.803 266.867 475.515 263.802C461.477 260.737 436.411 257.235 419.867 255.922C397.557 253.952 387.28 253.952 380.261 255.922C374.078 257.527 369.399 260.664 366.224 265.334C363.467 269.274 356.949 274.747 351.685 277.374C346.421 280 337.648 282.846 332.133 283.503C326.619 284.378 317.344 283.94 311.328 282.627C305.563 281.314 297.291 277.592 293.029 274.309C288.517 270.807 283.003 264.459 280.496 260.081C277.488 254.827 275.733 247.166 275.733 239.067C275.733 229.873 277.488 224.182 282 217.396Z" fill="#4d64b5"/>
<path d="M66.176 330.784C73.1947 324.217 85.728 314.148 93.7493 308.238C102.021 302.328 108.789 297.731 109.291 298.169C109.541 298.606 112.048 306.706 120.32 333.849L98.2613 353.549C86.2293 364.275 71.9413 379.16 66.4267 386.384C61.1627 393.607 54.144 404.99 51.136 411.557C48.128 418.123 43.616 431.476 41.36 441.107C38.6027 452.709 37.8507 462.778 38.8533 470.658C39.856 477.225 42.112 488.17 44.368 494.737C46.3733 501.304 52.3893 513.562 57.4027 521.88C63.4187 531.949 72.192 541.581 83.2213 550.993C92.7467 558.435 104.027 566.316 108.288 568.286C112.8 570.475 124.581 574.415 134.107 577.261C143.632 580.106 161.931 583.39 174.213 584.703C190.005 586.235 203.541 586.235 219.333 584.484C231.616 583.171 248.661 580.544 256.933 578.793C265.205 576.823 280.997 572.445 292.027 568.943C303.056 565.44 320.603 558.436 330.88 553.401C341.157 548.585 359.707 538.516 372.24 531.074C384.523 523.631 404.075 509.841 415.605 500.209C427.387 490.578 442.176 476.787 448.693 469.564C455.211 462.34 464.736 450.52 469.749 443.296C474.763 436.073 478.773 428.193 478.773 425.785C478.773 423.377 476.016 416.372 472.507 410.462C468.747 404.114 466.24 395.796 466.24 390.761C466.24 385.508 468.997 377.19 473.008 370.185C478.021 361.867 483.035 356.833 490.053 353.33C497.573 349.39 503.84 348.077 515.621 348.077C526.4 348.077 534.672 349.39 541.44 352.455C547.707 355.3 554.224 360.773 558.987 367.121C565.253 375.877 566.507 379.817 566.507 390.761C566.507 401.706 565.253 405.646 558.987 414.183C552.971 422.501 548.208 426.004 535.675 431.038C520.885 436.948 519.632 438.043 507.6 456.43C500.581 466.937 488.048 483.573 479.776 493.424C471.253 503.055 454.208 519.472 442.176 529.76C429.893 540.048 408.587 555.152 394.8 563.032C381.013 571.131 357.952 582.514 343.413 588.424C328.875 594.553 308.069 601.777 297.04 604.841C286.011 607.906 267.461 612.284 255.68 614.473C240.389 617.318 223.845 618.413 196.773 618.413C168.699 618.413 154.16 617.318 139.12 614.254C127.84 611.846 108.037 605.279 94 599.15C74.6987 590.613 64.9227 584.484 51.136 572.664C38.352 561.5 30.5813 552.306 23.312 539.61C17.7973 529.979 11.7813 516.189 10.0267 508.965C8.272 501.742 5.264 494.299 3.50933 492.548C1.00267 490.14 0 481.603 0 463.435C0 447.455 1.00267 437.605 2.50667 437.167C4.01067 436.948 7.01867 429.725 9.024 421.407C11.28 412.87 17.296 398.204 22.3093 388.573C27.3227 378.941 36.5973 364.713 42.6133 356.833C48.6293 348.952 59.408 337.351 66.176 330.784Z" fill="#4d64b5"/>
</svg>
