<svg width="800" height="822" viewBox="0 0 800 822" fill="currentColor" xmlns="http://www.w3.org/2000/svg">
<path d="M399.3 0.0218542C698.9 -0.0781555 732.7 0.122694 739.2 1.52283C743.2 2.32299 751.2 5.32321 757 8.12342C766.4 12.6238 768.5 14.2239 777.1 22.8246C785.7 31.4253 787.3 33.5255 791.8 42.9262C794.6 48.7266 797.6 56.7275 798.4 60.7279C799.8 67.2285 800 101.132 800 400.161C800 692.29 799.8 733.294 798.5 738.995C797.6 742.595 796 747.995 794.8 750.995C793.6 753.996 790.8 759.596 788.6 763.296C786.2 767.297 781.1 773.397 776.5 777.898C772.1 782.098 765.8 787.199 762.5 789.099C759.2 790.999 754 793.6 751 794.8C748 796 742.6 797.6 739 798.5C733.3 799.8 692.299 800 400 800C107.701 800 66.7002 799.8 61 798.5C57.4001 797.6 52 796 49 794.8C46 793.6 40.8 790.999 37.5 789.099C34.2 787.199 27.6003 781.798 22.9004 777.098C18.2004 772.398 12.8004 765.797 10.9004 762.496C9.00041 759.196 6.40021 753.996 5.2002 750.995C4.00022 747.995 2.40001 742.595 1.5 738.995C0.2 733.294 1.14515e-07 692.29 0 400.161C0 101.132 0.199609 67.2285 1.59961 60.7279C2.39965 56.7275 5.40023 48.7267 8.2002 42.9262C12.7001 33.6255 14.4005 31.3253 22.9004 22.8246C31.1003 14.6239 33.9 12.5232 42 8.52283C47.2 5.92259 54.9 2.92234 59 1.92224C66.2 0.122077 78.5005 0.0218543 399.3 0.0218542ZM657 367.458C643.5 367.258 628.7 367.558 624 368.058C619.3 368.558 610.1 370.058 603.5 371.458C596.9 372.759 587.5 375.259 582.5 376.959C577.5 378.76 569.1 382.46 563.6 385.26C558.2 388.16 550.3 393.161 546.1 396.461C541.9 399.762 536 405.662 532.9 409.462C529.8 413.363 526 418.463 524.5 420.963C522.9 423.463 520.4 428.564 518.8 432.464C517.2 436.365 515 443.866 514 449.166C512.7 455.467 512 462.968 512 470.168C512 476.369 512.5 484.37 513.1 487.97C513.568 491.345 515.18 497.621 516.78 502.513L517.422 504.438C519.135 509.409 522.369 516.348 524.9 520.473C527.6 524.873 532.3 531.175 535.3 534.475C538.2 537.775 544.4 543.376 548.9 546.976C553.5 550.576 561.5 556.076 566.8 559.277C572.2 562.377 582.8 567.778 590.5 571.078C598.2 574.479 610.6 579.879 618 583.179C625.4 586.379 635.8 591.58 641 594.781C646.2 597.881 653.2 602.981 656.5 606.081C659.8 609.182 663.9 614.182 665.5 617.082C668.2 621.983 668.5 623.383 668.5 631.484C668.5 638.684 668.1 641.285 666.4 644.486C665.2 646.686 662 650.486 659.4 652.986C656.7 655.386 651.8 658.687 648.5 660.187C645.2 661.687 638 663.987 632.5 665.087C623.8 666.887 620.3 667.088 605.5 666.688C592.2 666.288 586.2 665.587 578 663.587C572.2 662.287 565 660.287 562 659.187C559 658.187 553.1 655.787 549 653.987C544.9 652.187 537.9 648.586 533.5 645.986C529.1 643.385 523.1 639.385 520.2 637.084C517.4 634.884 514.6 632.984 514 632.984C513.4 632.984 513 646.385 513 671.188L512.9 709.492C523.4 714.392 529.4 716.792 533 717.993C536.6 719.193 544 721.192 549.5 722.493C555 723.793 564.5 725.593 570.5 726.494C576.7 727.394 591.6 728.394 604.5 728.694C619.3 729.094 631.8 728.793 639.5 728.093C646.1 727.393 656.9 725.794 663.5 724.494C670.1 723.193 679.5 720.693 684.5 718.993C689.5 717.192 697.1 713.892 701.5 711.692C705.9 709.392 713.1 704.791 717.4 701.491C721.8 698.19 727.8 692.59 730.7 688.99C733.7 685.389 737.9 679.589 740 675.989C742.2 672.388 745.2 665.487 746.9 660.487C748.5 655.486 750.4 647.685 751.1 642.985C751.8 637.684 752.1 628.784 751.7 619.483C751.3 607.282 750.7 602.881 748.6 595.68C747.2 590.88 744.6 584.179 742.9 580.679C741.2 577.279 737.9 571.778 735.5 568.478C733.2 565.178 727.5 558.977 722.9 554.577C718.3 550.276 710.7 544.175 706 541.175C701.3 538.075 692.5 532.975 686.5 529.874C680.5 526.674 668.1 520.873 659 516.973C649.9 512.973 638.2 507.672 633 505.072C627.8 502.571 620.4 498.371 616.5 495.771C612.6 493.271 607.2 488.77 604.5 485.77C601.7 482.87 598.6 478.669 597.5 476.469C596 473.469 595.5 470.568 595.5 464.468C595.5 458.168 596 455.567 597.8 452.166C599 449.866 601.9 446.166 604.2 443.866C606.6 441.565 611.6 438.265 615.5 436.465C619.4 434.665 626.1 432.364 630.5 431.264C636.6 429.864 642.4 429.464 655 429.464C668.1 429.564 673.9 430.064 683 431.865C689.3 433.065 698.5 435.465 703.5 437.165C708.5 438.866 715.6 441.665 719.5 443.465C723.4 445.365 728.9 448.166 731.7 449.867L737 452.966V379.959C721.9 375.359 714.1 373.258 710 372.458C705.9 371.558 697.8 370.159 692 369.359C686 368.459 671.1 367.658 657 367.458ZM202 374.959V438.965H302V724.994L381.5 724.494L382 438.965H482V374.959H202Z" fill="#4d64b5"/>
</svg>
