<svg width="421" height="324" viewBox="0 0 421 324" fill="none" xmlns="http://www.w3.org/2000/svg">
<path d="M350.144 105C390.91 105 413.118 152.609 386.922 183.844L288.547 301.146C284.746 305.679 280.314 309.313 275.504 312.05C268.093 317.015 259.049 320 248.841 320H52.0913C11.3251 319.999 -10.8827 272.392 15.313 241.156L113.688 123.854C117.488 119.324 121.916 115.691 126.722 112.955C134.136 107.986 143.183 105 153.394 105H350.144Z" fill="#9055D2"/>
<path d="M350.144 105L350.144 101H350.144V105ZM386.922 183.844L383.858 181.274L383.858 181.274L386.922 183.844ZM288.547 301.146L291.612 303.717L291.612 303.717L288.547 301.146ZM275.504 312.05L273.526 308.573L273.4 308.645L273.278 308.726L275.504 312.05ZM52.0913 320L52.0913 324H52.0913V320ZM15.313 241.156L12.2481 238.586L12.2481 238.586L15.313 241.156ZM113.688 123.854L110.623 121.284L110.623 121.284L113.688 123.854ZM126.722 112.955L128.701 116.431L128.828 116.359L128.949 116.278L126.722 112.955ZM350.144 105L350.144 109C387.513 109 407.87 152.641 383.858 181.274L386.922 183.844L389.987 186.415C418.366 152.576 394.308 101 350.144 101L350.144 105ZM386.922 183.844L383.858 181.274L285.483 298.576L288.547 301.146L291.612 303.717L389.987 186.415L386.922 183.844ZM288.547 301.146L285.483 298.576C281.99 302.74 277.929 306.068 273.526 308.573L275.504 312.05L277.482 315.526C282.7 312.558 287.501 308.619 291.612 303.717L288.547 301.146ZM275.504 312.05L273.278 308.726C266.515 313.257 258.244 316 248.841 316V320V324C259.853 324 269.67 320.773 277.731 315.373L275.504 312.05ZM248.841 320V316H52.0913V320V324H248.841V320ZM52.0913 320L52.0913 316C14.7222 315.999 -5.6348 272.359 18.3779 243.726L15.313 241.156L12.2481 238.586C-16.1306 272.425 7.92792 323.999 52.0913 324L52.0913 320ZM15.313 241.156L18.3779 243.726L116.753 126.425L113.688 123.854L110.623 121.284L12.2481 238.586L15.313 241.156ZM113.688 123.854L116.753 126.425C120.243 122.263 124.302 118.935 128.701 116.431L126.722 112.955L124.743 109.479C119.529 112.447 114.732 116.385 110.623 121.284L113.688 123.854ZM126.722 112.955L128.949 116.278C135.713 111.744 143.987 109 153.394 109V105V101C142.379 101 132.558 104.229 124.495 109.632L126.722 112.955ZM153.394 105V109H350.144V105V101H153.394V105Z" fill="#FDF1D7"/>
<circle cx="54" cy="271" r="32" fill="#FDF6FC"/>
<path d="M54 271C58.42 271 62 267.42 62 263C62 258.58 58.42 255 54 255C49.58 255 46 258.58 46 263C46 267.42 49.58 271 54 271ZM54 275C48.66 275 38 277.68 38 283V287H70V283C70 277.68 59.34 275 54 275Z" fill="#381D58"/>
<g filter="url(#filter0_d_238_2489)">
<rect x="97" width="320" height="240" rx="4" fill="#FDF6FC"/>
<path d="M235 34.4535L244.888 40.7356L242.264 28.8956L251 20.9293L239.496 19.9019L235 8.7356L230.504 19.9019L219 20.9293L227.736 28.8956L225.112 40.7356L235 34.4535Z" fill="#F1A950"/>
<path d="M271 34.4535L280.888 40.7356L278.264 28.8956L287 20.9293L275.496 19.9019L271 8.7356L266.504 19.9019L255 20.9293L263.736 28.8956L261.112 40.7356L271 34.4535Z" fill="#F1A950"/>
<path d="M307 34.4535L316.888 40.7356L314.264 28.8956L323 20.9293L311.496 19.9019L307 8.7356L302.504 19.9019L291 20.9293L299.736 28.8956L297.112 40.7356L307 34.4535Z" fill="#F1A950"/>
<path d="M343 34.4535L352.888 40.7356L350.264 28.8956L359 20.9293L347.496 19.9019L343 8.7356L338.504 19.9019L327 20.9293L335.736 28.8956L333.112 40.7356L343 34.4535Z" fill="#F1A950"/>
<path d="M379 34.4535L388.888 40.7356L386.264 28.8956L395 20.9293L383.496 19.9019L379 8.7356L374.504 19.9019L363 20.9293L371.736 28.8956L369.112 40.7356L379 34.4535Z" fill="#F1A950"/>
<path d="M347 209.714C347.067 216.336 347.2 216.979 348.668 218.393C350.203 219.936 350.67 220 357.678 220C364.618 220 365.085 219.936 366.687 218.393C368.289 216.85 368.356 216.464 368.289 201.036L355.342 184.064H352.205C350.404 184 349.002 184.129 349.002 184.321C349.002 184.514 351.538 187.986 360.347 199.429H355.342C350.871 199.429 350.137 199.621 348.668 201.036C347.067 202.579 347 203.029 347 209.714Z" fill="#EA9FE1"/>
<path d="M373.761 209.907C373.761 216.336 373.895 216.979 375.363 218.393C376.898 219.936 377.365 220 384.372 220C391.313 220 391.78 219.936 393.382 218.393C394.983 216.85 395.05 216.464 394.983 201.036L381.703 184H375.029L387.042 199.429H382.704C380.301 199.429 377.699 199.75 376.898 200.2C376.03 200.586 375.029 201.357 374.562 201.936C374.028 202.579 373.761 205.407 373.761 209.907Z" fill="#EA9FE1"/>
<path d="M166 44.7143C165.934 51.3357 165.8 51.9786 164.332 53.3929C162.797 54.9357 162.33 55 155.323 55C148.382 55 147.915 54.9357 146.313 53.3929C144.712 51.85 144.645 51.4643 144.712 36.0357L157.658 19.0643H160.795C162.597 19 163.998 19.1286 163.998 19.3214C163.998 19.5143 161.462 22.9857 152.653 34.4286H157.658C162.13 34.4286 162.864 34.6214 164.332 36.0357C165.934 37.5786 166 38.0286 166 44.7143Z" fill="#EA9FE1"/>
<path d="M139.239 44.9071C139.239 51.3357 139.105 51.9786 137.637 53.3929C136.102 54.9357 135.635 55 128.628 55C121.687 55 121.22 54.9357 119.618 53.3929C118.017 51.85 117.95 51.4643 118.017 36.0357L131.297 19H137.971L125.958 34.4286H130.296C132.699 34.4286 135.301 34.75 136.102 35.2C136.97 35.5857 137.971 36.3571 138.438 36.9357C138.972 37.5786 139.239 40.4071 139.239 44.9071Z" fill="#EA9FE1"/>
</g>
<defs>
<filter id="filter0_d_238_2489" x="93" y="0" width="328" height="248" filterUnits="userSpaceOnUse" color-interpolation-filters="sRGB">
<feFlood flood-opacity="0" result="BackgroundImageFix"/>
<feColorMatrix in="SourceAlpha" type="matrix" values="0 0 0 0 0 0 0 0 0 0 0 0 0 0 0 0 0 0 127 0" result="hardAlpha"/>
<feOffset dy="4"/>
<feGaussianBlur stdDeviation="2"/>
<feComposite in2="hardAlpha" operator="out"/>
<feColorMatrix type="matrix" values="0 0 0 0 0 0 0 0 0 0 0 0 0 0 0 0 0 0 0.25 0"/>
<feBlend mode="normal" in2="BackgroundImageFix" result="effect1_dropShadow_238_2489"/>
<feBlend mode="normal" in="SourceGraphic" in2="effect1_dropShadow_238_2489" result="shape"/>
</filter>
</defs>
</svg>
