<svg width="209" height="183" viewBox="0 0 209 183" fill="none" xmlns="http://www.w3.org/2000/svg">
<path d="M205.137 94.6099C207.108 93.0071 207.105 89.9967 205.131 88.3979L176.393 65.1276C173.777 63.0088 169.873 64.8733 169.876 68.2403L169.925 114.839C169.928 118.206 173.836 120.063 176.449 117.939L205.137 94.6099Z" fill="#B940A7"/>
<path d="M93.0273 0C144.353 0.000174565 185.961 40.9661 185.961 91.5C185.961 142.034 144.353 183 93.0273 183C41.7012 183 0.0927734 142.034 0.0927734 91.5C0.0927734 40.9659 41.7012 0 93.0273 0ZM93.0264 18.2998C51.9656 18.3 18.6797 51.0729 18.6797 91.5C18.6797 131.927 51.9656 164.7 93.0264 164.7C134.087 164.7 167.374 131.927 167.374 91.5C167.374 51.0728 134.087 18.2998 93.0264 18.2998Z" fill="#B940A7"/>
<circle cx="93" cy="92" r="75" fill="#B12B9D"/>
</svg>
