<svg width="994" height="789" viewBox="0 0 994 789" fill="none" xmlns="http://www.w3.org/2000/svg">
<path d="M519.985 -43.7871C559.258 -51.7917 599.742 -51.7917 639.015 -43.7871L809.844 -8.96875C853.753 -0.0191403 895.078 18.7177 930.744 45.8477L1022.56 115.691C1068.89 150.93 1103.88 198.964 1123.22 253.862L1137.88 295.491C1160.45 359.567 1160.45 429.433 1137.88 493.509L1123.22 535.138C1103.88 590.036 1068.89 638.07 1022.56 673.309L930.744 743.152C895.078 770.282 853.753 789.019 809.844 797.969L639.015 832.787C599.742 840.792 559.258 840.792 519.985 832.787L349.156 797.969C305.247 789.019 263.922 770.282 228.256 743.152L136.438 673.309C90.1118 638.07 55.1196 590.036 35.7812 535.138L21.1172 493.509C-1.45394 429.433 -1.45395 359.567 21.1172 295.491L35.7812 253.862C55.1196 198.964 90.1117 150.93 136.438 115.691L228.256 45.8477C263.922 18.7177 305.247 -0.0191402 349.156 -8.96875L519.985 -43.7871Z" fill="#BA9FEA" fill-opacity="0.8" stroke="#E4DCF8" stroke-width="8"/>
</svg>
