<svg width="2037" height="865" viewBox="0 0 2037 865" fill="currentColor" xmlns="http://www.w3.org/2000/svg">
<path d="M347.103 52.1329C375.991 23.5153 391.89 9.31737 399.728 5.54605C408.014 1.33105 414.508 0 424.361 0C432.871 0 441.38 1.77474 447.875 4.65868C455.712 7.98632 501.172 51.6892 648.97 198.105C797.889 345.63 841.109 389.555 845.363 398.207C849.618 406.415 850.962 412.848 850.962 422.609C850.962 431.927 849.394 439.247 845.587 447.012C841.333 455.885 802.367 495.373 649.194 647.113C513.264 781.328 455.489 837.232 449.442 839.672C444.964 841.447 434.662 843 426.601 843C418.539 843 408.238 841.447 403.535 839.672C397.713 837.232 339.489 781.106 201.768 644.895C69.4206 513.786 7.16599 450.783 4.25481 444.793C1.56756 438.804 0 430.817 0 421.056C0 409.299 1.34362 403.531 5.3745 395.544C9.40537 387.78 46.8029 349.401 270.964 127.559L368.377 223.839L365.242 237.815C362.779 248.685 362.555 254.231 364.57 262.883C365.914 269.094 370.392 279.077 374.423 285.067C378.454 291.279 386.516 299.043 402.863 309.47L403.087 543.513L393.682 548.837C388.307 551.721 380.693 558.377 376.663 563.701C372.632 569.025 367.705 579.008 365.69 585.663C363.45 593.428 362.778 601.414 363.674 607.404C364.346 612.506 367.033 621.38 369.497 627.369C371.96 633.137 377.782 641.567 382.261 646.004C386.964 650.441 395.921 656.431 401.968 659.315C410.029 662.864 417.419 664.195 427.72 664.195C437.574 664.195 445.635 662.864 452.353 659.758C457.952 657.318 466.461 651.328 471.164 646.448C476.091 641.789 482.361 632.916 485.272 626.704C488.855 618.939 490.423 611.619 490.199 602.301C490.199 594.981 489.079 585.441 487.512 581.226C485.944 576.789 481.913 569.469 478.106 564.588C474.299 559.708 467.581 553.274 454.817 544.622L454.593 311.688L544.392 400.425L541.704 414.845C539.465 427.046 539.689 431.261 542.6 441.466C544.616 448.121 549.318 457.882 552.901 463.206C556.708 468.309 564.546 475.629 570.368 479.179C576.415 482.95 586.044 486.943 592.314 488.274C600.6 490.271 606.646 490.049 615.828 488.274C622.546 486.722 632.623 482.728 638.221 479.179C643.82 475.851 650.986 469.196 654.345 464.316C657.704 459.657 661.959 452.114 663.974 447.677C665.766 443.019 667.333 433.036 667.333 425.493C667.333 415.51 665.766 408.411 661.959 400.425C659.272 394.435 652.329 385.34 646.955 380.237C641.581 375.357 631.951 369.367 625.905 367.149C616.947 363.821 611.349 363.377 581.117 365.818L489.303 275.084V253.344C489.303 234.043 488.631 230.716 483.481 221.842C480.122 216.296 473.627 208.31 468.925 203.873C463.998 199.658 455.265 194.334 448.994 191.893C440.037 188.566 434.438 188.122 404.207 190.562L305.674 93.1737L347.103 52.1329Z" fill="#4d64b5"/>
<path d="M1489.18 240.699C1491.65 223.617 1493.66 209.419 1493.66 209.197V208.975C1493.66 208.753 1531.51 208.532 1661.62 208.532V379.35C1661.62 512.899 1662.29 550.834 1664.53 553.052C1665.87 554.605 1676.17 557.267 1687.37 558.82C1698.56 560.373 1709.31 561.926 1711.55 562.592C1714.91 563.479 1715.36 566.807 1715.36 625.595H1484.7V594.537C1484.7 564.145 1484.7 563.479 1489.63 562.37C1492.54 561.926 1503.29 560.151 1513.82 558.82C1524.34 557.489 1534.19 555.271 1535.76 553.94C1538 551.721 1538.67 525.322 1538.67 423.718C1538.67 304.146 1538.45 295.937 1534.64 292.61C1532.4 290.613 1520.98 285.733 1509.34 281.74C1497.69 277.746 1487.39 273.753 1486.5 273.088C1485.6 272.422 1486.94 257.781 1489.18 240.699Z" fill="#4d64b5"/>
<path fill-rule="evenodd" clip-rule="evenodd" d="M1229.42 207.866C1242.4 208.532 1261.66 210.307 1272.64 212.081C1286.74 214.3 1313.17 215.187 1446.64 215.187V282.849L1433.87 284.402C1426.7 285.289 1410.58 286.842 1397.82 287.729C1385.28 288.839 1374.98 290.17 1374.98 291.057C1374.98 292.166 1377.89 297.047 1381.47 302.149C1385.05 307.473 1389.98 316.125 1392.44 321.671C1394.68 327.217 1397.82 336.978 1399.38 343.19C1400.73 349.623 1401.85 362.712 1401.85 372.029C1401.85 381.569 1400.28 396.432 1398.26 404.862C1396.47 413.292 1391.32 427.49 1386.84 435.92C1381.69 445.681 1372.74 456.995 1363.33 466.312C1351.69 477.848 1343.18 483.838 1327.28 491.38C1316.08 496.927 1300.63 502.916 1293.24 504.691C1285.85 506.466 1271.74 509.128 1261.89 510.237C1252.03 511.568 1236.36 512.455 1227.18 512.455C1217.99 512.455 1202.77 511.346 1193.59 510.237C1184.4 509.128 1174.33 507.575 1171.19 506.688C1166.04 505.578 1164.47 507.353 1152.61 525.544C1145.66 536.636 1139.84 546.175 1139.84 546.841C1139.84 547.507 1149.69 548.394 1161.56 549.059C1173.66 549.725 1206.8 551.722 1235.01 553.718C1263.23 555.493 1298.61 558.377 1313.39 560.152C1328.17 561.926 1348.33 565.476 1358.18 567.916C1368.03 570.356 1382.14 575.237 1389.53 578.786C1396.92 582.558 1407.45 589.213 1412.82 593.872C1418.87 599.196 1425.36 607.848 1430.06 617.83C1435.66 629.366 1438.13 638.684 1439.92 653.325C1441.71 667.745 1441.71 678.171 1439.69 691.038C1438.35 700.799 1435.21 713.666 1432.97 719.878C1430.51 725.868 1425.36 735.85 1421.33 741.84C1417.52 747.83 1408.12 758.257 1400.73 765.134C1392.22 773.12 1379.68 781.55 1366.02 788.205C1354.37 794.195 1338.25 800.85 1330.19 803.069C1322.13 805.287 1306.67 809.058 1295.48 811.277C1279.13 814.383 1263.9 815.27 1214.86 815.27C1174.78 815.27 1147.68 814.161 1134.24 812.164C1123.27 810.611 1105.8 806.84 1095.5 803.956C1085.42 801.072 1071.09 795.526 1063.7 791.977C1056.31 788.427 1045.56 781.106 1039.96 775.782C1034.37 770.68 1026.75 760.475 1023.17 753.154C1018.69 744.059 1016.23 734.963 1015.33 724.315C1014.21 713.223 1014.88 704.571 1017.57 694.366C1019.59 686.38 1023.84 675.953 1026.75 671.073C1029.66 666.192 1037.73 655.987 1045.12 648.223C1052.28 640.458 1057.66 634.025 1056.98 633.803C1056.31 633.359 1051.61 630.476 1046.46 627.148C1040.86 623.598 1034.37 616.721 1030.78 610.51C1025.63 601.636 1024.51 597.421 1024.51 583.445C1024.51 570.356 1025.63 564.367 1029.89 555.715C1033.47 548.172 1045.34 534.64 1096.17 483.838L1081.62 474.299C1073.78 468.974 1062.81 459.213 1057.43 452.558C1052.28 445.903 1044.89 434.367 1041.31 427.046C1037.73 419.725 1033.25 405.306 1031.01 394.879C1028.1 380.681 1027.65 370.255 1028.54 352.729C1029.44 339.862 1031.46 323.89 1033.25 317.234C1035.26 310.579 1040.41 297.49 1045.12 288.395C1049.82 279.078 1059 265.989 1065.94 258.668C1072.66 251.569 1084.53 241.808 1092.37 237.149C1099.98 232.491 1112.07 226.057 1119.01 223.395C1126.18 220.511 1139.62 216.296 1148.8 214.3C1157.98 212.081 1174.55 209.641 1185.75 208.532C1196.94 207.644 1216.43 207.423 1229.42 207.866ZM1181.27 294.607C1176.34 296.825 1168.28 302.593 1163.13 307.473C1157.53 312.798 1152.38 321.006 1149.02 329.436C1145.66 338.531 1144.1 347.627 1144.1 358.275C1144.1 366.705 1144.77 376.688 1145.66 380.459C1146.56 384.009 1149.02 390.664 1151.04 394.879C1153.05 399.094 1159.32 406.415 1164.7 411.074C1170.07 415.732 1179.48 421.057 1185.75 423.053C1192.91 425.493 1204.11 426.824 1217.1 426.824C1230.09 426.824 1241.28 425.493 1248.45 423.275C1254.5 421.057 1264.13 415.954 1269.72 411.961C1275.32 407.746 1282.71 399.316 1286.52 392.439C1292.79 381.347 1293.24 378.907 1293.24 358.275C1293.24 339.419 1292.34 334.316 1287.64 324.112C1284.28 317.013 1278.01 308.583 1271.96 303.48C1266.14 298.6 1257.18 293.497 1250.69 291.501C1244.42 289.948 1233.89 287.951 1227.18 287.508C1220.46 286.842 1209.26 287.508 1202.54 288.617C1195.83 289.726 1186.2 292.61 1181.27 294.607ZM1111.62 692.148C1110.73 696.363 1111.4 703.683 1112.74 708.342C1114.09 713.001 1118.57 719.212 1122.82 722.762C1127.08 726.089 1135.81 730.526 1142.3 732.523C1149.02 734.741 1163.35 737.625 1174.55 738.956C1186.87 740.509 1207.47 740.953 1227.18 740.065C1245.09 739.4 1265.92 737.182 1273.76 735.407C1281.37 733.632 1291.45 730.083 1295.93 727.864C1300.63 725.424 1307.12 720.765 1310.48 717.216C1313.62 713.888 1317.42 707.455 1318.54 703.24C1319.89 699.025 1320.33 693.035 1319.66 689.929C1318.99 686.823 1316.75 682.608 1314.74 680.168C1312.72 677.95 1308.69 674.844 1305.55 673.291C1302.42 671.738 1293.46 669.298 1285.4 667.967C1277.34 666.636 1241.06 663.53 1204.78 661.09C1168.5 658.649 1136.93 656.653 1134.69 656.653C1132.45 656.653 1127.3 662.199 1121.93 670.629C1117 678.172 1112.3 687.933 1111.62 692.148Z" fill="#4d64b5"/>
<path d="M1550.77 7.98644C1555.69 5.54618 1562.86 2.88407 1566.44 1.9967C1570.02 0.887492 1582.79 0.443807 1594.43 0.66565C1611.9 1.33118 1617.95 2.44039 1628.02 7.09907C1634.74 10.2049 1643.25 16.1946 1646.84 20.4096C1650.42 24.4028 1655.57 32.1672 1658.03 37.7133C1661.84 45.9214 1662.73 52.133 1662.73 70.9896C1662.73 89.8462 1661.84 96.0577 1658.03 104.266C1655.57 109.812 1650.42 117.576 1646.84 121.791C1643.25 126.006 1635.64 131.552 1629.82 134.436C1623.77 137.32 1612.57 140.87 1604.51 141.979C1594.81 143.458 1585.1 143.458 1575.4 141.979C1567.34 140.87 1557.04 137.986 1552.56 135.546C1547.86 133.327 1540.91 128.89 1537.33 126.006C1533.75 122.901 1528.15 115.58 1525.24 109.59C1522.33 103.6 1518.97 92.2864 1517.62 84.3001C1516.06 74.5391 1516.06 65.4435 1517.62 56.5699C1518.97 49.2491 1521.88 39.2662 1524.12 34.3856C1526.58 29.5051 1531.51 22.628 1535.09 18.8567C1538.9 15.3072 1545.84 10.2049 1550.77 7.98644Z" fill="#4d64b5"/>
<path d="M1808.29 124.897C1811.43 114.027 1814.56 99.1636 1815.24 91.6209L1816.8 77.6449H1894.51V137.542C1894.51 188.788 1894.96 197.661 1897.87 198.549C1899.66 199.214 1926.98 199.658 2015.44 199.658V279.521H1894.51L1895.18 389.999C1895.63 479.401 1896.53 502.029 1899.21 509.128C1900.78 514.008 1905.48 520.885 1909.07 524.657C1912.87 528.206 1919.81 532.643 1924.74 533.974C1929.67 535.527 1941.76 536.858 1951.61 536.858C1963.48 536.858 1977.59 535.083 1993.04 531.312C2006.03 528.206 2016.56 525.766 2016.78 526.21C2016.78 526.653 2021.03 540.851 2026.41 557.933C2031.56 575.015 2036.26 590.766 2036.93 592.984C2037.61 596.09 2033.35 598.308 2014.76 605.407C2002.22 610.066 1983.41 616.056 1972.89 618.718C1962.36 621.38 1946.24 624.264 1937.06 625.595C1927.88 626.704 1912.2 627.591 1902.35 627.591C1892.49 627.813 1877.27 626.704 1868.76 625.595C1860.02 624.264 1847.04 621.38 1839.65 618.94C1832.26 616.499 1821.28 611.397 1815.24 607.404C1808.97 603.411 1800.46 595.646 1795.98 590.1C1791.5 584.554 1785.68 574.128 1782.77 566.807C1780.08 559.486 1776.72 549.059 1775.38 543.513C1773.81 537.524 1772.46 483.394 1770.22 280.63L1708.64 279.521L1709.76 207.866L1725.44 204.76C1734.17 202.986 1747.38 198.771 1755 194.999C1762.83 191.45 1774.03 183.907 1779.85 178.139C1785.9 172.15 1793.51 162.167 1796.65 155.955C1800.01 149.522 1805.16 135.546 1808.29 124.897Z" fill="#4d64b5"/>
</svg>
