<svg width="57" height="56" viewBox="0 0 57 56" fill="none" xmlns="http://www.w3.org/2000/svg">
<path d="M56.3334 15.5556H46.4984C44.9234 13.1289 42.7534 11.0444 40.1284 9.45778L45.8334 4.38667L40.8984 0L33.3034 6.75111C31.6934 6.40889 30.0484 6.22222 28.3334 6.22222C26.6184 6.22222 24.9734 6.40889 23.3984 6.75111L15.7684 0L10.8334 4.38667L16.5034 9.45778C13.9134 11.0444 11.7434 13.1289 10.1684 15.5556H0.333374V21.7778H7.64837C7.47337 22.8044 7.33337 23.8311 7.33337 24.8889V28H0.333374V34.2222H7.33337V37.3333C7.33337 38.3911 7.47337 39.4178 7.64837 40.4444H0.333374V46.6667H10.1684C13.8084 52.2356 20.5634 56 28.3334 56C36.1034 56 42.8584 52.2356 46.4984 46.6667H56.3334V40.4444H49.0184C49.1934 39.4178 49.3334 38.3911 49.3334 37.3333V34.2222H56.3334V28H49.3334V24.8889C49.3334 23.8311 49.1934 22.8044 49.0184 21.7778H56.3334V15.5556ZM35.3334 40.4444H21.3334V34.2222H35.3334V40.4444ZM35.3334 28H21.3334V21.7778H35.3334V28Z" fill="#4D64B5"/>
</svg>
