<svg width="59" height="66" viewBox="0 0 59 66" fill="currentColor" xmlns="http://www.w3.org/2000/svg">
<path d="M58.8608 0.85545C58.8608 1.04588 57.6957 14.084 56.2715 29.8262C54.8475 45.5684 53.6693 58.5938 53.6564 58.7588C53.6175 59.0381 53.0732 59.2032 41.8622 62.2753C35.4019 64.0527 30.0161 65.5 29.8867 65.5C29.7696 65.4998 24.3842 64.0653 17.9372 62.3007C11.4773 60.5362 6.16953 59.0637 6.13005 59.0254C6.10416 58.9873 4.9001 45.9365 3.46304 30.0166C2.026 14.0967 0.86084 0.94432 0.86084 0.791977V0.5H58.8608V0.85545ZM11.451 12.4336L11.5287 13.0429C11.5675 13.373 11.6581 14.6172 11.7359 15.7979C11.8135 16.9785 11.9042 18.248 11.943 18.5908L12.0077 19.2256L40.3863 19.0986C40.2697 19.6953 40.1273 21.333 39.9979 23.1231L39.7648 26.3858C38.1595 26.4873 32.1006 26.5762 25.2648 26.6397C18.4293 26.7158 12.8107 26.8047 12.7715 26.8554C12.7327 26.8936 12.8363 28.1885 13.0046 29.7373C13.1729 31.2861 13.3542 32.7714 13.3931 33.0381L13.4836 33.5078H39.1823C39.0787 34.1426 38.8197 36.3897 38.5349 38.9034C38.2503 41.4155 38.0045 43.4712 37.9912 43.4863C37.9653 43.4863 36.1787 43.9688 34.0037 44.5273C31.8287 45.0986 29.9644 45.5684 29.8608 45.5684C29.7572 45.5684 27.893 45.1114 25.718 44.5401C23.5432 43.9688 21.7567 43.4864 21.7435 43.4863C21.7175 43.4733 21.5881 42.1912 21.4457 40.6172C21.2904 39.0429 21.1479 37.6846 21.109 37.6083C21.0701 37.4814 20.2157 37.4434 17.4323 37.4434C14.0663 37.4434 13.8073 37.456 13.8073 37.6718C13.8073 37.7861 14.0404 40.376 14.3251 43.4101C14.6099 46.4437 14.8817 48.9697 14.9336 49.0088C14.9854 49.0468 18.3515 49.9863 22.4167 51.0908L29.7962 53.084C41.3314 49.9864 44.7233 49.0468 44.7881 49.0088C44.84 48.9699 45.1117 46.4438 45.3966 43.4101C45.6813 40.376 46.4063 32.4033 47.0148 25.7002C47.6104 18.9971 48.1413 13.2714 48.1801 12.9794L48.2448 12.4336H11.451Z" fill="#4D64B5"/>
</svg>
