<svg width="417" height="320" viewBox="0 0 417 320" fill="none" xmlns="http://www.w3.org/2000/svg">
<mask id="path-1-inside-1_238_2551" fill="white">
<path d="M346.144 105C386.91 105 409.118 152.608 382.922 183.844L284.547 301.146C280.745 305.679 276.314 309.313 271.504 312.049C264.092 317.014 255.049 320 244.841 320H48.0913C7.32502 319.999 -14.8827 272.392 11.3129 241.156L109.688 123.854C113.487 119.323 117.916 115.69 122.722 112.955C130.135 107.986 139.183 105 149.394 105H346.144Z"/>
</mask>
<path d="M346.144 105C386.91 105 409.118 152.608 382.922 183.844L284.547 301.146C280.745 305.679 276.314 309.313 271.504 312.049C264.092 317.014 255.049 320 244.841 320H48.0913C7.32502 319.999 -14.8827 272.392 11.3129 241.156L109.688 123.854C113.487 119.323 117.916 115.69 122.722 112.955C130.135 107.986 139.183 105 149.394 105H346.144Z" fill="#9055D2"/>
<path d="M346.144 105L346.144 96.9995H346.144V105ZM382.922 183.844L376.793 178.704L382.922 183.844ZM284.547 301.146L290.677 306.287H290.677L284.547 301.146ZM271.504 312.049L267.548 305.096L267.295 305.24L267.052 305.403L271.504 312.049ZM48.0913 320L48.0912 328H48.0913V320ZM11.3129 241.156L5.18322 236.015L5.1832 236.015L11.3129 241.156ZM109.688 123.854L103.558 118.713V118.713L109.688 123.854ZM122.722 112.955L126.68 119.907L126.933 119.763L127.176 119.6L122.722 112.955ZM346.144 105L346.144 113C380.116 113 398.623 152.674 376.793 178.704L382.922 183.844L389.052 188.985C419.614 152.543 393.705 96.9997 346.144 96.9995L346.144 105ZM382.922 183.844L376.793 178.704L278.418 296.005L284.547 301.146L290.677 306.287L389.052 188.985L382.922 183.844ZM284.547 301.146L278.418 296.005C275.235 299.8 271.543 302.823 267.548 305.096L271.504 312.049L275.46 319.003C281.085 315.802 286.256 311.558 290.677 306.287L284.547 301.146ZM271.504 312.049L267.052 305.403C260.938 309.498 253.44 312 244.841 312V320V328C256.657 328 267.247 324.53 275.957 318.696L271.504 312.049ZM244.841 320V312H48.0913V320V328H244.841V320ZM48.0913 320L48.0913 312C14.1193 311.999 -4.38698 272.326 17.4427 246.296L11.3129 241.156L5.1832 236.015C-25.3785 272.457 0.530694 327.999 48.0912 328L48.0913 320ZM11.3129 241.156L17.4426 246.296L115.818 128.995L109.688 123.854L103.558 118.713L5.18322 236.015L11.3129 241.156ZM109.688 123.854L115.818 128.995C118.999 125.202 122.688 122.179 126.68 119.907L122.722 112.955L118.765 106.002C113.143 109.202 107.976 113.445 103.558 118.713L109.688 123.854ZM122.722 112.955L127.176 119.6C133.291 115.502 140.791 113 149.394 113V105V96.9995C137.574 96.9995 126.98 100.47 118.268 106.309L122.722 112.955ZM149.394 105V113H346.144V105V96.9995H149.394V105Z" fill="#FDF1D7" mask="url(#path-1-inside-1_238_2551)"/>
<circle cx="50" cy="271" r="32" fill="#FDF6FC"/>
<path d="M50 271C54.42 271 58 267.42 58 263C58 258.58 54.42 255 50 255C45.58 255 42 258.58 42 263C42 267.42 45.58 271 50 271ZM50 275C44.66 275 34 277.68 34 283V287H66V283C66 277.68 55.34 275 50 275Z" fill="#381D58"/>
<g filter="url(#filter0_d_238_2551)">
<rect x="93" width="320" height="240" rx="4" fill="#FDF6FC"/>
</g>
<path d="M231 34.4532L240.888 40.7354L238.264 28.8954L247 20.929L235.496 19.9017L231 8.73535L226.504 19.9017L215 20.929L223.736 28.8954L221.112 40.7354L231 34.4532Z" fill="#F1A950"/>
<path d="M267 34.4532L276.888 40.7354L274.264 28.8954L283 20.929L271.496 19.9017L267 8.73535L262.504 19.9017L251 20.929L259.736 28.8954L257.112 40.7354L267 34.4532Z" fill="#F1A950"/>
<path d="M303 34.4532L312.888 40.7354L310.264 28.8954L319 20.929L307.496 19.9017L303 8.73535L298.504 19.9017L287 20.929L295.736 28.8954L293.112 40.7354L303 34.4532Z" fill="#F1A950"/>
<path d="M339 34.4532L348.888 40.7354L346.264 28.8954L355 20.929L343.496 19.9017L339 8.73535L334.504 19.9017L323 20.929L331.736 28.8954L329.112 40.7354L339 34.4532Z" fill="#F1A950"/>
<path d="M375 34.4532L384.888 40.7354L382.264 28.8954L391 20.929L379.496 19.9017L375 8.73535L370.504 19.9017L359 20.929L367.736 28.8954L365.112 40.7354L375 34.4532Z" fill="#F1A950"/>
<path d="M343 209.714C343.067 216.336 343.2 216.979 344.668 218.393C346.203 219.936 346.67 220 353.678 220C360.618 220 361.085 219.936 362.687 218.393C364.289 216.85 364.356 216.464 364.289 201.036L351.342 184.064H348.205C346.404 184 345.002 184.129 345.002 184.321C345.002 184.514 347.538 187.986 356.347 199.429H351.342C346.871 199.429 346.137 199.621 344.668 201.036C343.067 202.579 343 203.029 343 209.714Z" fill="#EA9FE1"/>
<path d="M369.761 209.907C369.761 216.336 369.895 216.979 371.363 218.393C372.898 219.936 373.365 220 380.372 220C387.313 220 387.78 219.936 389.382 218.393C390.983 216.85 391.05 216.464 390.983 201.036L377.703 184H371.029L383.042 199.429H378.704C376.301 199.429 373.699 199.75 372.898 200.2C372.03 200.586 371.029 201.357 370.562 201.936C370.028 202.579 369.761 205.407 369.761 209.907Z" fill="#EA9FE1"/>
<path d="M162 44.7143C161.934 51.3357 161.8 51.9786 160.332 53.3929C158.797 54.9357 158.33 55 151.322 55C144.382 55 143.915 54.9357 142.313 53.3929C140.711 51.85 140.645 51.4643 140.711 36.0357L153.658 19.0643H156.795C158.597 19 159.998 19.1286 159.998 19.3214C159.998 19.5143 157.462 22.9857 148.653 34.4286H153.658C158.13 34.4286 158.864 34.6214 160.332 36.0357C161.934 37.5786 162 38.0286 162 44.7143Z" fill="#EA9FE1"/>
<path d="M135.239 44.9071C135.239 51.3357 135.105 51.9786 133.637 53.3929C132.102 54.9357 131.635 55 124.628 55C117.687 55 117.22 54.9357 115.618 53.3929C114.017 51.85 113.95 51.4643 114.017 36.0357L127.297 19H133.971L121.958 34.4286H126.296C128.699 34.4286 131.301 34.75 132.102 35.2C132.97 35.5857 133.971 36.3571 134.438 36.9357C134.972 37.5786 135.239 40.4071 135.239 44.9071Z" fill="#EA9FE1"/>
<defs>
<filter id="filter0_d_238_2551" x="89" y="0" width="328" height="248" filterUnits="userSpaceOnUse" color-interpolation-filters="sRGB">
<feFlood flood-opacity="0" result="BackgroundImageFix"/>
<feColorMatrix in="SourceAlpha" type="matrix" values="0 0 0 0 0 0 0 0 0 0 0 0 0 0 0 0 0 0 127 0" result="hardAlpha"/>
<feOffset dy="4"/>
<feGaussianBlur stdDeviation="2"/>
<feComposite in2="hardAlpha" operator="out"/>
<feColorMatrix type="matrix" values="0 0 0 0 0 0 0 0 0 0 0 0 0 0 0 0 0 0 0.25 0"/>
<feBlend mode="normal" in2="BackgroundImageFix" result="effect1_dropShadow_238_2551"/>
<feBlend mode="normal" in="SourceGraphic" in2="effect1_dropShadow_238_2551" result="shape"/>
</filter>
</defs>
</svg>
