<svg width="1544" height="749" viewBox="0 0 1544 749" fill="none" xmlns="http://www.w3.org/2000/svg">
<path fill-rule="evenodd" clip-rule="evenodd" d="M1449.77 309.987C1452.23 309.951 1456.19 310.166 1458.59 310.453C1460.98 310.704 1463.87 311.135 1465.07 311.35C1466.27 311.565 1468.73 312.175 1470.56 312.641C1472.39 313.144 1475.15 313.969 1476.71 314.543C1478.28 315.081 1481.04 316.193 1482.87 317.054C1484.7 317.879 1487.46 319.278 1489.02 320.175C1490.58 321.036 1493.78 323.152 1496.17 324.874C1498.57 326.56 1502.22 329.61 1504.32 331.619C1506.42 333.592 1508.44 335.601 1508.81 336.031C1509.18 336.462 1509.58 336.82 1509.74 336.784C1509.87 336.784 1509.97 332.013 1509.97 315.619H1543.9V506.108H1509.97V495.525C1509.97 489.714 1509.91 484.943 1509.81 484.943C1509.71 484.943 1508.25 486.342 1506.55 488.028C1504.89 489.714 1502.42 491.974 1501.16 493.014C1499.9 494.055 1497.34 495.956 1495.51 497.283C1493.68 498.611 1490.32 500.691 1488.02 501.947C1485.73 503.202 1482.6 504.817 1481.04 505.498C1479.47 506.216 1476.35 507.364 1474.05 508.081C1471.76 508.799 1468.47 509.695 1466.74 510.054C1465.01 510.413 1461.41 510.987 1458.75 511.31C1456.09 511.597 1452.07 511.848 1449.77 511.848C1447.48 511.848 1443.59 511.597 1441.12 511.31C1438.66 510.987 1435.5 510.485 1434.14 510.198C1432.78 509.911 1430.68 509.409 1429.48 509.122C1428.29 508.799 1425.96 508.081 1424.33 507.471C1422.7 506.861 1420.24 505.893 1418.91 505.355C1417.61 504.781 1414.98 503.489 1413.12 502.485C1411.22 501.48 1408.43 499.83 1406.87 498.826C1405.3 497.821 1402.24 495.525 1400.05 493.768C1397.72 491.902 1394.09 488.458 1391.4 485.517C1388.54 482.396 1385.45 478.593 1383.38 475.616C1381.55 472.961 1379.29 469.409 1378.36 467.723C1377.43 466.037 1375.8 462.809 1374.7 460.549C1373.64 458.253 1372.61 455.921 1372.37 455.347C1372.17 454.737 1371.58 453.23 1371.08 451.939C1370.58 450.647 1369.68 447.921 1369.05 445.84C1368.45 443.76 1367.48 440.136 1366.95 437.769C1366.42 435.401 1365.75 431.921 1365.46 430.056C1365.16 428.191 1364.72 424.244 1364.46 421.267C1364.19 418.325 1363.96 413.231 1363.96 409.967C1363.96 406.702 1364.19 401.716 1364.49 398.846C1364.76 395.976 1365.39 391.635 1365.82 389.16C1366.29 386.685 1367.09 382.954 1367.62 380.837C1368.18 378.685 1369.31 374.918 1370.15 372.407C1370.98 369.86 1372.77 365.412 1374.1 362.434C1375.47 359.492 1377.5 355.439 1378.66 353.466C1379.82 351.493 1381.89 348.264 1383.25 346.291C1384.61 344.318 1387.11 341.089 1388.77 339.116C1390.43 337.143 1392.73 334.596 1393.93 333.412C1395.09 332.264 1397.49 330.148 1399.22 328.713C1400.95 327.314 1403.87 325.09 1405.7 323.798C1407.53 322.507 1411.19 320.283 1413.85 318.919C1416.51 317.52 1420.7 315.655 1423.16 314.758C1425.62 313.861 1428.92 312.821 1430.48 312.462C1432.04 312.067 1434.27 311.565 1435.47 311.35C1436.67 311.099 1439.36 310.704 1441.46 310.453C1443.55 310.202 1447.31 309.987 1449.77 309.987ZM1443.12 347.008C1441.56 347.331 1438.93 348.085 1437.3 348.694C1435.67 349.304 1432.68 350.668 1430.65 351.744C1428.62 352.856 1425.92 354.506 1424.66 355.439C1423.4 356.371 1421.2 358.093 1419.84 359.277C1418.47 360.425 1415.98 362.972 1414.35 364.909C1412.72 366.811 1410.22 370.111 1408.86 372.228C1407.5 374.344 1405.44 378.075 1404.34 380.55C1403.21 383.026 1401.74 386.721 1401.11 388.801C1400.45 390.882 1399.51 394.577 1399.02 397.052C1398.12 401.285 1398.08 402.003 1398.08 410.325C1398.08 417.823 1398.18 419.688 1398.78 423.061C1399.18 425.213 1399.88 428.37 1400.35 430.056C1400.78 431.742 1401.64 434.397 1402.21 435.975C1402.77 437.554 1403.94 440.28 1404.77 442.074C1405.6 443.867 1407.26 446.917 1408.5 448.854C1409.69 450.827 1411.82 453.804 1413.22 455.49C1414.62 457.176 1416.84 459.616 1418.21 460.907C1419.57 462.199 1421.73 464.1 1423 465.105C1424.26 466.109 1426.96 467.903 1428.98 469.122C1431.01 470.342 1433.91 471.813 1435.47 472.423C1437.03 473.033 1439.36 473.822 1440.63 474.181C1441.89 474.539 1444.25 475.077 1445.85 475.4C1447.74 475.759 1450.64 475.974 1453.93 475.974C1457.79 475.974 1459.98 475.795 1462.64 475.221C1464.64 474.826 1467.43 474.109 1468.9 473.642C1470.36 473.176 1473.06 472.064 1474.88 471.203C1476.71 470.342 1479.64 468.692 1481.37 467.508C1483.1 466.36 1485.96 464.172 1487.69 462.665C1489.42 461.158 1491.98 458.576 1493.34 456.925C1494.74 455.275 1496.4 453.194 1497.04 452.298C1497.7 451.401 1499.07 449.32 1500.06 447.634C1501.09 445.948 1502.72 442.719 1503.76 440.459C1504.75 438.199 1506.05 434.791 1506.62 432.926C1507.21 431.06 1507.98 428.226 1508.31 426.648C1508.64 425.07 1509.18 421.877 1509.44 419.581C1509.74 417.249 1509.97 413.841 1509.97 412.047C1509.97 410.218 1509.81 406.953 1509.61 404.765C1509.41 402.613 1508.98 399.205 1508.61 397.232C1508.25 395.258 1507.65 392.604 1507.28 391.312C1506.91 390.021 1506.25 387.833 1505.75 386.469C1505.29 385.106 1504.15 382.344 1503.26 380.371C1502.36 378.398 1500.76 375.42 1499.76 373.734C1498.73 372.048 1497.37 369.968 1496.7 369.071C1496.04 368.174 1494.77 366.524 1493.84 365.34C1492.95 364.192 1490.55 361.752 1488.52 359.959C1486.49 358.129 1483.67 355.833 1482.2 354.793C1480.74 353.789 1478.34 352.318 1476.88 351.564C1475.42 350.775 1472.96 349.663 1471.39 349.053C1469.83 348.479 1467.6 347.726 1466.4 347.439C1465.21 347.116 1462.98 346.614 1461.41 346.327C1459.58 345.968 1456.76 345.753 1453.43 345.789C1450.6 345.825 1447.74 345.968 1447.11 346.147C1446.48 346.291 1444.68 346.686 1443.12 347.008Z" fill="#E7E7E7"/>
<path d="M1146.43 316.528C1147.99 316.133 1150.82 315.595 1152.75 315.344C1154.68 315.093 1158.04 314.913 1160.23 314.877C1162.43 314.877 1165.72 315.093 1167.55 315.344C1169.38 315.595 1172.08 316.061 1173.54 316.384C1175 316.743 1177.16 317.281 1178.36 317.64C1179.56 317.998 1182.32 319.146 1184.52 320.151C1186.71 321.191 1189.77 322.841 1191.33 323.846C1192.9 324.85 1195.13 326.429 1196.32 327.326C1197.49 328.222 1199.88 330.411 1201.61 332.204C1203.31 333.998 1205.64 336.653 1206.73 338.123C1207.83 339.594 1209.53 342.141 1210.53 343.756C1211.49 345.406 1212.39 346.733 1212.52 346.733C1212.69 346.769 1213.22 346.087 1213.75 345.226C1214.32 344.365 1215.65 342.464 1216.75 340.993C1217.84 339.523 1220.17 336.796 1221.93 334.967C1223.66 333.101 1226.72 330.267 1228.75 328.617C1230.78 327.003 1234.04 324.707 1236.07 323.487C1238.1 322.303 1241.16 320.689 1242.89 319.9C1244.62 319.11 1247.84 317.927 1250.04 317.281C1252.23 316.671 1255.96 315.846 1258.35 315.487C1261.48 315.021 1264.11 314.877 1267.83 314.985C1270.66 315.057 1274.25 315.308 1275.82 315.523C1277.38 315.738 1280.37 316.384 1282.47 316.994C1284.56 317.568 1287.36 318.501 1288.62 319.003C1289.89 319.505 1291.92 320.438 1293.11 321.048C1294.31 321.622 1296.41 322.841 1297.77 323.702C1299.13 324.563 1301.63 326.393 1303.26 327.72C1304.89 329.083 1307.75 331.846 1309.58 333.89C1311.41 335.899 1313.6 338.554 1314.43 339.738C1315.3 340.922 1316.69 343.11 1317.56 344.581C1318.46 346.052 1319.89 348.814 1320.75 350.679C1321.62 352.545 1322.72 355.128 1323.21 356.419C1323.71 357.71 1324.54 360.114 1325.04 361.8C1325.58 363.486 1326.27 366.213 1326.67 367.899C1327.04 369.585 1327.57 372.311 1327.84 373.997C1328.14 375.683 1328.6 380.024 1328.87 383.683C1329.3 389.351 1329.37 399.073 1329.2 510.855H1295.61L1295.24 384.58L1294.51 381.531C1294.14 379.845 1293.41 377.441 1292.95 376.15C1292.48 374.858 1291.38 372.455 1290.55 370.768C1289.69 369.082 1288.32 366.822 1287.52 365.746C1286.69 364.67 1285.36 362.984 1284.5 362.051C1283.67 361.083 1282.14 359.612 1281.14 358.787C1280.14 357.962 1278.78 356.957 1278.15 356.527C1277.51 356.132 1276.15 355.307 1275.15 354.697C1274.15 354.123 1272.19 353.226 1270.83 352.688C1269.46 352.186 1267.14 351.504 1265.67 351.217C1264.21 350.894 1261.28 350.643 1259.19 350.643C1257.02 350.643 1254.13 350.895 1252.53 351.253C1250.97 351.576 1248.64 352.222 1247.38 352.724C1246.11 353.226 1244.09 354.195 1242.89 354.876C1241.69 355.594 1239.9 356.742 1238.9 357.459C1237.9 358.177 1235.97 359.863 1234.61 361.262C1233.28 362.661 1231.38 364.885 1230.42 366.284C1229.48 367.683 1228.09 370.015 1227.32 371.486C1226.59 372.957 1225.66 375.073 1225.29 376.15C1224.93 377.226 1224.26 379.414 1223.1 383.862L1222.77 510.855H1189.17L1189.01 447.897C1188.84 391.252 1188.74 384.688 1188.27 382.427C1187.97 381.028 1187.44 379.019 1187.08 377.943C1186.74 376.867 1186.01 374.93 1185.45 373.638C1184.91 372.347 1183.65 370.015 1182.65 368.437C1181.69 366.858 1180.19 364.742 1179.39 363.773C1178.56 362.769 1177.06 361.19 1176.03 360.258C1175.04 359.289 1173.47 357.997 1172.54 357.352C1171.64 356.67 1170.05 355.666 1169.05 355.092C1168.05 354.518 1165.96 353.549 1164.39 352.939C1162.83 352.329 1160.2 351.576 1158.57 351.253C1156.94 350.93 1154.21 350.679 1152.58 350.679C1150.96 350.679 1148.23 350.93 1146.6 351.253C1144.97 351.576 1142.54 352.222 1141.28 352.724C1140.01 353.226 1137.88 354.195 1136.62 354.876C1135.36 355.594 1133.16 356.993 1131.8 358.033C1130.43 359.074 1128.3 361.047 1127.11 362.41C1125.91 363.737 1124.25 365.818 1123.45 367.002C1122.65 368.186 1121.35 370.446 1120.59 372.024C1119.82 373.603 1118.92 375.791 1118.53 376.867C1118.16 377.943 1117.66 379.88 1117.36 381.172C1117.1 382.463 1116.76 384.221 1116.63 385.118C1116.5 386.015 1116.36 414.642 1116.33 510.855H1082.74L1082.57 320.545L1116.33 320.725V328.868C1116.33 333.316 1116.4 337.083 1116.5 337.191C1116.6 337.298 1117.56 336.258 1118.66 334.859C1119.76 333.46 1122.02 331.02 1123.65 329.442C1125.28 327.864 1127.84 325.711 1129.3 324.671C1130.77 323.595 1133.33 322.016 1134.96 321.119C1136.59 320.258 1139.21 319.003 1140.78 318.393C1142.34 317.783 1144.87 316.922 1146.43 316.528Z" fill="#E7E7E7"/>
<path fill-rule="evenodd" clip-rule="evenodd" d="M946.366 314.913C948.562 314.913 951.688 315.021 953.351 315.2C955.014 315.38 958.141 315.846 960.336 316.276C962.531 316.707 966.356 317.747 968.818 318.608C971.578 319.541 975.17 321.155 978.131 322.77C980.791 324.24 984.084 326.249 985.448 327.218C986.812 328.222 989.572 330.59 991.601 332.455C993.63 334.321 995.493 336.115 995.759 336.473C996.025 336.796 996.358 337.083 996.524 337.047C996.657 337.047 996.757 333.352 996.757 320.545H1030.35L1030.32 410.337C1030.28 459.699 1030.15 501.887 1030.02 504.039C1029.88 506.227 1029.52 509.671 1029.19 511.752C1028.89 513.833 1028.19 517.456 1027.66 519.824C1027.12 522.191 1026.43 524.846 1026.16 525.743C1025.86 526.64 1025.23 528.505 1024.76 529.868C1024.33 531.231 1023.63 533.097 1023.3 533.994C1022.93 534.891 1021.97 537.079 1021.14 538.837C1020.34 540.63 1018.78 543.68 1017.68 545.653C1016.58 547.626 1014.58 550.783 1013.29 552.72C1011.96 554.621 1010.46 556.702 1009.89 557.383C1009.33 558.029 1007.83 559.859 1006.57 561.401C1005.3 562.98 1002.71 565.67 1000.81 567.428C998.952 569.15 996.324 571.446 995.027 572.486C993.697 573.526 991.402 575.213 989.938 576.217C988.475 577.221 985.415 579.087 983.12 580.378C980.825 581.706 977.598 583.32 975.969 584.037C974.339 584.719 971.345 585.867 969.316 586.549C967.287 587.23 963.862 588.199 961.666 588.701C959.471 589.203 955.812 589.849 953.517 590.136C951.222 590.423 946.566 590.674 943.107 590.674C939.681 590.674 935.723 590.495 934.326 590.315C932.896 590.1 930.601 589.777 929.237 589.562C927.873 589.347 924.481 588.558 921.753 587.804C918.992 587.051 915.034 585.724 912.939 584.827C910.843 583.93 907.85 582.567 906.287 581.813C904.723 581.024 901.996 579.482 900.2 578.369C898.437 577.257 896.907 576.181 896.807 575.966C896.708 575.787 898.238 572.665 900.167 569.078C902.129 565.455 904.624 560.827 905.721 558.747C906.819 556.666 908.981 552.648 910.544 549.778C912.074 546.908 913.371 544.541 913.405 544.469C913.405 544.433 914.768 545.258 916.431 546.298C918.094 547.375 920.323 548.738 921.42 549.312C922.518 549.922 924.481 550.854 925.744 551.392C927.008 551.93 929.037 552.684 930.235 553.007C931.432 553.365 933.661 553.939 935.224 554.334C937.419 554.836 939.381 554.98 943.872 554.944C948.462 554.908 950.457 554.765 953.351 554.119C955.347 553.688 958.773 552.684 960.935 551.931C963.063 551.141 966.057 549.814 967.554 548.953C969.084 548.092 970.747 547.088 971.312 546.729C971.878 546.334 973.674 544.971 975.303 543.644C976.933 542.316 979.661 539.733 981.324 537.904C982.953 536.039 985.149 533.312 986.146 531.841C987.144 530.37 988.375 528.433 988.841 527.536C989.306 526.64 990.005 525.348 990.337 524.667C990.703 523.985 991.601 521.868 992.366 520.003C993.098 518.138 994.096 515.16 994.528 513.366C994.994 511.609 995.626 508.703 995.958 506.909C996.424 504.254 996.524 500.882 996.624 488.004C996.69 479.358 996.657 472.291 996.524 472.291C996.358 472.327 995.06 473.511 993.597 474.946C992.133 476.381 989.972 478.354 988.774 479.358C987.577 480.327 985.548 481.869 984.284 482.766C983.02 483.627 981.058 484.883 979.96 485.564C978.862 486.21 976.601 487.394 974.971 488.147C973.341 488.936 970.846 489.977 969.483 490.479C968.119 490.945 965.491 491.735 963.662 492.201C961.833 492.667 958.673 493.313 956.677 493.672C954.149 494.066 950.857 494.282 946.034 494.282C940.945 494.282 938.051 494.138 935.39 493.672C933.394 493.349 930.534 492.739 929.07 492.344C927.607 491.95 925.678 491.376 924.747 491.053C923.849 490.766 922.019 490.12 920.755 489.618C919.491 489.116 916.93 487.932 915.101 486.999C913.272 486.066 910.345 484.38 908.615 483.232C906.885 482.084 904.025 480.004 902.295 478.605C900.566 477.206 897.173 473.977 894.778 471.394C892.317 468.74 889.224 464.937 887.627 462.605C886.064 460.345 884.102 457.26 883.237 455.789C882.372 454.318 880.709 451.018 879.545 448.435C878.381 445.852 876.851 442.157 876.185 440.184C875.487 438.211 874.589 435.305 874.156 433.727C873.724 432.148 872.992 429.099 872.527 426.911C872.094 424.758 871.462 421.099 871.13 418.839C870.664 415.611 870.531 412.382 870.531 404.131C870.531 395.629 870.664 392.759 871.13 389.602C871.462 387.45 872.161 383.647 872.726 381.172C873.258 378.697 874.023 375.647 874.389 374.356C874.788 373.064 875.687 370.338 876.452 368.257C877.183 366.177 878.78 362.41 880.01 359.827C881.208 357.28 883.037 353.8 884.068 352.114C885.066 350.428 886.995 347.522 888.359 345.657C889.689 343.792 892.084 340.814 893.648 339.056C895.211 337.298 897.805 334.68 899.468 333.173C901.131 331.702 904.025 329.334 905.954 327.971C907.883 326.572 910.644 324.778 912.107 323.953C913.571 323.128 916.032 321.873 917.595 321.155C919.159 320.474 921.321 319.541 922.418 319.146C923.516 318.752 925.844 318.034 927.574 317.568C929.303 317.066 931.632 316.492 932.729 316.241C933.827 316.025 936.454 315.631 938.55 315.38C940.645 315.128 944.171 314.913 946.366 314.913ZM937.053 353.011C935.59 353.513 933.195 354.554 931.731 355.307C930.268 356.096 927.74 357.675 926.077 358.858C924.414 360.042 921.753 362.374 920.123 363.988C918.493 365.639 916.232 368.293 915.101 369.872C913.97 371.45 912.373 373.89 911.608 375.253C910.81 376.652 909.613 379.055 908.948 380.634C908.282 382.212 907.351 384.723 906.885 386.194C906.42 387.665 905.721 390.32 905.355 392.113C904.99 393.907 904.491 396.885 904.291 398.75C904.058 400.795 903.958 403.665 904.091 405.925C904.225 408.005 904.491 410.983 904.657 412.561C904.856 414.14 905.222 416.472 905.488 417.763C905.755 419.054 906.453 421.53 907.018 423.323C907.584 425.117 908.515 427.592 909.047 428.884C909.613 430.175 910.71 432.435 911.542 433.906C912.373 435.377 913.903 437.816 914.935 439.287C915.999 440.758 918.261 443.449 919.957 445.242C921.687 447 924.414 449.439 926.077 450.587C927.74 451.771 930.201 453.314 931.565 454.067C932.929 454.821 934.825 455.681 935.723 456.004C936.654 456.291 938.35 456.865 939.548 457.224C940.745 457.583 942.841 458.049 944.204 458.3C945.568 458.516 948.362 458.695 950.358 458.659C952.353 458.659 955.347 458.444 957.01 458.157C958.673 457.87 961.666 457.045 963.662 456.327C965.658 455.61 968.684 454.282 970.314 453.35C971.944 452.417 974.738 450.516 976.468 449.081C978.197 447.682 980.758 445.278 982.155 443.736C983.552 442.157 985.481 439.682 986.479 438.211C987.51 436.74 988.841 434.552 989.506 433.368C990.171 432.184 991.302 429.781 992.034 427.987C992.765 426.193 993.83 423.144 994.362 421.171C994.927 419.198 995.659 416.041 995.958 414.176C996.324 411.951 996.524 408.83 996.524 405.207C996.524 401.62 996.324 398.32 995.958 395.88C995.626 393.799 995.127 391.216 994.861 390.14C994.595 389.064 994.063 387.199 993.697 386.015C993.364 384.831 992.1 381.782 990.936 379.199C989.606 376.293 987.81 373.1 986.18 370.769C984.75 368.688 982.222 365.639 980.592 363.988C978.962 362.338 976.201 359.971 974.472 358.715C972.742 357.495 970.181 355.881 968.818 355.163C967.454 354.482 965.126 353.477 963.662 352.975C962.199 352.473 959.504 351.755 957.675 351.361C955.38 350.895 953.052 350.679 950.191 350.715C947.73 350.751 944.736 351.038 942.874 351.397C941.144 351.755 938.517 352.473 937.053 353.011Z" fill="#E7E7E7"/>
<path d="M787.378 510.855L787.212 320.545L820.972 320.725V510.855H787.378Z" fill="#E7E7E7"/>
<path d="M798.022 238.072C799.286 237.677 800.783 237.283 801.348 237.211C801.914 237.103 803.61 237.067 805.173 237.175C806.736 237.247 808.898 237.57 809.996 237.892C811.094 238.215 812.956 238.969 814.12 239.614C815.284 240.224 817.081 241.444 818.078 242.341C819.11 243.238 820.673 244.924 821.538 246.107C822.436 247.291 823.6 249.228 824.099 250.412C824.631 251.596 825.23 253.21 825.429 254C825.629 254.789 825.961 256.726 826.128 258.305C826.327 260.17 826.327 262.179 826.094 264.044C825.895 265.623 825.296 268.134 824.731 269.605C824.198 271.076 823.034 273.336 822.203 274.591C821.338 275.883 819.974 277.533 819.143 278.322C818.311 279.075 816.681 280.331 815.484 281.12C814.287 281.874 812.424 282.842 811.326 283.273C809.896 283.811 808.2 284.062 805.339 284.205C802.279 284.349 800.849 284.277 799.186 283.811C797.989 283.488 795.96 282.663 794.696 281.981C793.432 281.3 791.536 280.044 790.538 279.183C789.54 278.322 788.01 276.672 787.146 275.524C786.314 274.34 785.15 272.367 784.585 271.111C784.019 269.892 783.321 267.883 783.021 266.627C782.655 265.228 782.456 262.968 782.456 260.457C782.489 257.408 782.655 255.937 783.221 254C783.62 252.601 784.385 250.592 784.95 249.515C785.516 248.439 786.514 246.825 787.179 245.964C787.844 245.067 788.909 243.812 789.54 243.166C790.172 242.52 791.835 241.265 793.199 240.368C794.563 239.507 796.758 238.431 798.022 238.072Z" fill="#E7E7E7"/>
<path d="M603.012 369.334C602.979 291.488 603.012 227.597 603.112 227.346C603.245 226.987 617.415 226.915 743.141 227.094V262.609L636.872 262.789V340.276H677.617C700.035 340.276 718.362 340.384 718.395 340.527C718.395 340.706 718.462 348.67 718.528 375.791L637.039 375.97L636.872 511.035L603.112 510.855L603.012 369.334Z" fill="#E7E7E7"/>
<path d="M104.986 499.688C107.214 499.397 109.105 499.179 109.172 499.106C109.24 499.106 136.381 499.106 169.599 499.251C202.749 499.324 230.295 499.543 230.768 499.761C231.375 500.052 231.51 514.252 231.308 568.429C231.173 605.931 230.903 638.117 230.633 639.937C230.363 641.757 229.687 645.69 229.147 648.675C228.54 651.661 226.717 658.579 225.029 663.967C223.408 669.356 220.505 676.929 218.615 680.715C216.792 684.502 213.956 689.745 212.336 692.366C210.716 694.988 207.002 700.231 204.099 704.017C201.196 707.804 196.065 713.484 192.757 716.615C189.381 719.746 183.912 724.261 180.604 726.737C177.295 729.14 171.624 732.708 168.113 734.601C164.603 736.495 159.404 738.898 156.636 739.917C153.868 740.937 149.007 742.611 145.833 743.631C142.66 744.65 137.664 745.815 134.693 746.252C131.723 746.689 127.334 747.199 124.904 747.417C122.473 747.709 120.042 748 119.502 748.146C118.962 748.218 118.49 748.364 118.49 748.437C118.49 748.51 117.342 748.728 115.991 748.874C114.101 749.092 113.561 748.947 113.898 748.291C114.169 747.709 113.831 747.781 113.088 748.437C112.346 749.092 112.008 749.165 112.278 748.655C112.616 747.927 111.941 747.709 109.713 747.709C108.025 747.709 106.472 747.636 106.202 747.49C105.864 747.345 103.366 746.98 100.598 746.689C97.8298 746.398 93.1038 745.524 90.1331 744.723C87.1624 743.922 81.5586 742.174 77.6427 740.791C73.7268 739.407 67.5154 736.567 63.8021 734.528C60.0887 732.49 55.0926 729.431 52.662 727.684C50.2315 726.009 46.5856 723.169 44.5602 721.421C42.5347 719.673 38.6188 715.96 35.8507 713.12C33.1501 710.353 29.0316 705.547 26.8036 702.561C24.5756 699.576 21.1323 694.478 19.1744 691.274C17.2839 688.07 14.3133 682.536 12.6254 678.895C11.005 675.327 8.70949 669.429 7.56173 665.788C6.41396 662.22 4.86111 656.758 4.11844 653.773C3.37577 650.787 2.43055 645.18 2.02546 641.393C1.62037 637.607 1.01273 633.529 0.607639 632.291C0.270062 631.126 0 626.611 0 622.315C0 617.509 0.270062 614.451 0.675154 614.451C1.08025 614.451 1.35031 613.067 1.35031 611.392C1.35031 609.644 1.7554 605.639 2.29552 602.435C2.83565 599.231 3.78086 594.644 4.3885 592.241C4.99614 589.838 6.41396 584.959 7.56173 581.318C8.70949 577.75 11.14 571.487 12.963 567.482C14.8534 563.477 18.4317 556.924 20.9298 552.919C23.4954 548.914 28.2214 542.578 31.5297 538.792C34.7704 535.005 39.7666 529.908 42.5347 527.432C45.3028 524.956 50.3665 520.951 53.6748 518.621C56.983 516.291 62.5193 513.014 65.8275 511.339C69.1358 509.664 74.1994 507.407 76.9676 506.388C79.7357 505.295 84.7994 503.693 88.1076 502.747C91.4159 501.8 95.7368 500.781 97.5598 500.562C99.4502 500.344 102.758 499.907 104.986 499.688Z" fill="#E7E7E7"/>
<path d="M331.163 250.721L327.787 250.284C325.964 249.993 333.189 249.848 343.991 249.993C354.793 250.139 364.043 250.357 364.583 250.503C365.123 250.721 366.811 251.085 368.297 251.377C369.782 251.741 373.428 252.615 376.398 253.416C379.369 254.144 382.407 255.09 383.15 255.455C383.893 255.819 386.053 256.692 387.876 257.348C389.766 258.003 393.547 259.678 396.315 261.134C399.084 262.591 403.675 265.212 406.443 267.033C409.211 268.78 413.599 271.984 416.232 274.096C418.866 276.135 423.862 280.941 427.44 284.655C431.018 288.441 435.272 293.32 436.96 295.505C438.648 297.689 441.821 302.423 444.049 306.064C446.344 309.704 449.383 315.384 450.868 318.807C452.353 322.229 454.041 326.161 454.581 327.545C455.189 328.929 456.269 332.205 457.079 334.827C457.889 337.448 459.037 341.526 459.577 343.929C460.117 346.332 461.13 352.74 461.805 358.129C462.548 363.517 463.088 370.727 463.156 374.149C463.156 377.571 462.683 384.562 462.075 389.805C461.535 395.048 460.793 399.927 460.455 400.728C460.117 401.529 459.645 403.349 459.442 404.733C459.172 406.116 457.889 410.704 456.607 414.927C455.256 419.151 452.826 425.486 451.138 429.127C449.45 432.768 446.884 437.792 445.399 440.414C443.846 443.035 440.943 447.623 438.85 450.609C436.757 453.594 432.166 459.128 428.655 462.915C425.145 466.702 420.013 471.653 417.245 473.911C414.477 476.168 409.886 479.445 407.118 481.265C404.35 483.086 399.489 485.926 396.315 487.528C393.142 489.13 389.361 490.877 387.876 491.387C386.391 491.897 384.838 492.552 384.5 492.843C384.163 493.135 380.044 494.373 375.386 495.611C370.727 496.848 365.258 498.014 363.233 498.232C361.207 498.45 357.089 498.887 354.118 499.106C351.148 499.397 347.772 499.616 346.692 499.616C345.611 499.616 342.236 499.397 339.265 499.106C336.294 498.887 331.568 498.305 328.8 497.868C326.032 497.431 322.251 496.63 320.361 496.12C318.538 495.538 315.162 494.591 312.934 493.936C310.706 493.28 308.613 492.479 308.208 492.042C307.803 491.678 306.925 491.387 306.182 491.387C305.44 491.314 301.929 489.785 298.418 487.965C294.907 486.071 289.709 483.013 286.94 481.265C284.172 479.445 279.919 476.314 277.488 474.347C275.058 472.381 271.277 468.959 269.049 466.702C266.821 464.444 263.175 460.512 260.947 457.89C258.719 455.269 256.288 452.211 255.546 451.046C254.803 449.88 253.588 448.133 252.778 447.04C252.035 446.021 250.28 443.254 248.929 440.997C247.511 438.666 245.013 433.715 243.258 430.074C241.503 426.36 239.342 421.19 238.532 418.568C237.654 415.947 236.169 410.922 235.224 407.281C234.211 403.641 233.198 398.907 232.928 396.723C232.658 394.538 232.32 445.657 232.185 510.32C231.983 616.344 231.915 621.66 231.24 499.761L113.763 499.033L231.578 498.669L231.645 443.545C231.645 413.18 231.713 357.401 231.848 250.721L232.253 303.151C232.456 331.987 232.658 354.415 232.793 353.032C232.861 351.648 233.266 349.172 233.671 347.57C234.076 345.968 234.684 343.055 235.089 341.017C235.426 339.05 235.966 337.011 236.304 336.647C236.574 336.283 237.452 333.807 238.262 331.186C239.072 328.565 241.165 323.322 242.853 319.535C244.541 315.748 247.646 309.85 249.739 306.428C251.832 303.005 254.803 298.418 256.423 296.233C258.111 294.048 262.162 289.242 265.606 285.674C268.981 282.033 274.18 277.082 277.151 274.679C280.121 272.276 284.847 268.853 287.616 267.033C290.384 265.285 293.76 263.246 295.042 262.591C296.325 261.935 298.756 260.77 300.444 259.969C302.131 259.168 305.305 257.712 307.533 256.692C309.761 255.673 312.799 254.654 314.284 254.362C315.77 254.071 317.322 253.634 317.66 253.343C317.998 253.124 318.808 252.833 319.348 252.76C319.888 252.615 322.791 252.105 331.163 250.721Z" fill="#E7E7E7"/>
<path d="M103.636 250.648C105.459 250.43 107.079 250.139 107.214 249.993C107.35 249.847 135.368 249.702 231.443 249.556L231.578 304.389C231.713 334.536 231.713 365.92 231.713 374.149C231.713 382.377 231.713 413.762 231.578 498.669L165.953 498.45C129.832 498.305 99.1801 497.941 97.8974 497.649C96.6146 497.358 93.1038 496.484 90.1331 495.756C87.1624 494.955 81.8287 493.28 78.3179 492.115C74.8071 490.877 68.2581 487.892 63.8021 485.489C59.3461 483.086 52.8646 478.935 49.3538 476.241C45.843 473.546 39.9691 468.231 36.2558 464.444C32.5424 460.657 27.6138 454.905 25.3183 451.701C23.0228 448.497 19.4444 442.963 17.419 439.322C15.3935 435.681 12.7604 430.438 11.5451 427.671C10.2623 424.904 8.10185 418.641 6.61651 413.835C5.13117 409.029 3.30826 401.674 2.6331 397.451C1.89043 393.227 1.35031 388.421 1.35031 386.747C1.35031 384.999 1.01273 383.615 0.675154 383.615C0.270062 383.615 0 379.756 0 373.421C0 366.867 0.270062 363.372 0.675154 363.59C1.08025 363.809 1.35031 362.644 1.35031 360.896C1.35031 359.148 1.82292 355.143 2.36304 351.939C2.97068 348.735 3.91589 344.293 4.45602 342.109C5.06366 339.924 6.27893 335.628 7.22415 332.642C8.16936 329.657 10.0598 324.559 11.4101 321.355C12.8279 318.151 15.5285 312.763 17.4865 309.34C19.4444 305.918 22.9552 300.529 25.3183 297.325C27.6138 294.121 31.9348 288.951 34.838 285.747C37.7411 282.616 42.4672 278.174 45.2353 275.844C48.0035 273.586 51.9869 270.528 54.0123 269.144C56.0378 267.688 60.4263 265.067 63.8021 263.319C67.1103 261.498 71.9714 259.168 74.6045 258.149C77.1701 257.056 82.5038 255.236 86.4197 254.071C90.3356 252.906 94.9942 251.741 96.8846 251.522C98.7075 251.304 101.746 250.867 103.636 250.648Z" fill="#E7E7E7"/>
<path d="M104.649 2.77388C105.662 3.35643 106.067 3.21079 106.404 2.40978C106.607 1.82724 107.079 1.3175 107.417 1.3175C107.755 1.3175 108.16 1.75442 108.227 2.19133C108.362 2.77388 109.848 3.21079 111.806 3.28361C113.628 3.35643 115.721 3.50206 116.464 3.50206C117.207 3.50206 142.863 3.57488 173.515 3.50206C204.167 3.50206 229.755 3.57488 230.43 3.72052C231.038 3.79334 231.578 4.08461 231.578 4.37589C231.578 4.73998 231.105 4.95844 230.565 4.95844C230.025 4.95844 229.687 5.32253 229.89 5.68662C230.093 6.05072 230.498 6.26917 230.903 6.05072C231.308 5.83226 231.51 6.26917 231.375 6.92454C231.308 7.65273 230.903 8.74501 230.565 9.32756C230.093 10.1286 230.16 10.2742 230.768 9.83729C231.173 9.54601 231.578 9.69165 231.578 10.0557C231.578 10.4198 231.105 10.7839 230.565 10.7839C230.025 10.7839 229.687 11.148 229.89 11.5121C230.093 11.8762 230.498 12.0947 230.903 11.8762C231.308 11.6578 231.443 12.2403 231.308 13.1141C231.105 14.0608 230.97 14.789 230.903 14.789C230.835 14.789 230.7 15.3715 230.498 16.0269C230.363 16.7551 230.498 17.192 230.903 16.9735C231.308 16.7551 231.578 16.9735 231.578 17.3376C231.578 17.7017 231.105 18.0658 230.565 18.0658C230.025 18.0658 229.687 18.4299 229.89 18.794C230.093 19.1581 230.498 19.3765 230.903 19.1581C231.308 18.9396 231.443 19.5222 231.308 20.396C231.105 21.3426 230.97 22.0708 230.903 22.0708C230.835 22.0708 230.7 22.6534 230.498 23.3087C230.363 24.0369 230.498 24.4738 230.903 24.2554C231.308 24.0369 231.578 24.2554 231.578 24.6195C231.578 24.9836 231.105 25.3477 230.565 25.3477C230.025 25.3477 229.687 25.7118 229.89 26.0758C230.093 26.4399 230.498 26.6584 230.903 26.4399C231.308 26.2215 231.443 26.804 231.308 27.6779C231.105 28.6245 230.97 29.3527 230.903 29.3527C230.835 29.3527 230.7 29.9352 230.498 30.5906C230.363 31.3188 230.498 31.7557 230.903 31.5372C231.308 31.3188 231.578 31.5372 231.578 31.9013C231.578 32.2654 231.105 32.6295 230.565 32.6295C230.025 32.6295 229.687 32.9936 229.89 33.3577C230.093 33.7218 230.498 33.9403 230.903 33.7218C231.308 33.5034 231.443 34.0859 231.308 34.9597C231.105 35.9064 230.97 36.6346 230.903 36.6346C230.835 36.6346 230.7 37.2171 230.498 37.8725C230.363 38.6007 230.498 39.0376 230.903 38.8191C231.308 38.6007 231.578 38.8191 231.578 39.1832C231.578 39.5473 231.105 39.9114 230.565 39.9114C230.025 39.9114 229.687 40.2755 229.89 40.6396C230.093 41.0037 230.498 41.2221 230.903 41.0037C231.308 40.7852 231.443 41.3678 231.308 42.2416C231.105 43.1882 230.97 43.9164 230.903 43.9164C230.835 43.9164 230.7 44.499 230.498 45.1543C230.363 45.8825 230.498 46.3194 230.903 46.101C231.308 45.8825 231.578 46.101 231.578 46.4651C231.578 46.8292 231.105 47.1933 230.565 47.1933C230.025 47.1933 229.687 47.5574 229.89 47.9214C230.093 48.2855 230.498 48.504 230.903 48.2855C231.308 48.0671 231.443 48.6496 231.308 49.5235C231.105 50.4701 230.97 51.1983 230.903 51.1983C230.835 51.1983 230.7 51.7808 230.498 52.4362C230.363 53.1644 230.498 53.6013 230.903 53.3828C231.308 53.1644 231.578 53.3828 231.578 53.7469C231.578 54.111 231.105 54.4751 230.565 54.4751C230.025 54.4751 229.687 54.8392 229.89 55.2033C230.093 55.5674 230.498 55.7859 230.903 55.5674C231.308 55.3489 231.443 55.9315 231.308 56.8053C231.105 57.752 230.97 58.4802 230.903 58.4802C230.835 58.4802 230.7 59.0627 230.498 59.7181C230.363 60.4463 230.498 60.8832 230.903 60.6647C231.308 60.4463 231.578 60.6647 231.578 61.0288C231.578 61.3929 231.105 61.757 230.565 61.757C230.025 61.757 229.687 62.1211 229.89 62.4852C230.093 62.8493 230.498 63.0677 230.903 62.8493C231.308 62.6308 231.443 63.2134 231.308 64.0872C231.105 65.0338 230.97 65.762 230.903 65.762C230.835 65.762 230.7 66.3446 230.498 66.9999C230.363 67.7281 230.498 68.165 230.903 67.9466C231.308 67.7281 231.578 67.9466 231.578 68.3107C231.578 68.6748 231.105 69.0389 230.565 69.0389C230.025 69.0389 229.687 69.403 229.89 69.767C230.093 70.1311 230.498 70.3496 230.903 70.1311C231.308 69.9127 231.443 70.4952 231.308 71.3691C231.105 72.3157 230.97 73.0439 230.903 73.0439C230.835 73.0439 230.7 73.6264 230.498 74.2818C230.363 75.01 230.498 75.4469 230.903 75.2284C231.308 75.01 231.578 75.2284 231.578 75.5925C231.578 75.9566 231.105 76.3207 230.565 76.3207C230.025 76.3207 229.687 76.6848 229.89 77.0489C230.093 77.413 230.498 77.6315 230.903 77.413C231.308 77.1945 231.443 77.7771 231.308 78.6509C231.105 79.5976 230.97 80.3258 230.903 80.3258C230.835 80.3258 230.7 80.9083 230.498 81.5637C230.363 82.2919 230.498 82.7288 230.903 82.5103C231.308 82.2919 231.578 82.5103 231.578 82.8744C231.578 83.2385 231.105 83.6026 230.565 83.6026C230.025 83.6026 229.687 83.9667 229.89 84.3308C230.093 84.6949 230.498 84.9133 230.903 84.6949C231.308 84.4764 231.443 85.059 231.308 85.9328C231.105 86.8794 230.97 87.6076 230.903 87.6076C230.835 87.6076 230.7 88.1902 230.498 88.8455C230.363 89.5737 230.498 90.0106 230.903 89.7922C231.308 89.5737 231.578 89.7922 231.578 90.1563C231.578 90.5204 231.105 90.8845 230.565 90.8845C230.025 90.8845 229.687 91.2486 229.89 91.6126C230.093 91.9767 230.498 92.1952 230.903 91.9767C231.308 91.7583 231.443 92.3408 231.308 93.2147C231.105 94.1613 230.97 94.8895 230.903 94.8895C230.835 94.8895 230.7 95.472 230.498 96.1274C230.363 96.8556 230.498 97.2925 230.903 97.074C231.308 96.8556 231.578 97.074 231.578 97.4381C231.578 97.8022 231.105 98.1663 230.565 98.1663C230.025 98.1663 229.687 98.5304 229.89 98.8945C230.093 99.2586 230.498 99.4771 230.903 99.2586C231.308 99.0401 231.443 99.6227 231.308 100.497C231.105 101.443 230.97 102.171 230.903 102.171C230.835 102.171 230.7 102.754 230.498 103.409C230.363 104.137 230.498 104.574 230.903 104.356C231.308 104.137 231.578 104.356 231.578 104.72C231.578 105.084 231.105 105.448 230.565 105.448C230.025 105.448 229.687 105.812 229.89 106.176C230.093 106.54 230.498 106.759 230.903 106.54C231.308 106.322 231.443 106.905 231.308 107.778C231.105 108.725 230.97 109.453 230.903 109.453C230.835 109.453 230.7 110.036 230.498 110.691C230.363 111.419 230.498 111.856 230.903 111.638C231.308 111.419 231.578 111.638 231.578 112.002C231.578 112.366 231.105 112.73 230.565 112.73C230.025 112.73 229.687 113.094 229.89 113.458C230.093 113.822 230.498 114.041 230.903 113.822C231.308 113.604 231.443 114.186 231.308 115.06C231.105 116.007 230.97 116.735 230.903 116.735C230.835 116.735 230.7 117.318 230.498 117.973C230.363 118.701 230.498 119.138 230.903 118.92C231.308 118.701 231.578 118.92 231.578 119.284C231.578 119.648 231.105 120.012 230.565 120.012C230.025 120.012 229.687 120.376 229.89 120.74C230.093 121.104 230.498 121.323 230.903 121.104C231.308 120.886 231.443 121.468 231.308 122.342C231.105 123.289 230.97 124.017 230.903 124.017C230.835 124.017 230.7 124.599 230.498 125.255C230.363 125.983 230.498 126.42 230.903 126.202C231.308 125.983 231.578 126.202 231.578 126.566C231.578 126.93 231.105 127.294 230.565 127.294C230.025 127.294 229.687 127.658 229.89 128.022C230.093 128.386 230.498 128.605 230.903 128.386C231.308 128.168 231.443 128.75 231.308 129.624C231.105 130.571 230.97 131.299 230.903 131.299C230.835 131.299 230.7 131.881 230.498 132.537C230.363 133.265 230.498 133.702 230.903 133.483C231.308 133.265 231.578 133.483 231.578 133.847C231.578 134.212 231.105 134.576 230.565 134.576C230.025 134.576 229.687 134.94 229.89 135.304C230.093 135.668 230.498 135.886 230.903 135.668C231.308 135.449 231.443 136.032 231.308 136.906C231.105 137.852 230.97 138.581 230.903 138.581C230.835 138.581 230.7 139.163 230.498 139.819C230.363 140.547 230.498 140.984 230.903 140.765C231.308 140.547 231.578 140.765 231.578 141.129C231.578 141.493 231.105 141.858 230.565 141.858C230.025 141.858 229.687 142.222 229.89 142.586C230.093 142.95 230.498 143.168 230.903 142.95C231.308 142.731 231.443 143.314 231.308 144.188C231.105 145.134 230.97 145.863 230.903 145.863C230.835 145.863 230.7 146.445 230.498 147.1C230.363 147.829 230.498 148.266 230.903 148.047C231.308 147.829 231.578 148.047 231.578 148.411C231.578 148.775 231.105 149.139 230.565 149.139C230.025 149.139 229.687 149.503 229.89 149.868C230.093 150.232 230.498 150.45 230.903 150.232C231.308 150.013 231.443 150.596 231.308 151.47C231.105 152.416 230.97 153.144 230.903 153.144C230.835 153.144 230.7 153.727 230.498 154.382C230.363 155.111 230.498 155.547 230.903 155.329C231.308 155.111 231.578 155.329 231.578 155.693C231.578 156.057 231.105 156.421 230.565 156.421C230.025 156.421 229.687 156.785 229.89 157.149C230.093 157.514 230.498 157.732 230.903 157.514C231.308 157.295 231.443 157.878 231.308 158.751C231.105 159.698 230.97 160.426 230.903 160.426C230.835 160.426 230.7 161.009 230.498 161.664C230.363 162.392 230.498 162.829 230.903 162.611C231.308 162.392 231.578 162.611 231.578 162.975C231.578 163.339 231.105 163.703 230.565 163.703C230.025 163.703 229.687 164.067 229.89 164.431C230.093 164.795 230.498 165.014 230.903 164.795C231.308 164.577 231.443 165.159 231.308 166.033C231.105 166.98 230.97 167.708 230.903 167.708C230.835 167.708 230.7 168.291 230.498 168.946C230.363 169.674 230.498 170.111 230.903 169.893C231.308 169.674 231.578 169.893 231.578 170.257C231.578 170.621 231.105 170.985 230.565 170.985C230.025 170.985 229.687 171.349 229.89 171.713C230.093 172.077 230.498 172.296 230.903 172.077C231.308 171.859 231.443 172.441 231.308 173.315C231.105 174.262 230.97 174.99 230.903 174.99C230.835 174.99 230.7 175.573 230.498 176.228C230.363 176.956 230.498 177.393 230.903 177.175C231.308 176.956 231.578 177.175 231.578 177.539C231.578 177.903 231.105 178.267 230.565 178.267C230.025 178.267 229.687 178.631 229.89 178.995C230.093 179.359 230.498 179.578 230.903 179.359C231.308 179.141 231.443 179.723 231.308 180.597C231.105 181.544 230.97 182.272 230.903 182.272C230.835 182.272 230.7 182.854 230.498 183.51C230.363 184.238 230.498 184.675 230.903 184.456C231.308 184.238 231.578 184.456 231.578 184.821C231.578 185.185 231.105 185.549 230.565 185.549C230.025 185.549 229.687 185.913 229.89 186.277C230.093 186.641 230.498 186.859 230.903 186.641C231.308 186.423 231.443 187.005 231.308 187.879C231.105 188.826 230.97 189.554 230.903 189.554C230.835 189.554 230.7 190.136 230.498 190.792C230.363 191.52 230.498 191.957 230.903 191.738C231.308 191.52 231.578 191.738 231.578 192.102C231.578 192.466 231.105 192.831 230.565 192.831C230.025 192.831 229.687 193.195 229.89 193.559C230.093 193.923 230.498 194.141 230.903 193.923C231.308 193.704 231.443 194.287 231.308 195.161C231.105 196.107 230.97 196.836 230.903 196.836C230.835 196.836 230.7 197.418 230.498 198.074C230.363 198.802 230.498 199.239 230.903 199.02C231.308 198.802 231.578 199.02 231.578 199.384C231.578 199.748 231.105 200.112 230.565 200.112C230.025 200.112 229.687 200.477 229.89 200.841C230.093 201.205 230.498 201.423 230.903 201.205C231.308 200.986 231.443 201.569 231.308 202.443C231.105 203.389 230.97 204.117 230.903 204.117C230.835 204.117 230.7 204.7 230.498 205.355C230.363 206.084 230.498 206.52 230.903 206.302C231.308 206.084 231.578 206.302 231.578 206.666C231.578 207.03 231.105 207.394 230.565 207.394C230.025 207.394 229.687 207.758 229.89 208.122C230.093 208.487 230.498 208.705 230.903 208.487C231.308 208.268 231.443 208.851 231.308 209.725C231.105 210.671 230.97 211.399 230.903 211.399C230.835 211.399 230.7 211.982 230.498 212.637C230.363 213.365 230.498 213.802 230.903 213.584C231.308 213.365 231.578 213.584 231.578 213.948C231.578 214.312 231.105 214.676 230.565 214.676C230.025 214.676 229.687 215.04 229.89 215.404C230.093 215.768 230.498 215.987 230.903 215.768C231.308 215.55 231.443 216.133 231.308 217.006C231.105 217.953 230.97 218.681 230.903 218.681C230.835 218.681 230.7 219.264 230.498 219.919C230.363 220.647 230.498 221.084 230.903 220.866C231.308 220.647 231.578 220.866 231.578 221.23C231.578 221.594 231.105 221.958 230.565 221.958C230.025 221.958 229.687 222.322 229.89 222.686C230.093 223.05 230.498 223.269 230.903 223.05C231.308 222.832 231.443 223.414 231.308 224.288C231.105 225.235 230.97 225.963 230.903 225.963C230.835 225.963 230.7 226.546 230.498 227.201C230.363 227.929 230.498 228.366 230.903 228.148C231.308 227.929 231.578 228.148 231.578 228.512C231.578 228.876 231.105 229.24 230.565 229.24C230.025 229.24 229.687 229.604 229.89 229.968C230.093 230.332 230.498 230.551 230.903 230.332C231.308 230.114 231.443 230.696 231.308 231.57C231.105 232.517 230.97 233.245 230.903 233.245C230.835 233.245 230.7 233.827 230.498 234.483C230.363 235.211 230.498 235.648 230.903 235.43C231.308 235.211 231.578 235.43 231.578 235.794C231.578 236.158 231.105 236.522 230.565 236.522C230.025 236.522 229.687 236.886 229.89 237.25C230.093 237.614 230.498 237.833 230.903 237.614C231.308 237.396 231.443 237.978 231.308 238.852C231.105 239.799 230.97 240.527 230.903 240.527C230.835 240.527 230.7 241.109 230.498 241.765C230.363 242.493 230.498 242.93 230.903 242.711C231.308 242.493 231.578 242.711 231.578 243.075C231.578 243.44 231.105 243.804 230.565 243.804C230.025 243.804 229.687 244.168 229.89 244.532C230.093 244.896 230.498 245.114 230.903 244.896C231.308 244.677 231.51 245.187 231.443 245.988C231.308 246.789 230.835 247.445 230.43 247.445C229.957 247.445 229.687 247.809 229.89 248.173C230.093 248.537 230.633 248.683 231.038 248.318C231.623 247.979 231.735 248.1 231.375 248.683C231.038 249.411 218.412 249.629 172.029 249.556C138.474 249.556 113.696 249.265 114.439 248.901C115.181 248.537 140.837 248.173 227.189 247.809L172.839 247.59C142.93 247.445 116.532 247.59 114.101 247.809C110.86 248.173 109.983 248.464 110.725 248.974C111.4 249.484 110.995 249.556 109.375 249.192C108.092 248.901 105.932 248.61 104.649 248.537C103.366 248.464 100.463 248.173 98.2349 247.882C96.0069 247.517 91.4159 246.498 88.1076 245.478C84.7994 244.459 79.7357 242.857 76.9676 241.91C74.1994 240.891 68.2581 238.124 63.8021 235.794C59.3461 233.391 52.7971 229.167 49.2863 226.473C45.7755 223.779 39.4965 217.953 35.3781 213.584C31.2596 209.215 26.5336 203.608 24.9132 201.205C23.2928 198.802 20.7272 194.87 19.2419 192.466C17.8241 190.063 14.9884 184.675 13.098 180.451C11.14 176.228 8.97955 170.839 8.23688 168.436C7.49421 166.033 6.48148 162.392 5.87384 160.426C5.33372 158.387 4.3885 154.674 3.84838 152.052C3.24074 149.431 2.6331 145.863 2.43055 144.042C2.22801 142.222 1.89043 138.508 1.62037 135.668C1.41782 132.828 0.8777 130.352 0.405093 130.134C-0.0675154 129.77 0.135031 129.333 1.01273 128.75C1.95795 128.168 2.02546 128.022 1.21528 128.313C0.135031 128.677 0 128.24 0 124.891C0 122.852 0.270062 120.74 0.607639 120.376C1.01273 120.012 1.48534 117.39 1.7554 114.551C1.95795 111.711 2.43055 107.487 2.76813 105.084C3.03819 102.681 3.5108 99.6227 3.71335 98.312C3.91589 97.074 4.3885 96.1274 4.72608 96.3459C5.13117 96.5643 5.19869 96.2002 4.99614 95.472C4.79359 94.7439 5.40123 91.5398 6.34645 88.3358C7.35918 85.1318 8.777 80.617 9.45216 78.2868C10.3974 75.3741 11.0725 74.2818 11.6802 74.6459C12.2203 75.0343 12.3328 74.9129 12.0177 74.2818C11.6802 73.7721 12.2203 71.7332 13.233 69.6214C14.1782 67.5097 15.7311 64.3785 16.6088 62.7036C17.4865 60.956 18.5667 59.7181 18.9043 59.9365C19.3094 60.155 19.3769 59.7909 19.1069 59.0627C18.7018 58.0432 18.7693 57.8976 19.5795 58.4802C20.3221 58.9899 20.4572 58.9899 20.1196 58.2617C19.782 57.752 20.4572 56.0771 21.8075 54.111C22.9552 52.3634 24.238 51.1255 24.6431 51.4167C25.0482 51.708 25.1157 51.5624 24.7782 51.0527C24.5081 50.4701 25.2508 48.7953 26.6686 46.8292C27.9514 45.0087 29.3692 43.698 29.7068 43.9164C30.1119 44.1349 30.3144 43.8436 30.2469 43.4067C30.1119 42.897 30.4495 42.5329 30.9221 42.6785C31.3272 42.7513 31.6647 42.3872 31.5972 41.9503C31.4622 41.4406 31.7998 41.0765 32.2724 41.2221C32.6775 41.2949 33.015 41.1493 33.015 40.858C32.9475 40.4939 32.9475 39.8386 33.015 39.4017C33.015 38.8919 33.4201 38.6007 33.7577 38.8191C34.1628 39.0376 34.4329 38.8191 34.4329 38.455C34.4329 38.0909 34.7704 37.8725 35.108 38.0909C35.5131 38.3094 35.5806 38.0181 35.3106 37.2899C34.838 36.3433 35.0405 36.2705 36.0532 36.7074C36.9984 37.2171 37.201 37.0715 37.066 36.2705C36.9309 35.6879 37.201 35.251 37.6736 35.3966C38.0787 35.4695 38.3488 35.3238 38.1462 35.0325C38.0112 34.6684 38.8889 33.2849 40.2392 31.9013C41.522 30.5178 42.5347 29.7168 42.5347 30.0809C42.5347 30.445 43.0748 29.9352 43.885 28.843C44.6277 27.6779 45.3704 26.8769 45.5729 27.0225C45.7755 27.0953 46.8557 26.2943 47.9359 25.202C49.3538 23.8185 50.299 23.3087 51.1767 23.6728C51.9869 24.0369 52.1894 23.9641 51.8518 23.3087C51.5143 22.799 51.7843 22.0708 52.3244 21.5611C52.9321 21.0514 53.4047 20.9057 53.4047 21.3426C53.3597 21.8281 53.5172 21.8281 53.8773 21.3426C54.1474 20.9785 54.9576 20.1047 55.6327 19.5222C56.4429 18.8668 56.7805 18.794 56.5104 19.3765C56.1728 20.0319 56.3754 20.1047 57.3881 19.5222C58.1308 19.1581 58.7384 18.4299 58.7384 18.0658C58.7384 17.7017 59.8862 16.6822 61.304 15.8812C62.6543 15.1531 64.0046 14.7161 64.3422 15.0074C64.6123 15.2987 65.4224 14.789 66.1651 13.9151C66.9078 12.9685 67.6504 12.2403 67.853 12.2403C68.0555 12.2403 68.0555 12.6044 67.853 12.9685C67.6504 13.3326 67.988 13.551 68.5281 13.3326C69.0683 13.1141 69.5409 12.5316 69.5409 12.0947C69.5409 11.5849 69.6759 11.3665 69.8785 11.7306C70.081 12.0218 70.6886 11.7306 71.2288 11.148C71.7689 10.5655 72.7141 10.2014 73.2542 10.4198C73.7943 10.6383 74.267 10.347 74.267 9.91011C74.267 9.40038 74.4695 9.18192 74.7396 9.4732C75.0096 9.76447 75.8873 9.54601 76.63 9.03628C77.3727 8.45373 78.5204 8.16246 79.1956 8.3081C79.8032 8.45373 80.3433 8.23528 80.3433 7.87118C80.3433 7.38573 80.7934 7.38573 81.6936 7.87118C82.4363 8.23528 83.1115 8.38092 83.1115 8.01682C83.179 7.72555 83.179 7.28863 83.1115 6.92454C83.1115 6.63327 83.314 6.56045 83.7191 6.7789C84.1242 6.99736 85.6095 6.92454 87.0949 6.56045C88.5802 6.26917 89.7955 5.61381 89.7955 5.10408C89.7955 4.66716 90.3356 4.08461 91.0108 3.93898C91.6184 3.79334 92.7662 4.0118 93.5089 4.44871C94.5216 4.95844 94.9942 4.88562 95.5343 4.0118C95.9394 3.35643 96.6146 2.8467 97.0872 2.77388C97.4923 2.77388 97.7623 3.13797 97.5598 3.50206C97.3572 3.86616 98.0324 4.44871 99.1126 4.66716C100.463 5.03126 101.206 4.8128 102.151 3.57488C103.029 2.33697 103.569 2.19133 104.649 2.77388Z" fill="#E7E7E7"/>
<path d="M105.999 0.88039C108.43 0.661934 110.523 0.297841 110.658 0.152203C110.86 0.00656605 166.763 -0.0662526 234.886 0.0793847C303.077 0.152203 359.452 0.516297 360.195 0.734753C360.937 0.953209 363.233 1.39012 365.258 1.6814C367.284 1.97267 371.672 2.91931 375.048 3.86596C378.424 4.8126 383.42 6.41461 386.188 7.43407C388.956 8.45353 393.817 10.6381 396.991 12.3129C400.164 13.9149 404.552 16.4636 406.78 17.92C409.008 19.3035 413.532 22.726 416.908 25.4203C420.283 28.0418 426.36 34.0129 430.411 38.5276C435.002 43.6249 439.795 49.9602 442.833 54.839C445.534 59.2081 449.247 66.1259 451.07 70.1309C452.893 74.136 455.324 80.544 456.472 84.3306C457.619 88.1171 459.105 93.5057 459.78 96.3457C460.455 99.1856 461.535 106.686 462.21 113.094C463.291 124.235 463.291 125.327 462.21 136.76C461.535 143.387 460.32 151.542 459.442 154.965C458.565 158.387 457.012 163.776 456.067 166.98C455.121 170.184 452.826 176.082 451.003 180.087C449.247 184.092 446.142 189.99 444.184 193.194C442.293 196.399 438.648 201.641 436.082 204.845C433.584 208.049 429.6 212.71 427.237 215.113C424.942 217.589 420.688 221.521 417.92 223.851C415.152 226.254 410.291 229.895 407.118 231.934C403.945 233.973 399.286 236.667 396.653 237.978C394.02 239.216 391.319 240.527 390.577 240.891C389.834 241.255 386.796 242.42 383.825 243.439C380.854 244.459 376.128 245.915 373.36 246.716C370.592 247.444 364.786 248.464 360.532 248.974C355.334 249.483 332.513 249.847 231.308 249.993L231.24 1.3173L229.215 1.24448C228.134 1.24448 200.588 1.17166 168.113 1.17166C135.638 1.17166 108.16 1.3173 107.012 1.60858C105.864 1.82703 103.434 2.19113 101.611 2.40958C99.7202 2.62804 97.0196 2.99213 95.5342 3.21059C94.0489 3.42904 90.6731 4.30287 88.1075 5.10387C85.5419 5.90488 82.0311 6.92434 80.3433 7.43407C78.6554 7.9438 75.1446 9.32736 72.579 10.4196C70.0134 11.5119 66.3001 13.2596 64.4771 14.279C62.5867 15.2257 59.2785 17.1918 57.0504 18.6481C54.8224 20.0317 50.2314 23.4542 46.9231 26.1485C43.5474 28.8428 37.8761 34.2313 34.2978 38.1635C30.6519 42.1686 26.2634 47.4843 24.4405 50.1058C22.6176 52.7273 19.8495 57.0964 18.2291 59.9363C16.6087 62.7763 14.1782 67.5095 12.7603 70.495C11.41 73.4806 9.1145 79.5974 7.69668 83.9665C6.34637 88.3356 4.79352 93.9426 4.2534 96.3457C3.71327 98.7487 3.03812 102.681 2.70054 105.084C2.43048 107.487 1.95795 111.711 1.7554 114.551C1.48534 117.39 1.01273 120.012 0.607639 120.376C0.135031 120.886 -7.54744e-05 119.648 0.134955 116.516C0.269986 114.041 0.472532 112.002 0.675079 112.002C0.877625 112.002 1.2152 109.453 1.55278 106.395C1.82284 103.263 2.36296 99.6953 2.70054 98.5302C3.03812 97.3651 3.98333 93.8698 4.79352 90.8843C5.53619 87.8987 6.95401 83.1655 7.89923 80.3256C8.84444 77.4856 10.7349 72.9709 12.0177 70.1309C13.3005 67.291 15.731 62.5578 17.4189 59.5722C19.1068 56.5867 21.8749 52.1447 23.5628 49.7417C25.2507 47.3387 29.3691 42.3142 32.7449 38.5276C36.0532 34.8139 41.2518 29.7166 44.2225 27.2407C47.1932 24.6921 51.7842 21.1968 54.3498 19.3763C56.9154 17.6287 61.9791 14.6431 65.4899 12.7498C69.0007 10.9294 74.3344 8.59917 77.3051 7.50689C80.2757 6.48743 84.9343 4.95824 87.5674 4.15723C90.268 3.42904 94.5215 2.4824 97.0196 2.04549C99.5852 1.6814 103.569 1.17166 105.999 0.88039Z" fill="#E7E7E7"/>
</svg>
