<svg width="1259" height="604" viewBox="0 0 1259 604" fill="currentColor" xmlns="http://www.w3.org/2000/svg">
<path fill-rule="evenodd" clip-rule="evenodd" d="M358.701 0C458.802 0 541.439 0.854314 542.717 1.70863C543.994 2.9901 529.086 51.686 509.491 109.779C490.323 167.873 474.563 217.423 474.563 219.986C474.563 222.549 481.378 228.102 489.897 232.801C498.842 237.499 510.343 248.178 515.455 256.294C520.992 264.41 526.53 279.788 528.234 290.467C529.938 303.281 528.66 314.815 524.826 324.639C519.715 337.027 519.289 342.153 523.974 354.54C526.956 362.656 529.512 378.888 529.512 390.849C529.512 402.382 527.382 419.895 524.4 429.293C521.844 438.263 509.491 456.204 497.991 469.018C483.508 484.823 469.877 494.221 455.394 499.347C443.467 503.618 415.354 510.453 392.352 514.297C369.776 518.141 339.107 525.83 324.624 531.383C309.715 536.936 280.75 550.178 259.452 560.43C238.154 571.109 206.632 585.205 189.168 591.612C165.314 600.583 149.127 603.573 125.274 604C99.7159 604 88.6408 601.864 70.3245 593.748C57.1196 587.768 39.6552 574.953 29.858 563.847C19.635 552.314 9.83782 535.228 6.00416 523.267C2.59647 511.307 -0.385269 488.24 0.0406935 472.009C0.0406935 452.786 3.44839 431.856 9.83782 414.342C14.9494 398.965 22.6167 379.743 26.8763 371.627C34.9696 356.676 34.9696 356.676 24.7465 339.59C18.783 329.765 14.0974 315.242 14.0974 305.417C13.6715 296.02 15.3753 281.496 17.9311 273.38C20.9128 265.265 29.0061 252.45 36.6734 244.761C44.3408 237.499 55.8417 228.956 62.6571 226.82C69.0466 224.257 81.8254 222.122 91.1966 222.122C100.568 222.122 113.347 224.257 120.162 226.82C126.551 228.956 137.201 236.218 143.59 242.625C150.405 249.033 158.073 258.003 160.628 262.702C162.758 267.4 166.592 276.798 168.296 284.059C170 291.321 169.574 305.417 167.018 316.096C164.888 326.775 158.925 340.871 153.387 348.133C148.276 355.395 136.775 364.365 128.255 368.209C115.05 374.617 112.495 378.034 112.495 388.713C112.495 395.975 114.625 405.799 117.18 410.925C119.736 416.478 125.274 424.167 129.107 428.011C135.497 434.846 137.201 434.846 155.091 425.448C165.74 419.895 183.63 406.653 195.131 396.829C206.632 386.577 217.707 374.19 219.837 369.491C223.245 362.656 221.541 358.812 213.022 350.269C207.484 344.289 200.243 334.464 198.113 327.629C195.557 321.222 193.428 308.407 193.428 299.01C193.428 289.612 197.261 274.235 201.947 264.837C206.632 255.44 216.855 243.052 224.523 237.072C231.764 231.519 240.709 226.393 243.691 226.393C246.673 226.393 247.951 223.403 246.247 218.704C244.969 214.86 228.782 166.591 210.04 111.915C191.724 57.6662 176.389 9.82461 176.389 6.40736C176.389 0.854314 199.391 0 358.701 0ZM255.192 129.429C272.231 178.979 287.991 220.413 290.121 221.267C291.825 221.694 308.011 193.502 325.476 158.048C342.94 122.594 358.275 93.9745 359.553 93.9745C360.831 93.9745 376.165 122.594 393.63 158.048C411.094 193.502 427.707 221.694 429.837 220.84C432.392 219.986 448.153 178.552 465.191 129.001L495.861 38.4441H224.097L255.192 129.429ZM325.902 241.771C342.088 264.837 346.774 273.808 346.774 276.798C346.774 280.215 352.311 281.924 360.831 281.924C372.758 281.924 375.739 279.361 383.833 261.847L393.204 241.344L360.831 172.999L325.902 241.771ZM56.2677 275.089C52.434 280.642 49.0263 291.748 49.0263 300.719C49.0263 313.106 52.0081 319.941 61.3793 329.338C70.7504 338.735 78.4177 342.153 89.0668 342.153C98.8639 342.153 108.661 338.736 115.902 332.328C122.292 326.775 128.681 316.951 130.385 310.116C132.089 302.854 130.811 291.748 127.829 284.487C124.848 277.652 119.736 269.536 116.754 266.546C113.347 263.983 104.827 260.566 97.586 259.284C90.7706 258.003 80.1216 259.284 74.1581 261.42C68.6206 263.983 60.5273 269.963 56.2677 275.089ZM237.728 273.808C232.616 280.215 230.06 289.612 230.486 301.146C230.912 315.242 233.894 321.222 244.117 330.62C253.488 338.736 262.007 342.153 272.656 342.153C284.157 342.153 291.399 339.163 300.344 329.338C308.437 321.222 312.697 312.252 312.697 303.709C312.697 296.874 310.993 286.195 308.437 280.215C306.308 274.662 298.64 266.973 291.399 263.129C284.583 259.711 275.638 257.149 271.379 257.149C267.119 257.149 259.878 258.857 254.766 260.993C249.655 262.702 241.987 268.682 237.728 273.808ZM414.928 284.059C407.687 297.728 407.261 301.146 412.372 313.533C415.354 321.222 422.595 330.62 428.133 334.891C434.096 339.163 444.745 342.58 452.839 342.58C462.636 342.58 470.303 338.735 479.248 329.338C488.619 319.941 491.601 312.679 491.601 300.719C491.601 291.748 488.193 280.642 484.36 275.516C480.1 270.39 472.433 264.41 467.321 261.847C462.21 259.284 454.542 257.149 450.283 257.149C446.023 257.149 438.356 259.711 433.244 262.702C428.133 265.692 419.613 275.089 414.928 284.059ZM316.105 363.938C305.456 371.627 290.121 377.607 278.62 379.315C262.859 381.451 256.896 384.868 242.413 401.528C233.042 412.207 216.004 428.011 204.077 436.982C192.576 445.525 172.981 457.912 160.628 463.893C148.276 469.873 135.923 474.999 132.941 474.999C129.959 474.999 118.884 467.737 108.235 458.767C95.4562 447.233 86.937 435.7 81.8254 421.177C77.5658 409.644 74.1581 394.693 74.1581 388.286C74.1581 381.024 72.4543 377.18 69.0466 378.034C66.0648 378.888 58.3975 392.13 52.0081 407.935C45.6187 423.313 39.2292 448.515 37.5254 463.038C36.2475 477.989 37.0994 497.638 39.6552 507.89C42.211 517.714 49.8783 532.238 56.2677 539.499C62.6571 547.188 75.436 556.586 84.8072 560.857C94.1783 565.129 110.791 568.546 121.014 568.546C131.663 568.973 150.831 565.556 163.61 562.139C176.815 558.294 213.022 542.489 244.543 527.539C276.49 512.161 313.549 496.356 327.606 491.658C341.662 486.959 371.054 480.124 392.778 476.707C414.502 473.29 438.356 467.31 446.023 463.465C453.69 459.621 464.34 452.786 469.877 447.661C475.415 442.535 482.656 433.137 485.638 426.73C489.045 420.323 491.601 404.518 491.601 391.276V367.782C455.82 379.743 447.301 380.17 433.244 376.752C423.447 374.19 408.964 366.928 401.297 360.093C393.63 353.259 384.685 341.726 380.851 334.464C375.739 323.358 372.332 320.795 361.257 320.795C350.608 320.795 346.774 323.785 341.236 335.745C337.403 344.289 325.902 356.676 316.105 363.938Z" fill="#4d64b5"/>
<path d="M1012.13 261.847C1017.66 256.294 1029.59 249.032 1038.96 245.615C1050.04 241.343 1063.67 240.062 1078.15 241.343C1090.5 242.625 1106.69 246.469 1113.51 249.886C1121.17 253.731 1129.69 263.555 1134.38 274.662C1139.06 284.486 1142.05 293.884 1140.77 296.019C1139.92 297.728 1132.25 299.01 1124.16 299.01C1113.93 299.01 1109.25 296.874 1109.25 292.602C1109.25 289.185 1104.14 282.35 1097.32 277.652C1090.08 272.099 1079.43 268.681 1068.78 269.109C1059.41 269.109 1047.48 272.099 1041.94 275.516C1036.83 278.933 1032.57 285.768 1032.57 290.466C1032.57 295.165 1036.83 302 1041.94 305.417C1047.48 308.834 1065.37 314.387 1081.56 318.232C1098.17 322.076 1116.49 328.056 1122.88 331.473C1129.69 334.891 1137.79 341.725 1141.19 347.278C1144.6 352.404 1147.58 364.792 1147.58 375.043C1147.58 389.567 1145.03 395.547 1133.95 407.507C1123.73 417.759 1113.51 422.885 1096.47 426.729C1079.86 430.147 1066.65 430.574 1051.74 427.584C1040.24 425.021 1024.91 418.613 1018.09 413.488C1011.28 407.935 1003.18 397.256 999.774 389.994C996.793 382.305 994.237 374.189 994.237 371.626C994.237 369.063 1001.9 367.355 1011.28 367.355C1026.18 367.355 1028.74 368.636 1030.44 378.034C1031.72 384.441 1037.69 391.275 1045.35 395.12C1052.59 398.537 1066.65 401.527 1077.3 401.527C1092.63 401.527 1099.02 398.964 1107.12 390.848C1113.08 384.868 1117.77 378.461 1117.77 375.898C1117.77 373.335 1113.93 367.782 1109.25 363.083C1104.56 358.384 1093.06 352.831 1083.69 350.268C1074.32 347.705 1059.41 344.288 1050.46 341.725C1041.94 339.589 1028.31 333.609 1020.65 328.911C1013.41 324.212 1004.89 315.241 1002.33 308.834C999.774 302 998.923 291.321 1000.2 284.059C1001.48 276.797 1007.02 266.973 1012.13 261.847Z" fill="#4d64b5"/>
<path fill-rule="evenodd" clip-rule="evenodd" d="M896.266 239.208C899.674 239.208 909.897 241.344 918.842 243.48C927.361 246.043 941.418 254.159 949.937 261.848C958.031 269.109 967.828 283.205 971.235 292.603C974.643 302 977.625 317.378 979.329 343.862L845.151 345.998L849.41 362.229C851.966 370.773 856.226 380.597 859.207 384.014C861.763 387.005 869.431 392.558 876.246 395.548C882.635 398.965 893.284 401.528 900.526 401.528C907.767 401.528 918.416 398.965 925.232 395.548C931.621 392.558 939.288 384.869 942.27 378.461C946.104 369.491 950.363 367.355 962.29 367.355C975.495 367.355 976.773 368.21 974.643 377.18C973.365 382.306 968.68 391.276 964.846 397.256C960.586 403.237 951.641 411.78 944.826 416.906C938.01 421.604 923.954 426.73 913.305 428.439C900.526 430.575 886.895 429.72 872.838 425.449C858.781 421.177 846.855 413.915 837.483 404.091C830.242 395.548 821.723 380.597 819.167 370.773C816.611 360.521 814.055 343.862 814.055 333.183C813.629 322.504 816.185 307.126 819.593 299.01C822.575 290.894 828.538 279.361 832.372 273.808C836.205 267.828 843.873 260.139 849.41 256.722C855.374 253.304 866.875 247.751 874.968 244.761C883.061 241.771 892.858 239.635 896.266 239.208ZM857.93 289.186C853.244 295.593 848.984 304.563 849.41 308.835C849.41 315.242 854.522 316.097 898.396 316.097H947.382C940.992 297.729 934.603 288.331 929.491 282.778C923.528 277.225 912.453 272.527 902.656 271.245C893.284 269.964 881.357 270.818 876.246 272.954C871.134 275.089 863.041 282.351 857.93 289.186Z" fill="#4d64b5"/>
<path d="M738.66 379.316C741.215 371.627 743.345 322.504 743.345 269.963V174.707L774.866 177.27V282.778C774.866 381.451 774.44 388.713 766.347 399.819C761.662 405.799 752.29 415.197 745.901 420.323C736.104 427.584 727.585 429.293 702.453 429.293C677.321 429.293 668.802 427.584 659.005 420.323C652.615 415.197 643.67 405.799 639.836 398.965C636.003 392.13 632.169 377.18 630.039 343.862L666.246 341.726V360.094C665.82 371.627 668.802 382.306 674.765 389.995C681.581 399.392 686.692 401.528 700.323 401.528C709.694 401.528 721.195 399.819 725.881 397.256C730.566 394.693 736.53 386.577 738.66 379.316Z" fill="#4d64b5"/>
<path d="M1190.18 243.479V192.22H1224.26V243.479L1240.44 244.761C1254.93 245.615 1256.2 246.897 1257.48 259.711C1258.33 272.953 1257.91 273.38 1224.26 273.38V397.256H1241.29C1257.91 397.256 1258.33 397.683 1258.33 412.206C1258.33 427.157 1258.33 427.157 1239.17 427.157C1228.52 427.157 1214.89 424.594 1208.5 421.177C1201.68 418.187 1195.29 410.925 1193.59 405.372C1191.88 399.819 1190.18 367.782 1190.18 273.38H1175.27C1161.21 273.38 1160.36 272.526 1161.21 259.711C1162.49 247.324 1164.2 245.615 1190.18 243.479Z" fill="#4d64b5"/>
</svg>
