<svg width="551" height="551" viewBox="0 0 551 551" fill="none" xmlns="http://www.w3.org/2000/svg">
<mask id="mask0_2148_1456" style="mask-type:alpha" maskUnits="userSpaceOnUse" x="0" y="0" width="548" height="534">
<ellipse cx="274" cy="267" rx="274" ry="267" fill="url(#paint0_linear_2148_1456)"/>
</mask>
<g mask="url(#mask0_2148_1456)">
<ellipse cx="274.16" cy="266.815" rx="151.16" ry="144.815" fill="#E4DCF8"/>
</g>
<ellipse cx="274.38" cy="263.328" rx="151.161" ry="144.812" fill="#E4DCF8"/>
<path d="M137.677 262.5C142.096 262.5 145.649 266.092 145.942 270.501C150.247 335.325 206.493 386.625 275.245 386.625C343.997 386.625 400.241 335.325 404.546 270.501C404.839 266.092 408.393 262.5 412.811 262.5H440C444.419 262.5 448.022 266.084 447.799 270.497C446.839 289.499 442.465 308.221 434.85 325.834C426.168 345.913 413.443 364.158 397.401 379.526C381.359 394.894 362.314 407.085 341.355 415.402C320.395 423.719 297.931 428 275.245 428C252.558 428 230.093 423.719 209.133 415.402C188.174 407.085 169.129 394.894 153.087 379.526C137.046 364.158 124.321 345.913 115.639 325.834C108.024 308.221 103.65 289.499 102.691 270.497C102.468 266.084 106.07 262.5 110.489 262.5H137.677ZM224.055 262.5C228.473 262.5 231.972 266.119 232.851 270.449C236.721 289.497 254.23 303.875 275.245 303.875C296.259 303.875 313.768 289.497 317.637 270.449C318.516 266.119 322.015 262.5 326.433 262.5H353.623C358.041 262.5 361.664 266.091 361.219 270.487C360.397 278.614 358.321 286.596 355.047 294.167C350.707 304.207 344.344 313.329 336.323 321.013C328.302 328.697 318.78 334.793 308.3 338.951C297.821 343.11 286.588 345.25 275.245 345.25C263.901 345.25 252.669 343.11 242.189 338.951C231.709 334.793 222.187 328.697 214.167 321.013C206.146 313.329 199.783 304.207 195.442 294.167C192.168 286.596 190.093 278.614 189.27 270.487C188.825 266.091 192.448 262.5 196.867 262.5H224.055ZM448 213.125C448 217.543 444.418 221.125 440 221.125H291.882C287.464 221.125 283.882 217.543 283.882 213.125V187.75C283.882 183.332 287.464 179.75 291.882 179.75H440C444.418 179.75 448 183.332 448 187.75V213.125ZM448 130.375C448 134.793 444.418 138.375 440 138.375H291.882C287.464 138.375 283.882 134.793 283.882 130.375V105C283.882 100.582 287.464 97 291.882 97H440C444.418 97 448 100.582 448 105V130.375Z" fill="#B940A7"/>
<defs>
<linearGradient id="paint0_linear_2148_1456" x1="274" y1="0" x2="274" y2="534" gradientUnits="userSpaceOnUse">
<stop offset="0.597826" stop-color="#D9D9D9"/>
<stop offset="0.847248" stop-color="#A5A5A5" stop-opacity="0.490421"/>
<stop offset="1" stop-color="#737373" stop-opacity="0"/>
</linearGradient>
</defs>
</svg>
