<svg width="200" height="200" viewBox="0 0 200 200" fill="none" xmlns="http://www.w3.org/2000/svg">
<circle cx="99.2041" cy="100.5" r="87.5" fill="#E4DCF8"/>
<path d="M16.704 100C21.1223 100 24.6592 103.594 25.1243 107.987C29.1118 145.653 60.9808 175 99.704 175C138.427 175 170.296 145.653 174.284 107.987C174.749 103.594 178.286 100 182.704 100H191.704C196.122 100 199.737 103.587 199.384 107.992C198.551 118.386 196.095 128.604 192.092 138.269C187.066 150.401 179.701 161.425 170.415 170.711C161.129 179.997 150.105 187.362 137.973 192.388C125.84 197.413 112.836 200 99.704 200C86.5718 200 73.568 197.413 61.4354 192.388C49.303 187.362 38.2788 179.997 28.9931 170.711C19.7073 161.425 12.3418 150.401 7.3163 138.269C3.31308 128.604 0.85729 118.386 0.0238538 107.992C-0.329261 103.587 3.28572 100 7.704 100H16.704ZM66.704 100C71.1223 100 74.5776 103.673 75.9668 107.867C79.2636 117.82 88.6453 125 99.704 125C110.763 125 120.144 117.82 123.441 107.867C124.83 103.673 128.286 100 132.704 100H141.704C146.122 100 149.769 103.604 149.065 107.966C148.448 111.79 147.388 115.538 145.898 119.134C143.386 125.2 139.702 130.713 135.059 135.355C130.417 139.998 124.904 143.682 118.838 146.194C112.772 148.707 106.27 150 99.704 150C93.1381 150 86.6363 148.707 80.5702 146.194C74.504 143.682 68.9914 139.998 64.3485 135.355C59.7056 130.713 56.0224 125.2 53.5097 119.134C52.0205 115.538 50.9597 111.79 50.3426 107.966C49.6387 103.604 53.2857 100 57.704 100H66.704ZM199.704 67C199.704 71.4183 196.122 75 191.704 75H112.704C108.286 75 104.704 71.4183 104.704 67V58C104.704 53.5817 108.286 50 112.704 50H191.704C196.122 50 199.704 53.5817 199.704 58V67ZM199.704 17C199.704 21.4183 196.122 25 191.704 25H112.704C108.286 25 104.704 21.4183 104.704 17V8C104.704 3.58172 108.286 0 112.704 0H191.704C196.122 0 199.704 3.58172 199.704 8V17Z" fill="#B940A7"/>
</svg>
