<svg width="1007" height="545" viewBox="0 0 1007 545" fill="none" xmlns="http://www.w3.org/2000/svg">
<path d="M218.476 0.0190084C246.414 -0.113461 259.126 0.41724 276.737 2.53675C289.051 3.86144 306.927 6.64317 316.46 8.63021C325.994 10.4848 339.5 13.7965 346.65 15.916C353.668 18.0356 364.128 21.6126 369.689 23.8645C375.383 26.1166 384.784 30.3553 390.609 33.402C396.435 36.4487 405.704 42.2768 411.133 46.3834C416.562 50.4899 423.713 57.1146 426.891 60.9563C430.068 64.9305 434.57 71.9515 440.926 85.3301V460.219L436.027 470.154C432.717 477.175 428.611 482.739 422.123 489.097C417.224 493.998 409.544 500.489 405.174 503.404C400.805 506.318 391.272 511.617 383.989 515.194C376.707 518.771 365.319 523.407 358.831 525.659C352.343 527.778 342.413 530.826 336.984 532.15C331.555 533.608 320.83 535.991 313.15 537.581C305.47 539.038 291.567 541.291 282.034 542.615C267.998 544.602 256.08 545 218.476 545C174.914 544.868 170.677 544.602 148.564 541.29C135.721 539.303 117.183 535.727 107.517 533.21C97.9838 530.693 84.6095 526.719 78.1214 524.467C71.501 522.082 60.7765 517.446 54.2885 514.135C47.668 510.956 38.7962 505.788 34.4267 502.874C30.0572 499.96 22.6424 493.601 17.8756 488.832C12.4469 483.268 7.5473 476.645 0 461.544V84.0047L4.63399 74.7321C7.54702 68.9035 12.4469 62.2802 17.8756 56.7165C22.6424 51.9477 30.0572 45.5889 34.4267 42.6746C38.7963 39.7602 48.0649 34.4614 54.9501 31.0173C61.8355 27.5731 75.2094 22.142 84.7428 19.0952C94.2764 15.9159 108.842 11.8089 117.183 9.95432C125.525 8.09979 138.898 5.71577 146.975 4.52355C154.919 3.33132 166.307 2.00675 172.133 1.34441C177.96 0.682087 198.88 0.151481 218.476 0.0190084ZM40.3852 396.236C39.8556 395.972 39.458 407.232 39.3256 421.406C39.1932 443.396 39.5906 447.767 41.5767 452.271C42.9009 455.186 47.0055 460.219 50.7129 463.531C54.4203 466.842 62.7621 472.273 69.2501 475.718C75.6058 479.029 86.1989 483.666 92.8194 486.051C99.3074 488.303 110.43 491.615 117.315 493.337C124.2 495.059 137.044 497.708 145.783 499.165C154.522 500.622 169.088 502.477 178.224 503.272C187.36 504.067 206.957 504.729 221.92 504.729C236.882 504.729 257.67 503.801 268.262 502.609C278.855 501.549 293.95 499.431 302.027 498.106C309.972 496.649 323.743 493.337 332.482 490.82C341.221 488.303 353.668 484.063 360.288 481.281C366.776 478.5 376.706 473.201 382.135 469.492C387.564 465.783 394.052 460.219 396.303 457.172L400.672 451.609L400.54 396.633C379.62 406.966 366.114 412.53 356.978 415.444C347.841 418.491 333.54 422.466 325.199 424.32C316.857 426.175 301.895 428.957 292.096 430.414C282.298 431.871 262.04 433.725 247.077 434.652C225.892 435.845 213.975 435.845 193.452 434.652C178.887 433.725 158.627 431.87 148.431 430.281C138.236 428.824 121.552 425.645 111.357 423.128C101.161 420.744 87.3904 416.769 80.9023 414.517C74.2817 412.265 62.7616 407.231 55.0819 403.522C47.4037 399.681 40.7845 396.502 40.3852 396.236ZM758.731 175.524C761.644 175.259 769.324 175.26 775.944 175.657C782.565 175.922 791.966 176.982 797.13 178.042C802.294 179.102 810.504 181.618 815.668 183.738C820.832 185.725 828.246 189.567 832.219 192.084C836.191 194.733 842.944 200.032 847.313 204.006C851.551 207.98 858.171 215.928 862.143 221.757C865.983 227.585 871.015 237.123 873.266 242.952C875.649 248.78 878.429 257.788 879.621 262.822C880.945 268.916 881.74 278.984 881.74 292.628C881.74 307.994 881.21 315.546 879.489 322.434C878.165 327.6 874.855 336.476 872.074 342.305C869.426 348.133 865.056 356.213 862.408 360.187C859.76 364.161 853.67 371.447 848.903 376.481C844.136 381.382 836.191 388.006 831.159 391.185C826.26 394.365 818.448 398.472 813.681 400.326C808.915 402.181 803.088 404.299 796.467 405.889V433.045L753.434 432.384L752.773 325.745H793.82V340.317C793.82 354.755 793.82 354.888 796.732 354.094C798.454 353.696 801.632 352.504 803.751 351.444C805.869 350.517 810.901 346.411 814.608 342.305C818.58 338.198 823.612 330.779 826.26 325.48C828.776 320.181 831.954 310.776 833.145 304.55C834.999 295.013 835.132 291.701 833.808 282.428C832.881 276.334 831.027 268.253 829.438 264.544C827.981 260.703 824.141 253.682 820.963 248.913C817.918 244.144 812.357 237.653 808.914 234.342C805.339 231.162 798.586 226.658 793.82 224.538C787.199 221.491 782.83 220.432 774.621 220.035C767.074 219.638 761.645 220.035 756.084 221.757C751.714 222.949 745.092 225.598 741.517 227.717C737.81 229.704 731.057 235.533 726.291 240.567C721.392 245.733 715.831 253.285 713.447 258.186C711.064 262.955 708.283 270.638 706.959 275.407C705.502 281.368 704.973 287.859 705.238 296.602C705.767 308.127 706.297 310.246 710.666 319.122C713.447 324.553 717.948 331.706 720.729 335.018C723.51 338.329 729.204 343.231 740.856 350.915L740.459 375.819C740.194 399.796 740.061 400.591 737.545 400.193C736.088 399.928 729.865 397.412 723.643 394.498C717.42 391.583 708.812 386.549 704.443 383.502C700.073 380.322 692.393 373.301 687.362 368.003C682.198 362.571 675.842 354.623 673.062 350.252C670.281 345.88 666.176 338.197 664.058 333.031C662.071 327.997 659.291 318.327 658.099 311.836C656.378 302.961 655.981 296.072 656.511 285.342C656.908 277.262 658.496 266.001 660.085 260.173C661.542 254.344 664.852 245.072 667.5 239.641C670.148 234.209 675.047 225.863 678.622 221.094C682.065 216.325 688.157 209.437 692.129 205.728C695.969 202.019 703.251 196.322 708.415 193.01C713.579 189.699 721.524 185.327 726.291 183.473C731.058 181.618 739.003 179.102 744.166 178.042C749.33 176.982 755.818 175.789 758.731 175.524ZM628.308 221.094L600.898 220.3C581.037 219.637 571.106 219.902 565.413 221.094C561.043 222.021 555.879 223.611 553.892 224.538C551.774 225.598 549.258 227.851 548.199 229.705C546.478 232.619 546.478 233.547 548.067 236.726C549.127 238.714 552.834 243.084 556.408 246.396C559.851 249.707 572.827 260.57 585.273 270.373C597.719 280.175 610.828 291.567 614.536 295.409C618.244 299.383 623.541 306.14 626.321 310.512C629.102 314.883 632.544 321.771 633.868 325.745C635.192 329.719 636.649 336.342 637.179 340.317C637.576 345.086 637.179 350.517 635.723 356.214C634.531 360.982 632.147 367.208 630.426 370.123C628.704 373.037 624.335 378.203 620.893 381.78C617.318 385.224 610.565 390.125 605.798 392.51C601.031 395.027 593.351 398.074 588.584 399.134C581.831 400.724 571.503 401.253 502.518 401.253V356.214L521.982 357.273C532.839 357.803 548.066 358.067 556.143 357.803C564.22 357.67 574.019 356.611 577.991 355.551C581.963 354.491 586.332 352.505 587.789 351.312C589.378 349.723 589.952 347.823 589.511 345.616C589.113 343.761 586.863 339.787 584.745 336.741C582.494 333.562 571.901 323.759 561.175 314.883C550.451 305.876 537.077 294.086 531.516 288.655C525.955 283.223 518.407 274.215 514.832 268.784C511.389 263.353 506.754 254.345 504.636 248.913C501.855 241.495 500.664 235.799 500.267 226.393C499.605 215.134 499.869 213.014 502.65 206.656C504.503 202.417 508.211 197.249 511.786 194.203C515.096 191.156 520.657 187.447 524.365 185.724C527.94 184.135 534.296 181.883 538.268 180.823C543.961 179.366 554.82 178.837 628.308 178.705V221.094ZM950.329 254.477C950.726 327.865 950.858 330.514 953.506 336.343C954.963 339.654 958.272 343.893 960.788 345.88C963.171 347.867 967.939 349.987 971.249 350.782C974.559 351.576 983.961 352.239 1007 352.239V401.253L937.352 400.591L929.54 396.616C924.111 393.834 919.874 390.258 915.372 384.694C911.797 380.323 907.56 373.434 905.971 369.46C903.06 362.18 903.058 361.643 902.662 270.724L902.66 270.506L902.264 178.705H950.064L950.329 254.477ZM39.0607 304.965C39.0607 320.464 39.4576 335.168 39.9872 337.685C40.6494 340.467 43.4312 344.971 47.1385 348.945C50.5812 352.654 57.9956 358.482 63.8214 361.926C69.5149 365.37 80.3725 370.537 88.0523 373.318C95.7321 376.233 109.106 380.473 117.845 382.592C126.584 384.712 139.428 387.493 146.313 388.553C153.198 389.745 165.512 391.334 173.457 392.262C181.534 393.189 202.985 393.852 221.125 393.852C243.899 393.852 260.053 393.19 272.764 391.6C282.96 390.408 294.613 388.685 298.585 388.023C302.557 387.228 310.104 385.639 315.136 384.579C320.3 383.387 329.436 381.002 335.659 379.147C341.883 377.425 351.946 373.716 358.169 371.067C364.392 368.55 373 364.311 377.369 361.661C381.739 359.144 387.962 354.64 391.139 351.726C394.317 348.679 397.759 344.705 398.686 342.718C400.142 339.936 400.54 331.856 400.54 308.542C400.54 291.854 400.143 278.343 399.614 278.471C399.084 278.736 391.669 282.18 383.328 286.287C374.986 290.393 362.407 295.559 355.521 297.811C348.636 299.93 338.175 302.978 332.349 304.435C326.522 305.892 314.871 308.409 306.53 309.866C298.188 311.323 282.43 313.575 271.44 314.767C258.729 316.092 240.191 316.887 219.801 316.887C198.748 316.887 181.402 316.093 168.161 314.635C157.304 313.311 141.811 311.19 133.734 309.733C125.79 308.276 113.475 305.626 106.59 303.904C99.7044 302.182 88.9798 299.004 82.7567 296.885C76.5334 294.765 66.9991 291.056 61.5703 288.671C56.1415 286.287 48.8592 282.577 45.2841 280.59L38.9289 276.881L39.0607 304.965ZM39.1938 188.259C39.0614 213.958 39.4587 218.463 41.4449 223.099C42.7694 226.014 47.1389 231.18 51.1109 234.756C55.0835 238.201 63.6902 243.764 70.1779 247.208C76.7986 250.52 89.9069 255.818 99.3077 258.997C108.841 262.044 122.744 265.754 130.424 267.344C138.103 268.933 150.947 271.052 158.892 272.245C166.969 273.304 183.918 274.629 196.629 275.159C209.34 275.689 230.26 275.689 242.972 275.159C255.683 274.762 273.295 273.304 282.034 272.112C290.773 270.919 303.351 268.8 309.839 267.475C316.327 266.151 327.185 263.369 333.673 261.515C340.161 259.528 349.43 256.48 354.197 254.626C358.963 252.771 366.644 249.195 371.411 246.81C376.177 244.293 382.797 240.188 386.372 237.671C389.815 235.154 394.449 230.517 396.568 227.337L400.672 221.774C400.54 174.085 400.01 160.307 399.481 160.44C398.951 160.705 392.861 163.62 385.975 167.064C379.09 170.508 365.319 175.939 355.521 179.251C345.723 182.43 329.039 186.934 318.447 189.053C307.854 191.305 290.905 194.22 280.709 195.545C266.277 197.399 253.035 197.929 220.462 197.929C187.89 197.929 174.649 197.399 160.216 195.545C150.021 194.22 134.529 191.703 125.79 189.981C117.051 188.259 102.883 184.682 94.4088 182.165C85.8022 179.516 74.1497 175.541 68.5885 173.289C62.8949 171.037 54.0231 166.931 48.7267 164.017L39.1938 158.718V188.259ZM225.759 40.4229C220.992 40.2905 207.884 40.5552 196.629 40.9526C185.374 41.4825 170.411 42.6748 163.526 43.6021C156.64 44.397 143.268 46.6487 133.734 48.5032C124.201 50.2253 108.444 54.4648 98.6461 57.6441C88.8479 60.9558 75.4741 66.3868 69.1183 69.831C62.6305 73.2751 54.2887 78.7062 50.5811 82.0179C46.8736 85.3297 42.9008 90.3643 41.5767 93.2786C40.1204 96.5901 39.7226 99.7691 40.2521 101.889C40.7817 103.743 42.5031 106.922 43.9596 109.174C45.4161 111.426 49.9188 115.665 53.7587 118.712C57.731 121.626 65.6752 126.529 71.5012 129.443C77.3272 132.357 87.3903 136.596 94.0108 138.98C100.631 141.232 111.887 144.545 119.17 146.399C126.452 148.121 139.561 150.771 148.299 152.228C157.038 153.552 173.061 155.406 184.051 156.333C196.232 157.26 214.902 157.659 232.379 157.129C248.003 156.732 266.54 155.671 273.426 154.876C280.311 154.081 293.685 151.962 303.219 150.24C312.752 148.518 327.582 144.942 336.321 142.292C345.06 139.643 358.17 134.609 365.452 131.165C372.735 127.721 381.738 122.421 385.446 119.639C389.153 116.857 393.92 112.354 396.038 109.837C398.289 107.055 399.878 103.213 400.275 99.9017C400.673 95.7952 400.011 93.4107 397.363 89.7016C395.509 86.9197 390.212 81.8857 385.577 78.574C381.076 75.2623 374.058 70.7587 370.086 68.7717C366.114 66.7847 357.11 62.9423 350.224 60.4253C343.339 57.7759 330.231 53.8018 321.094 51.6824C311.958 49.4304 296.466 46.3834 286.668 44.9262C276.87 43.469 261.113 42.0127 251.579 41.6153C242.046 41.2179 230.526 40.6879 225.759 40.4229Z" fill="#E7E7E7"/>
</svg>
